<svg xmlns="http://www.w3.org/2000/svg" width="104" height="78" fill="none" overflow="visible"><g><path d="M 70.2 33.8 C 70.2 23.748 62.052 15.6 52 15.6 C 41.948 15.6 33.8 23.748 33.8 33.8 C 33.8 43.852 41.948 52 52 52 C 62.052 52 70.2 43.852 70.2 33.8 Z" fill="transparent" stroke-width="1.5" stroke="rgb(0,0,0)" stroke-linecap="round" stroke-linejoin="round" stroke-dasharray=""></path><path d="M 70.108 35.617 C 77.461 37.85 85.424 35.225 90.007 29.057 C 94.59 22.889 94.806 14.507 90.545 8.112 C 86.284 1.717 78.466 -1.313 71.009 0.54 C 63.551 2.393 58.061 8.731 57.29 16.377 M 46.708 16.377 C 45.938 8.731 40.449 2.393 32.992 0.539 C 25.535 -1.315 17.717 1.713 13.455 8.107 C 9.194 14.502 9.407 22.883 13.989 29.052 C 18.57 35.221 26.532 37.848 33.885 35.617" fill="transparent" stroke-width="1.5" stroke="rgb(0,0,0)" stroke-linecap="round" stroke-linejoin="round" stroke-dasharray=""></path><path d="M 104 62.4 C 104 48.043 91.198 36.4 75.4 36.4 M 80.6 78 C 80.6 63.643 67.798 52 52 52 C 36.202 52 23.4 63.643 23.4 78 M 28.6 36.4 C 12.802 36.4 0 48.043 0 62.4" fill="transparent" stroke-width="1.5" stroke="rgb(0,0,0)" stroke-linecap="round" stroke-linejoin="round" stroke-dasharray=""></path></g></svg>