<svg width="664" height="518" viewBox="0 0 664 518" fill="none" xmlns="http://www.w3.org/2000/svg">
<path d="M540.792 421.812C526.654 434.723 514.005 442.313 504.319 448.043C409.863 503.926 301.889 487.819 268.506 482.314C214.647 473.432 169.182 467.166 130.12 435.896C41.3591 364.842 45.6763 216.617 113.501 124.798C121.542 113.911 189.264 24.9655 297.472 12.4323C300.119 12.1258 302.093 11.9513 303.823 11.789C320.562 10.2186 424.294 1.93045 508.876 64.7189C520.984 73.7067 540.468 89.9186 558.537 114.644C624.604 205.052 624.813 345.074 540.792 421.812Z" fill="#F4F7FA"/>
<path d="M239.602 397.98C261.834 394.396 262.128 281.577 252.139 202.86C243.935 138.213 226.612 79.3577 213.691 80.131C203.8 80.7226 200.124 116.034 191.617 115.533C180.219 114.862 183.937 51.3014 162.841 44.967C149.842 41.0642 128.959 59.3473 119.28 79.9924C101.818 117.24 123.951 155.516 167.143 249.907C222.491 370.864 228.16 399.825 239.602 397.98Z" fill="url(#paint0_linear_1_492)"/>
<path d="M239.602 397.98C261.834 394.396 262.128 281.577 252.139 202.86C243.935 138.213 226.612 79.3577 213.691 80.131C203.8 80.7226 200.124 116.034 191.617 115.533C180.219 114.862 183.937 51.3014 162.841 44.967C149.842 41.0642 128.959 59.3473 119.28 79.9924C101.818 117.24 123.951 155.516 167.143 249.907C222.491 370.864 228.16 399.825 239.602 397.98Z" fill="url(#paint1_linear_1_492)"/>
<path opacity="0.3" d="M237.358 324.088C239.653 293.155 248.17 276.268 238.234 251.657C229.555 230.159 218.055 230.655 207.66 205.658C195.888 177.347 207.773 169.817 197.349 147.364C182.876 116.188 154.43 118.782 142.642 91.2522C138.916 82.5518 136.583 70.1969 140.568 52.6722C132.238 59.3437 124.27 69.3493 119.28 79.9924C101.819 117.24 123.952 155.517 167.143 249.907C222.491 370.865 228.16 399.825 239.602 397.98C241.341 397.7 242.946 396.751 244.422 395.203C236.713 366.04 236.022 342.095 237.358 324.088Z" fill="white"/>
<path d="M246.161 446.78L145.256 412.634L290.397 402.884L246.161 446.78Z" fill="#D8DEE8"/>
<path d="M185.996 149.392L146.708 403.124C145.961 408.017 149.429 412.436 153.851 412.226L350.484 402.884L185.996 149.392Z" fill="url(#paint2_linear_1_492)"/>
<path d="M268.487 429.443C244.42 369.653 215.454 326.568 193.433 298.409C143.888 235.053 117.844 232.352 106.304 232.845C90.9243 233.503 70.71 241.144 66.7456 254.825C59.3284 280.421 112.073 315.839 105.396 325.393C101.94 330.338 87.2954 321.598 80.7033 328.011C71.6884 336.782 86.0214 365.828 89.931 372.844C120.149 427.071 232.273 429.618 268.487 429.443Z" fill="url(#paint3_linear_1_492)"/>
<path opacity="0.5" d="M217.383 382.801C193.21 366.897 185.573 368.202 172.999 353.768C149.811 327.153 160.476 305.151 138.48 287.889C122.797 275.582 112.675 283.077 90.3852 269.902C81.3129 264.54 74.0243 257.998 68.1786 251.324C67.5844 252.444 67.0981 253.609 66.7458 254.825C59.3286 280.421 112.074 315.839 105.396 325.394C101.941 330.338 87.2956 321.598 80.7034 328.011C71.6885 336.782 86.0214 365.828 89.931 372.844C120.149 427.071 232.273 429.618 268.488 429.443C268.049 428.352 267.605 427.28 267.163 426.2C248.418 405.152 230.711 391.571 217.383 382.801Z" fill="white"/>
<path d="M545.657 154.68L193.547 143.717C188.411 143.557 185.044 147.515 186.042 152.559L243.157 441.344C244.155 446.387 249.055 450.178 254.086 449.812L599.064 424.715C602.967 424.431 605.413 420.615 604.538 416.192L554.445 162.914C553.571 158.491 549.641 154.804 545.657 154.68Z" fill="url(#paint4_linear_1_492)"/>
<path d="M547.557 154.68L195.447 143.716C190.311 143.556 186.944 147.515 187.942 152.559L245.057 441.344C246.055 446.387 250.955 450.178 255.986 449.812L600.964 424.715C604.867 424.431 607.313 420.615 606.438 416.192L556.345 162.914C555.47 158.491 551.541 154.804 547.557 154.68Z" fill="url(#paint5_linear_1_492)"/>
<g opacity="0.3">
<path d="M455.666 307.7C386.361 269.791 320.685 299.26 273.397 250.634C244.28 220.692 238.934 178.298 239.808 145.097L195.446 143.716C190.311 143.556 186.944 147.515 187.941 152.559L245.057 441.344C246.054 446.387 250.954 450.178 255.986 449.812L555.308 428.036C522.592 356.544 485.707 324.133 455.666 307.7Z" fill="url(#paint6_linear_1_492)"/>
</g>
<path d="M589.182 415.096L262.391 437.551C256.962 437.925 251.671 433.805 250.592 428.35L199.709 171.082C198.63 165.626 202.255 161.318 207.786 161.458L540.683 169.882C545.031 169.992 549.317 173.984 550.27 178.798L595.175 405.848C596.127 410.663 593.45 414.803 589.182 415.096Z" fill="#D8DEE8"/>
<path d="M590.647 414.996L264.249 437.424C258.826 437.797 253.541 433.68 252.463 428.228L201.613 171.124C200.535 165.672 204.154 161.366 209.678 161.506L542.176 169.92C546.519 170.03 550.801 174.019 551.753 178.831L596.633 405.753C597.585 410.566 594.91 414.703 590.647 414.996Z" fill="url(#paint7_linear_1_492)"/>
<path d="M375.316 254.281L339.687 254.503C338.618 254.509 337.575 253.622 337.357 252.52L331.463 222.721C331.245 221.619 331.938 220.731 333.009 220.737L368.721 220.938C369.765 220.944 370.785 221.829 371 222.916L376.812 252.302C377.026 253.388 376.357 254.274 375.316 254.281ZM340.832 250.507L372.649 250.353L367.609 224.867L335.734 224.732L340.832 250.507Z" fill="#D8DEE8"/>
<path d="M420.34 254L385.851 254.215C384.817 254.222 383.804 253.349 383.59 252.265L377.792 222.949C377.577 221.866 378.245 220.992 379.281 220.998L413.851 221.192C414.862 221.198 415.852 222.069 416.063 223.138L421.782 252.053C421.994 253.122 421.348 253.994 420.34 254ZM386.947 250.284L417.746 250.136L412.786 225.058L381.932 224.928L386.947 250.284Z" fill="#D8DEE8"/>
<path d="M463.944 253.729L430.541 253.937C429.539 253.943 428.556 253.084 428.345 252.017L422.64 223.17C422.429 222.104 423.072 221.244 424.076 221.25L457.557 221.438C458.536 221.444 459.498 222.301 459.706 223.353L465.335 251.813C465.543 252.865 464.92 253.723 463.944 253.729ZM431.589 250.069L461.419 249.925L456.537 225.243L426.654 225.117L431.589 250.069Z" fill="#D8DEE8"/>
<path d="M506.193 253.465L473.826 253.667C472.856 253.673 471.9 252.827 471.693 251.778L466.077 223.385C465.87 222.335 466.49 221.488 467.463 221.494L499.906 221.677C500.854 221.682 501.789 222.526 501.994 223.562L507.535 251.58C507.74 252.615 507.14 253.46 506.193 253.465ZM474.83 249.86L503.735 249.721L498.929 225.422L469.973 225.3L474.83 249.86Z" fill="#D8DEE8"/>
<path d="M547.15 253.21L515.771 253.406C514.83 253.412 513.902 252.579 513.698 251.545L508.169 223.592C507.965 222.558 508.563 221.725 509.506 221.73L540.959 221.907C541.879 221.912 542.787 222.743 542.989 223.763L548.446 251.353C548.648 252.373 548.068 253.205 547.15 253.21ZM516.733 249.658L544.755 249.522L540.023 225.596L511.95 225.477L516.733 249.658Z" fill="#D8DEE8"/>
<path d="M288.751 295.487L250.771 296.257C249.631 296.28 248.524 295.375 248.298 294.236L242.204 263.419C241.978 262.28 242.722 261.349 243.865 261.339L281.934 261.021C283.046 261.012 284.127 261.914 284.349 263.037L290.357 293.413C290.579 294.535 289.86 295.464 288.751 295.487ZM252.017 292.095L285.934 291.455L280.724 265.11L246.745 265.441L252.017 292.095Z" fill="#D8DEE8"/>
<path d="M336.7 294.514L299.976 295.259C298.874 295.281 297.801 294.391 297.579 293.271L291.587 262.972C291.365 261.852 292.081 260.936 293.186 260.927L329.997 260.619C331.072 260.61 332.121 261.498 332.339 262.603L338.247 292.475C338.466 293.58 337.773 294.492 336.7 294.514ZM301.167 291.168L333.963 290.549L328.839 264.64L295.984 264.961L301.167 291.168Z" fill="#D8DEE8"/>
<path d="M383.087 293.574L347.557 294.294C346.491 294.316 345.45 293.44 345.232 292.339L339.338 262.539C339.12 261.438 339.81 260.538 340.879 260.529L376.493 260.231C377.533 260.223 378.551 261.096 378.766 262.183L384.578 291.569C384.792 292.655 384.126 293.553 383.087 293.574ZM348.696 290.271L380.426 289.673L375.385 264.186L343.599 264.497L348.696 290.271Z" fill="#D8DEE8"/>
<path d="M427.987 292.663L393.593 293.361C392.562 293.382 391.551 292.52 391.337 291.436L385.539 262.121C385.324 261.037 385.989 260.152 387.023 260.143L421.498 259.855C422.506 259.847 423.493 260.706 423.705 261.775L429.424 290.691C429.635 291.76 428.992 292.643 427.987 292.663ZM394.684 289.404L425.398 288.824L420.438 263.747L389.668 264.047L394.684 289.404Z" fill="#D8DEE8"/>
<path d="M471.47 291.782L438.159 292.457C437.161 292.477 436.179 291.629 435.969 290.563L430.263 261.716C430.052 260.65 430.694 259.778 431.695 259.77L465.083 259.491C466.06 259.483 467.019 260.329 467.227 261.381L472.856 289.841C473.064 290.893 472.444 291.762 471.47 291.782ZM439.203 288.564L468.95 288.003L464.068 263.321L434.268 263.612L439.203 288.564Z" fill="#D8DEE8"/>
<path d="M513.602 290.928L481.324 291.582C480.357 291.602 479.404 290.767 479.196 289.717L473.581 261.324C473.373 260.274 473.992 259.417 474.961 259.409L507.315 259.138C508.261 259.13 509.194 259.964 509.399 260.999L514.94 289.017C515.145 290.053 514.546 290.908 513.602 290.928ZM482.324 287.75L511.149 287.207L506.343 262.908L477.466 263.19L482.324 287.75Z" fill="#D8DEE8"/>
<path d="M554.446 290.099L523.154 290.734C522.216 290.753 521.289 289.931 521.085 288.897L515.556 260.944C515.352 259.91 515.949 259.066 516.889 259.059L548.255 258.797C549.172 258.789 550.079 259.61 550.281 260.629L555.737 288.219C555.939 289.239 555.361 290.081 554.446 290.099ZM524.111 286.962L552.056 286.435L547.324 262.509L519.329 262.782L524.111 286.962Z" fill="#D8DEE8"/>
<path d="M296.784 336.103L258.909 337.405C257.772 337.444 256.668 336.553 256.442 335.413L250.347 304.597C250.122 303.458 250.864 302.513 252.003 302.488L289.967 301.637C291.076 301.612 292.155 302.502 292.377 303.625L298.385 334C298.607 335.123 297.89 336.065 296.784 336.103ZM260.15 333.215L293.973 332.099L288.762 305.754L254.878 306.561L260.15 333.215Z" fill="#D8DEE8"/>
<path d="M344.6 334.458L307.977 335.718C306.879 335.755 305.808 334.878 305.586 333.758L299.594 303.459C299.372 302.338 300.086 301.41 301.187 301.386L337.896 300.563C338.969 300.539 340.015 301.415 340.233 302.519L346.141 332.392C346.36 333.496 345.67 334.421 344.6 334.458ZM309.163 331.599L341.868 330.52L336.744 304.611L303.98 305.392L309.163 331.599Z" fill="#D8DEE8"/>
<path d="M390.858 332.867L355.426 334.086C354.363 334.122 353.325 333.259 353.107 332.157L347.213 302.358C346.995 301.256 347.683 300.344 348.748 300.32L384.263 299.524C385.301 299.501 386.316 300.363 386.531 301.449L392.343 330.836C392.558 331.922 391.893 332.831 390.858 332.867ZM356.56 330.035L388.202 328.992L383.161 303.506L351.463 304.26L356.56 330.035Z" fill="#D8DEE8"/>
<path d="M435.634 331.326L401.336 332.506C400.307 332.542 399.299 331.692 399.085 330.608L393.287 301.293C393.072 300.209 393.735 299.312 394.766 299.289L429.145 298.518C430.15 298.496 431.136 299.344 431.347 300.413L437.066 329.328C437.277 330.397 436.636 331.292 435.634 331.326ZM402.421 328.523L433.05 327.513L428.09 302.435L397.406 303.166L402.421 328.523Z" fill="#D8DEE8"/>
<path d="M478.996 329.835L445.778 330.977C444.782 331.012 443.803 330.175 443.592 329.108L437.887 300.262C437.676 299.195 438.315 298.313 439.313 298.29L472.61 297.544C473.583 297.522 474.541 298.357 474.749 299.41L480.377 327.869C480.585 328.921 479.967 329.802 478.996 329.835ZM446.817 327.059L476.481 326.08L471.599 301.399L441.881 302.107L446.817 327.059Z" fill="#D8DEE8"/>
<path d="M521.011 328.39L488.823 329.497C487.858 329.53 486.907 328.706 486.7 327.656L481.084 299.263C480.877 298.214 481.493 297.345 482.46 297.324L514.724 296.6C515.668 296.579 516.598 297.402 516.803 298.438L522.344 326.455C522.549 327.491 521.953 328.357 521.011 328.39ZM489.818 325.641L518.562 324.693L513.757 300.395L484.961 301.081L489.818 325.641Z" fill="#D8DEE8"/>
<path d="M561.742 326.989L530.536 328.062C529.601 328.094 528.677 327.282 528.472 326.249L522.944 298.296C522.739 297.262 523.334 296.408 524.272 296.386L555.551 295.685C556.465 295.665 557.37 296.475 557.572 297.495L563.028 325.085C563.23 326.105 562.654 326.957 561.742 326.989ZM531.489 324.266L559.356 323.347L554.624 299.421L526.706 300.086L531.489 324.266Z" fill="#D8DEE8"/>
<path d="M304.817 376.719L267.048 378.554C265.914 378.609 264.812 377.73 264.587 376.591L258.492 345.775C258.267 344.636 259.005 343.678 260.142 343.637L298 342.253C299.106 342.213 300.182 343.09 300.404 344.213L306.412 374.589C306.634 375.711 305.92 376.665 304.817 376.719ZM268.283 374.335L302.012 372.744L296.801 346.399L263.011 347.681L268.283 374.335Z" fill="#D8DEE8"/>
<path d="M352.5 374.401L315.979 376.176C314.883 376.229 313.815 375.364 313.593 374.244L307.601 343.945C307.379 342.825 308.091 341.884 309.189 341.844L345.796 340.506C346.866 340.467 347.909 341.331 348.128 342.435L354.036 372.307C354.254 373.412 353.567 374.349 352.5 374.401ZM317.16 372.029L349.774 370.491L344.649 344.582L311.977 345.823L317.16 372.029Z" fill="#D8DEE8"/>
<path d="M398.629 372.16L363.296 373.877C362.236 373.928 361.2 373.077 360.982 371.975L355.088 342.176C354.871 341.075 355.556 340.15 356.618 340.111L392.035 338.817C393.07 338.779 394.083 339.629 394.298 340.716L400.11 370.102C400.324 371.188 399.662 372.11 398.629 372.16ZM364.425 369.8L395.978 368.311L390.938 342.825L359.328 344.025L364.425 369.8Z" fill="#D8DEE8"/>
<path d="M443.28 369.989L409.078 371.652C408.052 371.702 407.046 370.863 406.832 369.78L401.034 340.464C400.819 339.38 401.48 338.471 402.508 338.434L436.792 337.181C437.794 337.145 438.777 337.981 438.989 339.05L444.707 367.966C444.919 369.035 444.28 369.941 443.28 369.989ZM410.158 367.642L440.701 366.201L435.742 341.124L405.143 342.285L410.158 367.642Z" fill="#D8DEE8"/>
<path d="M486.522 367.888L453.396 369.498C452.403 369.546 451.427 368.721 451.216 367.654L445.51 338.808C445.299 337.741 445.936 336.847 446.932 336.811L480.136 335.597C481.107 335.562 482.062 336.386 482.27 337.438L487.898 365.898C488.106 366.95 487.49 367.841 486.522 367.888ZM454.43 365.554L484.012 364.158L479.13 339.476L449.495 340.602L454.43 365.554Z" fill="#D8DEE8"/>
<path d="M528.421 365.852L496.322 367.412C495.36 367.459 494.411 366.645 494.204 365.596L488.588 337.203C488.381 336.153 488.995 335.274 489.959 335.239L522.134 334.063C523.075 334.028 524.003 334.84 524.208 335.876L529.749 363.894C529.954 364.93 529.359 365.806 528.421 365.852ZM497.312 363.531L525.977 362.179L521.171 337.881L492.455 338.971L497.312 363.531Z" fill="#D8DEE8"/>
<path d="M569.038 363.878L537.919 365.39C536.987 365.435 536.065 364.635 535.86 363.601L530.332 335.648C530.127 334.614 530.72 333.749 531.655 333.715L562.847 332.575C563.759 332.542 564.662 333.341 564.863 334.361L570.32 361.951C570.522 362.971 569.948 363.834 569.038 363.878ZM538.867 361.571L566.657 360.26L561.925 336.333L534.085 337.39L538.867 361.571Z" fill="#D8DEE8"/>
<path d="M312.85 417.335L275.186 419.703C274.056 419.774 272.956 418.908 272.731 417.769L266.636 386.952C266.411 385.813 267.147 384.843 268.28 384.786L306.033 382.869C307.136 382.813 308.21 383.678 308.432 384.801L314.44 415.176C314.662 416.299 313.95 417.266 312.85 417.335ZM276.415 415.455L310.05 413.388L304.84 387.043L271.144 388.801L276.415 415.455Z" fill="#D8DEE8"/>
<path d="M360.4 414.345L323.981 416.635C322.888 416.704 321.822 415.851 321.601 414.731L315.608 384.432C315.387 383.312 316.096 382.359 317.191 382.303L353.696 380.45C354.763 380.396 355.804 381.247 356.023 382.352L361.931 412.224C362.149 413.329 361.464 414.278 360.4 414.345ZM325.156 412.46L357.679 410.462L352.555 384.553L319.973 386.253L325.156 412.46Z" fill="#D8DEE8"/>
<path d="M406.401 411.452L371.166 413.668C370.109 413.735 369.075 412.895 368.857 411.794L362.964 381.995C362.746 380.893 363.428 379.956 364.488 379.903L399.806 378.11C400.838 378.058 401.849 378.896 402.064 379.982L407.875 409.368C408.09 410.455 407.43 411.388 406.401 411.452ZM372.29 409.564L403.755 407.631L398.714 382.144L367.192 383.789L372.29 409.564Z" fill="#D8DEE8"/>
<path d="M450.927 408.653L416.82 410.797C415.797 410.862 414.793 410.035 414.579 408.951L408.781 379.636C408.567 378.552 409.225 377.632 410.25 377.58L444.438 375.844C445.438 375.794 446.419 376.619 446.63 377.688L452.349 406.603C452.56 407.673 451.924 408.59 450.927 408.653ZM417.895 406.762L448.353 404.89L443.393 379.812L412.879 381.405L417.895 406.762Z" fill="#D8DEE8"/>
<path d="M271.354 215.412L232.653 215.128L231.002 206.782L269.725 207.175L271.354 215.412Z" fill="url(#paint8_linear_1_492)"/>
<path d="M320.194 215.771L282.789 215.496L281.166 207.292L318.593 207.672L320.194 215.771Z" fill="url(#paint9_linear_1_492)"/>
<path d="M367.424 216.117L331.25 215.852L329.654 207.784L365.849 208.152L367.424 216.117Z" fill="url(#paint10_linear_1_492)"/>
<path d="M413.122 216.452L378.119 216.195L376.549 208.261L411.572 208.616L413.122 216.452Z" fill="url(#paint11_linear_1_492)"/>
<path d="M457.36 216.777L423.472 216.528L421.928 208.722L455.835 209.066L457.36 216.777Z" fill="url(#paint12_linear_1_492)"/>
<path d="M500.208 217.091L467.383 216.85L465.864 209.168L498.707 209.501L500.208 217.091Z" fill="url(#paint13_linear_1_492)"/>
<path d="M541.73 217.396L509.919 217.162L508.424 209.6L540.252 209.924L541.73 217.396Z" fill="url(#paint14_linear_1_492)"/>
<path d="M538.244 199.769L228.759 195.44L225.639 179.664L535.45 185.645L538.244 199.769Z" fill="#D8DEE8"/>
<g opacity="0.3">
<path d="M455.666 307.7C386.361 269.791 320.685 299.26 273.398 250.634C249.147 225.697 241.372 192.037 239.97 162.272L209.487 161.501C204.068 161.364 200.518 165.587 201.576 170.935L252.5 428.416C253.558 433.764 258.742 437.802 264.062 437.437L550.448 417.758C518.99 353.403 484.231 323.326 455.666 307.7Z" fill="#D8DEE8"/>
</g>
<path d="M420.258 201.816C419.457 199.979 416.732 198.777 415.051 200.347C410.239 204.843 409.275 212.307 406.806 218.293C404.92 222.861 402.823 227.334 400.79 231.835C396.447 225.613 392.733 218.922 388.251 212.796C386.696 210.669 382.99 212.615 384.163 215.109C388.802 224.961 391.885 235.201 398.058 244.314C400.222 247.508 404.891 246.522 406.442 243.356C410.022 236.046 413.674 228.76 416.782 221.228C419.206 215.353 422.982 208.066 420.258 201.816Z" fill="url(#paint15_linear_1_492)"/>
<path d="M399.708 257.633L396.522 254.799C395.905 254.25 395.567 253.454 395.598 252.625C395.642 251.419 395.573 249.652 394.899 248.725C393.812 247.231 389.73 248.447 389.547 248.725C388.744 249.938 388.457 252.034 390.876 252.808C393.295 253.583 393.916 254.867 393.916 254.867L397.743 260.31L399.708 257.633Z" fill="url(#paint16_linear_1_492)"/>
<path d="M354.072 304.242L357.663 302.717C357.663 302.717 360.356 301.638 360.356 299.577C360.356 296.624 358.013 292.357 356.093 292.773C354.173 293.19 354.07 296.614 355.725 298.495C357.38 300.375 353.5 302.158 353.5 302.158L354.072 304.242Z" fill="url(#paint17_linear_1_492)"/>
<path d="M384.202 509.13C384.511 508.191 387.724 507.759 389.073 509.267C389.743 510.016 390.084 511.39 389.562 511.914C389.372 512.104 389.975 512.573 389.346 512.491C387.261 512.219 383.895 510.063 384.202 509.13Z" fill="url(#paint18_linear_1_492)"/>
<path d="M387.392 509.942H390.634C389.412 507.947 390.483 502.302 390.483 502.302L386.996 502.58C386.996 502.58 387.162 504.195 387.494 506.59C387.608 507.41 387.535 508.657 387.392 509.942Z" fill="url(#paint19_linear_1_492)"/>
<path d="M378.99 386.511C377.488 391.504 375.343 399.563 373.963 409.674C370.024 438.513 378.395 439.433 376.832 471.39C376.333 481.591 385.61 505.114 386.428 505.633C386.823 505.672 387.253 505.698 387.711 505.684C388.518 505.659 389.655 505.535 390.978 505.135C392.448 504.88 397.746 490.432 396.518 481.842C395.038 471.493 396.856 464.305 396.405 456.188C395.325 436.755 396.338 416.227 397.684 416.15C398.536 416.102 399.945 424.218 401.426 432.746C403.126 442.538 403.401 447.014 407.005 451.283C409.439 454.166 412.349 455.72 414.371 456.571C438.931 466.906 435.513 466.98 440.869 471.436C441.756 472.174 444.159 474.251 445.85 473.498C446.983 472.993 447.316 471.43 447.457 470.725C448.578 465.115 445.129 453.423 436.014 449.037C432.749 447.465 431.838 448.296 428.685 446.337C424.769 443.904 421.972 439.932 420.769 436.249C418.651 429.766 421.976 425.72 423.801 417.114C424.151 415.462 423.623 400.704 422.042 390.96C419.976 378.225 378.99 386.511 378.99 386.511Z" fill="url(#paint20_linear_1_492)"/>
<path d="M387.166 509.507C387.166 509.507 391.117 509.165 391.424 509.988C391.73 510.811 391.764 512.903 389.346 512.491C386.927 512.079 386.859 510.125 387.166 509.507Z" fill="url(#paint21_linear_1_492)"/>
<path d="M354.828 300.982C355.171 302.071 355.514 303.161 355.857 304.25C353.377 306.162 346.556 311.868 347.373 317.989C348.555 326.836 364.933 330.847 375.306 330.826C378.15 330.82 396.618 330.783 405.292 317.442C412.912 305.724 408.192 291.093 404.3 279.025C401.29 269.695 397.133 262.681 394.131 258.268C395.85 256.798 397.568 255.329 399.287 253.859C405.52 257.66 417.151 266.034 424.663 281.072C431.589 294.936 431.986 308.406 431.912 313.524C431.821 319.864 430.888 321.606 430.731 330.778C430.587 339.242 431.267 344.512 432.304 354.358C435.945 388.955 435.053 395.151 432.386 401.31C430.139 406.498 428.203 410.968 423.496 413.654C414.081 419.026 406.199 410.062 385.679 411.712C378.543 412.286 376.013 413.651 373.083 411.584C371.36 410.368 368.192 407.044 369.222 385.482C370.102 367.06 372.764 362.169 368.946 356.88C365.599 352.242 362.158 354.072 351.845 348.827C345.099 345.397 330.52 337.984 329.227 325.78C328.29 316.942 334.785 309.979 335.847 308.841C343.292 300.859 353.228 300.942 354.828 300.982Z" fill="url(#paint22_linear_1_492)"/>
<path d="M391.708 318.949C391.587 316.65 393.088 314.884 393.416 314.505C394.792 312.917 395.096 312.727 395.63 312.519L396.365 312.264C396.365 312.264 396.406 312.257 396.448 312.252C396.895 312.197 398.317 312.472 398.589 312.598C399.459 313.001 399.597 316.967 398.14 322.202C398.132 322.412 398.124 322.624 398.113 322.838C398.098 323.151 398.089 323.394 398.082 323.598C398.048 324.523 398.861 325.249 399.77 325.11C404.433 324.394 403.788 325.525 403.629 325.887C403.256 326.738 398.939 329.136 393.74 330.424C387.289 331.939 383.232 331.757 383.779 330.766C383.985 330.392 387.185 328.711 390.969 327.452C391.819 327.169 392.499 326.504 392.775 325.647C393.149 324.485 393.873 322.874 394.044 322.387C393.718 322.11 391.797 320.643 391.708 318.949Z" fill="url(#paint23_linear_1_492)"/>
<path d="M394.807 310.331C394.447 311.973 394.824 313.9 395.153 314.269C395.195 314.317 395.429 314.607 395.599 315.052C395.622 315.113 395.639 315.181 395.648 315.267C395.775 316.382 393.871 317.23 394.083 317.764C394.237 318.152 395.447 317.953 395.514 318.273C395.578 318.574 394.529 318.931 394.598 319.29C394.649 319.561 395.267 319.463 395.541 319.922C395.678 320.151 395.592 320.288 395.653 320.907C395.687 321.257 395.757 321.647 395.829 321.871C396.178 322.962 397.695 323.674 398.088 323.358C398.197 323.27 398.144 323.163 398.312 322.822C398.312 322.822 398.467 322.506 398.784 322.171C399.237 321.694 400.122 321.479 401.056 321.078C402.785 320.334 403.394 319.506 403.585 319.222C403.653 319.121 403.698 319.044 403.731 318.988C404.388 317.866 404.786 316.089 404.489 314.875C403.991 312.84 401.756 313.248 400.49 311.057C399.028 308.53 400.813 305.929 399.837 305.377C398.762 304.768 395.473 307.294 394.807 310.331Z" fill="#26264F"/>
<path d="M394.755 317.511C395.278 317.049 395.864 317.726 395.709 318.442C395.554 319.158 394.7 319.746 394.064 319.454C393.427 319.163 394.052 318.133 394.755 317.511Z" fill="url(#paint24_linear_1_492)"/>
<path d="M444.968 472.648L447.025 474.299L448.413 472.784L446.521 470.936C446.148 470.571 445.564 470.545 445.16 470.874L444.961 471.037C444.452 471.453 444.455 472.236 444.968 472.648Z" fill="url(#paint25_linear_1_492)"/>
<path d="M448.814 475.56C448.864 474.032 449.615 473.571 449.259 472.831C448.98 472.249 448.202 471.88 447.567 472.01C446.674 472.193 446.296 473.315 446.211 473.568C445.632 475.289 446.908 476.248 446.201 477.664C446.058 477.949 445.789 478.346 445.691 479C445.649 479.278 445.545 479.966 445.84 480.15C446.18 480.362 446.879 479.791 447.542 479.248C448.339 478.597 448.738 478.272 448.934 477.72C449.207 476.957 448.776 476.739 448.814 475.56Z" fill="url(#paint26_linear_1_492)"/>
<path opacity="0.3" d="M406.306 392.503C398.155 388.827 389.188 397.437 386.484 394.54C383.408 391.245 395.79 380.96 394.574 366.846C393.865 358.612 388.491 348.636 380.415 345.668C371.997 342.575 365.395 348.84 358.57 344.039C354.911 341.465 356.272 339.288 352.097 335.079C344.951 327.874 337.278 330.54 333.084 325.712C331.577 323.977 330.426 321.164 330.851 316.319C329.669 319.003 328.851 322.24 329.226 325.779C330.52 337.983 345.098 345.397 351.844 348.827C362.158 354.071 365.598 352.242 368.946 356.88C372.763 362.169 370.101 367.06 369.222 385.481C368.192 407.043 371.36 410.368 373.083 411.584C376.013 413.65 378.543 412.286 385.679 411.712C406.199 410.062 414.081 419.025 423.496 413.654C425.14 412.716 426.441 411.556 427.54 410.228C422.29 410.186 418.992 408.684 416.824 406.757C411.815 402.305 412.504 395.299 406.306 392.503Z" fill="url(#paint27_linear_1_492)"/>
<path d="M538.189 478.235C539.275 479.978 539.106 480.794 538.919 481.165C538.372 482.253 536.699 481.456 532.645 482.377C532.17 482.486 531.264 482.707 530.089 482.556C529.083 482.426 527.87 482.022 527.892 481.752C527.9 481.654 528.07 481.597 528.135 481.575C529.249 481.211 536.151 478.257 536.151 478.257L538.189 478.235Z" fill="url(#paint28_linear_1_492)"/>
<path d="M538.317 474.137L538.107 478.313C538.107 478.313 536.483 479.744 535.866 478.279C535.421 477.224 535.125 474.288 535.125 474.288L538.317 474.137Z" fill="url(#paint29_linear_1_492)"/>
<path d="M517.831 478.349L520.043 482.898L522.502 482.234L521.468 477.915L517.831 478.349Z" fill="url(#paint30_linear_1_492)"/>
<path d="M521.093 485.421C522.153 483.848 523.247 483.866 523.362 482.849C523.452 482.05 522.878 481.143 522.124 480.854C521.064 480.45 519.927 481.376 519.67 481.585C517.925 483.007 518.634 484.87 516.955 485.886C516.617 486.091 516.072 486.328 515.537 486.95C515.31 487.214 514.747 487.868 514.935 488.259C515.153 488.71 516.264 488.577 517.321 488.45C518.589 488.298 519.222 488.222 519.793 487.774C520.584 487.153 520.274 486.636 521.093 485.421Z" fill="url(#paint31_linear_1_492)"/>
<path d="M541.495 374.465C542.024 384.069 541.512 392.369 540.657 399.182C539.736 406.51 538.957 407.828 538.895 412.847C538.76 423.77 542.357 425.032 544.003 437.228C545.82 450.695 543.133 461.743 542.066 465.961C541.133 469.648 540.086 472.65 539.285 474.742C538.142 475.926 536.225 475.668 534.206 475.427C532.464 463.22 530.602 451.751 528.86 439.544C524.981 421.285 521.102 403.027 517.224 384.769C525.314 381.334 533.404 377.9 541.495 374.465Z" fill="url(#paint32_linear_1_492)"/>
<path opacity="0.3" d="M534.206 475.427C532.464 463.22 530.602 451.751 528.86 439.544C524.981 421.285 521.102 403.027 517.224 384.769C525.314 381.334 533.404 377.9 541.495 374.465C541.53 375.101 541.548 375.716 541.575 376.34C530.747 387.514 529.129 395.785 529.697 401.287C530.385 407.961 534.289 410.971 534.378 420.723C534.441 427.695 532.472 429.089 532.988 435.342C533.652 443.395 537.458 447.636 539.513 452.149C541.499 456.512 542.599 462.834 540.223 472.155C539.89 473.125 539.572 473.994 539.285 474.742C538.142 475.925 536.225 475.668 534.206 475.427Z" fill="url(#paint33_linear_1_492)"/>
<path d="M527.531 384.924C522.272 395.827 519.55 404.291 518.123 409.496C517.252 412.671 516.497 415.966 516.606 420.195C516.74 425.376 518.107 429.529 519.214 432.168C520.786 435.537 522.281 439.494 523.387 444.013C526.973 458.669 524.541 471.386 522.426 478.76C520.994 479.434 519.561 480.108 518.129 480.783C514.005 471.634 508.803 458.602 504.501 442.354C502.151 433.481 500.341 426.518 499.591 417.545C498.799 408.081 498.904 392.998 505.124 374.469C512.593 377.954 520.062 381.439 527.531 384.924Z" fill="url(#paint34_linear_1_492)"/>
<path d="M517.369 303.277C508.104 305.686 501.088 307.975 498.301 313.197C495.358 318.713 501.047 322.205 503.451 333.568C507.132 350.964 497.632 358.37 501.979 375.833C503.443 381.717 505.838 386.162 507.45 388.788C510.693 391.028 515.8 394.029 522.539 395.789C532.346 398.35 536.887 396.006 549.77 395.674C570.842 395.13 574.486 400.992 583.652 396.436C592.915 391.831 598.999 380.968 596.607 376.743C595.173 374.213 591.471 376.177 585.702 373.405C578.267 369.833 578.991 364.05 572.835 359.655C563.993 353.341 556.624 361.077 549.053 355.577C541.395 350.014 539.308 335.106 541.613 325.935C543.119 319.944 542.635 313.607 543.616 307.508C543.698 307.001 543.729 306.201 543.348 305.328C541.893 301.991 535.596 301.853 530.839 301.793C523.584 301.701 518.131 303.079 517.369 303.277Z" fill="url(#paint35_linear_1_492)"/>
<path opacity="0.3" d="M582.003 389.86C578.939 388.154 580.056 382.5 575.514 379.927C571.299 377.54 568.478 381.358 562.446 380.033C554.709 378.334 554.502 370.988 547.079 369.257C541.741 368.013 540.447 371.485 532.959 372.255C525.484 373.024 515.413 370.733 508.54 363.261C505.62 360.086 503.846 356.588 502.768 353.306C501.302 359.984 499.646 366.46 501.979 375.833C503.444 381.717 505.838 386.162 507.451 388.788C510.693 391.029 515.801 394.029 522.54 395.789C532.346 398.35 536.887 396.006 549.77 395.674C570.842 395.13 574.487 400.992 583.652 396.436C589.572 393.493 594.18 387.998 596.121 383.309C588.331 390.071 584.226 391.097 582.003 389.86Z" fill="url(#paint36_linear_1_492)"/>
<path d="M510.592 287.354C510.592 287.354 508.405 292.465 508.524 295.914C508.644 299.362 512.474 298.791 512.474 298.791L512.507 300.97C512.536 302.829 511.476 304.532 509.8 305.316L508.326 306.006C508.326 306.006 518.419 307.316 523.517 303.012L521.944 302.989C519.716 302.956 517.821 301.346 517.412 299.142L517.242 298.222C517.242 298.222 518.08 287.372 510.592 287.354Z" fill="url(#paint37_linear_1_492)"/>
<path d="M500.48 343.145L485.39 316.942C485.204 316.618 484.829 316.455 484.468 316.54L463.356 321.507C462.792 321.64 462.525 322.291 462.832 322.785L480.342 350.972C480.553 351.311 480.97 351.457 481.344 351.321L499.9 344.574L500.48 343.145Z" fill="url(#paint38_linear_1_492)"/>
<path d="M496.767 340.171L484.549 318.954C484.399 318.692 484.095 318.56 483.803 318.629L466.709 322.651C466.252 322.758 466.036 323.286 466.284 323.686L480.462 346.508C480.633 346.783 480.971 346.9 481.274 346.79L496.298 341.328L496.767 340.171Z" fill="url(#paint39_linear_1_492)"/>
<path d="M480.944 319.198L479.974 317.496C479.839 317.259 479.566 317.139 479.302 317.199L470.509 319.19C470.101 319.282 469.9 319.748 470.112 320.111L471.191 321.961C471.329 322.198 471.605 322.316 471.87 322.251L480.555 320.111C480.954 320.013 481.148 319.557 480.944 319.198Z" fill="url(#paint40_linear_1_492)"/>
<path d="M469.427 326.494C469.441 326.492 469.454 326.489 469.467 326.486L484.947 322.808C485.139 322.763 485.258 322.569 485.213 322.377C485.167 322.184 484.969 322.068 484.784 322.111L469.304 325.789C469.112 325.834 468.993 326.027 469.039 326.22C469.081 326.4 469.25 326.515 469.427 326.494Z" fill="url(#paint41_linear_1_492)"/>
<path d="M470.398 328.004C470.412 328.002 470.427 327.999 470.441 327.996L485.826 324.173C486.018 324.126 486.134 323.932 486.087 323.738C486.041 323.546 485.85 323.429 485.656 323.476L470.271 327.299C470.08 327.346 469.963 327.54 470.011 327.734C470.054 327.911 470.222 328.025 470.398 328.004Z" fill="url(#paint42_linear_1_492)"/>
<path d="M478.513 329.685C478.531 329.683 478.549 329.679 478.566 329.675L486.931 327.351C487.121 327.299 487.232 327.101 487.18 326.909C487.128 326.719 486.928 326.606 486.742 326.659L478.377 328.983C478.187 329.035 478.075 329.234 478.128 329.425C478.175 329.597 478.341 329.706 478.513 329.685Z" fill="url(#paint43_linear_1_492)"/>
<path d="M476.056 344.074C476.056 344.074 472.322 342.053 471.741 340.413C471.16 338.773 470.933 335.596 470.933 335.596L473.428 339.843C473.428 339.843 474.38 339.456 474.651 337.942C474.921 336.427 475.776 337.699 475.603 338.839C475.429 339.98 476.056 344.074 476.056 344.074Z" fill="url(#paint44_linear_1_492)"/>
<path d="M499.797 311.362C498.072 312.685 495.502 314.959 493.38 318.416C487.342 328.25 491.071 337.657 485.651 341.694C484.101 342.848 481.285 343.949 475.857 342.637L473.962 343.922C473.962 343.922 472.815 356.728 487.998 355.604C503.182 354.481 508.756 334.746 508.756 334.746L499.797 311.362Z" fill="url(#paint45_linear_1_492)"/>
<path d="M512.542 292.093C513.051 292.007 513.421 291.317 513.788 291.483C514.173 291.655 514.21 292.613 513.946 293.309C513.728 293.88 513.325 294.226 513.099 294.391C513.54 294.909 514.115 295.724 514.417 296.828C515.086 299.271 513.94 301.376 513.491 302.589C511.469 308.058 515.975 316.063 520.515 319.916C524.204 323.048 525.681 321.541 527.945 324.162C532.353 329.262 527.378 335.688 530.028 342.827C534.057 353.682 551.763 355.533 552.496 355.601C552.785 355.628 552.979 355.644 553.279 355.667C561.203 356.265 573.212 357.171 581.028 350.013C586.875 344.657 589.047 336.003 587.964 328.631C587.679 326.692 586.483 319.34 579.995 313.8C578.966 312.921 572.87 307.726 565.256 308.293C561.224 308.592 560.529 310.09 557.375 309.463C553.056 308.605 550.14 304.961 548.331 302.7C545.002 298.541 546.13 297.5 543.818 295.511C539.288 291.615 534.659 295.358 529.885 291.984C525.18 288.658 527.422 283.426 522.911 280.584C518.257 277.653 509.968 279.503 508.504 283.579C507.246 287.08 510.982 292.354 512.542 292.093Z" fill="url(#paint46_linear_1_492)"/>
<path d="M342.594 117.489L351.357 123.717C351.357 123.717 351.563 104.353 372.997 98.3599C394.433 92.3665 409.084 84.3522 405.303 67.6098L382.895 59.312C382.895 59.312 379.236 81.38 364.174 85.2576C338.797 91.7905 342.594 117.489 342.594 117.489Z" fill="url(#paint47_linear_1_492)"/>
<path d="M374.519 132.35C374 122.581 374.885 110.359 382.548 105.033C390.061 99.8106 398.399 105.174 410.529 102.512C418.468 100.771 428.978 95.3831 439.578 78.9812C445.659 91.3305 451.74 103.68 457.821 116.029C439.051 129.95 426.94 130.642 419.086 128.105C409.72 125.079 405.055 117.022 397.408 118.345C390.304 119.574 385.739 128.014 382.939 135.239C380.132 134.275 377.326 133.313 374.519 132.35Z" fill="url(#paint48_linear_1_492)"/>
<path d="M453.297 136.401L455.038 142.704C455.038 142.704 462.505 133.697 474.844 139.155C487.183 144.612 497.109 146.504 501.707 137.19L494.352 124.651C494.352 124.651 484.235 133.594 475.692 129.603C461.297 122.878 453.297 136.401 453.297 136.401Z" fill="url(#paint49_linear_1_492)"/>
<path d="M423.571 79.2082C421.143 73.8093 418.971 66.7143 422.132 62.0105C425.231 57.3986 431.11 58.5786 437.375 54.3894C441.475 51.6474 446.23 46.2781 448.627 34.672C454.759 40.2952 460.891 45.9184 467.022 51.5416C459.471 63.5575 452.786 66.6313 447.799 66.9391C441.851 67.3059 437.456 63.7919 433.429 66.2326C429.688 68.5001 428.956 74.275 428.955 78.9734C427.161 79.0517 425.366 79.13 423.571 79.2082Z" fill="url(#paint50_linear_1_492)"/>
<path d="M460.887 103.235C456.022 96.5949 463.976 80.7414 473.571 71.0202C491.264 53.0969 509.251 61.3773 525.41 45.898C531.606 39.9625 538.526 29.5823 540.444 10.1932C551.816 23.4202 563.188 36.6472 574.56 49.8742C570.216 76.8151 560.97 86.1289 553.234 89.6084C536.501 97.1338 520.015 80.4304 496.393 87.3404C483.559 91.0946 474.8 100.011 469.5 106.753C466.382 106.601 462.801 105.847 460.887 103.235Z" fill="url(#paint51_linear_1_492)"/>
<path d="M416.282 38.2528C421.009 34.9131 428.647 34.1729 430.836 37.5061C432.827 40.537 429.818 46.1826 426.58 49.1949C421.679 53.7544 413.047 55.261 410.58 51.9779C408.277 48.9129 411.379 41.7161 416.282 38.2528Z" fill="url(#paint52_linear_1_492)"/>
<path d="M516.542 103.489C521.759 105.984 526.163 112.31 524.361 115.87C522.723 119.107 516.361 119.255 512.161 117.903C505.805 115.857 500.248 109.039 501.87 105.26C503.384 101.732 511.133 100.902 516.542 103.489Z" fill="url(#paint53_linear_1_492)"/>
<path d="M353.17 130.074C356.998 127.37 363.182 126.771 364.955 129.47C366.567 131.924 364.131 136.495 361.509 138.935C357.54 142.626 350.55 143.846 348.553 141.188C346.689 138.706 349.2 132.879 353.17 130.074Z" fill="url(#paint54_linear_1_492)"/>
<path d="M312.531 116.235C312.49 109.264 316.811 101.112 321.392 101.142C325.557 101.17 328.901 107.957 329.612 113.216C330.689 121.175 326.436 130.837 321.72 131.118C317.318 131.38 312.573 123.464 312.531 116.235Z" fill="url(#paint55_linear_1_492)"/>
<path d="M349.143 59.8468C353.871 56.5072 361.508 55.7669 363.697 59.1001C365.688 62.131 362.679 67.7766 359.441 70.7888C354.54 75.3485 345.908 76.8549 343.441 73.5718C341.138 70.5068 344.24 63.31 349.143 59.8468Z" fill="url(#paint56_linear_1_492)"/>
<defs>
<linearGradient id="paint0_linear_1_492" x1="212.728" y1="47.8023" x2="143.911" y2="486.366" gradientUnits="userSpaceOnUse">
<stop stop-color="#AA80F9"/>
<stop offset="0.9964" stop-color="#6165D7"/>
</linearGradient>
<linearGradient id="paint1_linear_1_492" x1="212.728" y1="47.8023" x2="143.911" y2="486.366" gradientUnits="userSpaceOnUse">
<stop stop-color="#AA80F9"/>
<stop offset="0.9964" stop-color="#6165D7"/>
</linearGradient>
<linearGradient id="paint2_linear_1_492" x1="86.5376" y1="369.728" x2="159.668" y2="332.562" gradientUnits="userSpaceOnUse">
<stop stop-color="#FF9085"/>
<stop offset="1" stop-color="#FB6FBB"/>
</linearGradient>
<linearGradient id="paint3_linear_1_492" x1="164.704" y1="361.559" x2="-5.26061" y2="175.336" gradientUnits="userSpaceOnUse">
<stop offset="0.0036" stop-color="#E38DDD"/>
<stop offset="1" stop-color="#9571F6"/>
</linearGradient>
<linearGradient id="paint4_linear_1_492" x1="185.867" y1="296.774" x2="604.716" y2="296.774" gradientUnits="userSpaceOnUse">
<stop offset="0.0036" stop-color="#EBEFF2"/>
<stop offset="1" stop-color="white"/>
</linearGradient>
<linearGradient id="paint5_linear_1_492" x1="311.604" y1="184.785" x2="607.386" y2="660.946" gradientUnits="userSpaceOnUse">
<stop stop-color="#FF9085"/>
<stop offset="1" stop-color="#FB6FBB"/>
</linearGradient>
<linearGradient id="paint6_linear_1_492" x1="247.21" y1="226.532" x2="547.488" y2="709.931" gradientUnits="userSpaceOnUse">
<stop stop-color="#FF9085"/>
<stop offset="1" stop-color="#FB6FBB"/>
</linearGradient>
<linearGradient id="paint7_linear_1_492" x1="413.628" y1="464.561" x2="460.37" y2="119.973" gradientUnits="userSpaceOnUse">
<stop offset="0.0036" stop-color="#EBEFF2"/>
<stop offset="1" stop-color="white"/>
</linearGradient>
<linearGradient id="paint8_linear_1_492" x1="241.848" y1="179.146" x2="255.833" y2="368.998" gradientUnits="userSpaceOnUse">
<stop offset="0.0036" stop-color="#E38DDD"/>
<stop offset="1" stop-color="#9571F6"/>
</linearGradient>
<linearGradient id="paint9_linear_1_492" x1="290.511" y1="176.702" x2="304.196" y2="362.484" gradientUnits="userSpaceOnUse">
<stop offset="0.0036" stop-color="#E38DDD"/>
<stop offset="1" stop-color="#9571F6"/>
</linearGradient>
<linearGradient id="paint10_linear_1_492" x1="337.566" y1="174.366" x2="350.963" y2="356.242" gradientUnits="userSpaceOnUse">
<stop offset="0.0036" stop-color="#E38DDD"/>
<stop offset="1" stop-color="#9571F6"/>
</linearGradient>
<linearGradient id="paint11_linear_1_492" x1="383.092" y1="172.132" x2="396.212" y2="350.255" gradientUnits="userSpaceOnUse">
<stop offset="0.0036" stop-color="#E38DDD"/>
<stop offset="1" stop-color="#9571F6"/>
</linearGradient>
<linearGradient id="paint12_linear_1_492" x1="427.162" y1="169.993" x2="440.017" y2="344.508" gradientUnits="userSpaceOnUse">
<stop offset="0.0036" stop-color="#E38DDD"/>
<stop offset="1" stop-color="#9571F6"/>
</linearGradient>
<linearGradient id="paint13_linear_1_492" x1="469.844" y1="167.943" x2="482.444" y2="338.988" gradientUnits="userSpaceOnUse">
<stop offset="0.0036" stop-color="#E38DDD"/>
<stop offset="1" stop-color="#9571F6"/>
</linearGradient>
<linearGradient id="paint14_linear_1_492" x1="511.205" y1="165.978" x2="523.558" y2="333.683" gradientUnits="userSpaceOnUse">
<stop offset="0.0036" stop-color="#E38DDD"/>
<stop offset="1" stop-color="#9571F6"/>
</linearGradient>
<linearGradient id="paint15_linear_1_492" x1="383.197" y1="219.112" x2="418.8" y2="224.28" gradientUnits="userSpaceOnUse">
<stop stop-color="#FF9085"/>
<stop offset="1" stop-color="#FB6FBB"/>
</linearGradient>
<linearGradient id="paint16_linear_1_492" x1="351.184" y1="198.402" x2="528.461" y2="419.949" gradientUnits="userSpaceOnUse">
<stop stop-color="#893976"/>
<stop offset="1" stop-color="#311944"/>
</linearGradient>
<linearGradient id="paint17_linear_1_492" x1="327.705" y1="263.037" x2="441.998" y2="405.872" gradientUnits="userSpaceOnUse">
<stop stop-color="#893976"/>
<stop offset="1" stop-color="#311944"/>
</linearGradient>
<linearGradient id="paint18_linear_1_492" x1="382.876" y1="506.105" x2="389.078" y2="511.585" gradientUnits="userSpaceOnUse">
<stop stop-color="#444B8C"/>
<stop offset="0.9964" stop-color="#26264F"/>
</linearGradient>
<linearGradient id="paint19_linear_1_492" x1="388.815" y1="511.638" x2="388.815" y2="500.824" gradientUnits="userSpaceOnUse">
<stop stop-color="#FFC444"/>
<stop offset="0.9964" stop-color="#F36F56"/>
</linearGradient>
<linearGradient id="paint20_linear_1_492" x1="391.301" y1="517.343" x2="432.019" y2="354.045" gradientUnits="userSpaceOnUse">
<stop stop-color="#444B8C"/>
<stop offset="0.9964" stop-color="#26264F"/>
</linearGradient>
<linearGradient id="paint21_linear_1_492" x1="383.496" y1="505.404" x2="389.698" y2="510.884" gradientUnits="userSpaceOnUse">
<stop stop-color="#444B8C"/>
<stop offset="0.9964" stop-color="#26264F"/>
</linearGradient>
<linearGradient id="paint22_linear_1_492" x1="347.5" y1="415.082" x2="501.316" y2="166.885" gradientUnits="userSpaceOnUse">
<stop stop-color="#FFC444"/>
<stop offset="0.9964" stop-color="#F36F56"/>
</linearGradient>
<linearGradient id="paint23_linear_1_492" x1="393.246" y1="322.206" x2="395.448" y2="348.616" gradientUnits="userSpaceOnUse">
<stop stop-color="#893976"/>
<stop offset="1" stop-color="#311944"/>
</linearGradient>
<linearGradient id="paint24_linear_1_492" x1="392.453" y1="324.179" x2="382.121" y2="348.555" gradientUnits="userSpaceOnUse">
<stop stop-color="#893976"/>
<stop offset="1" stop-color="#311944"/>
</linearGradient>
<linearGradient id="paint25_linear_1_492" x1="450.591" y1="477.577" x2="426.817" y2="448.459" gradientUnits="userSpaceOnUse">
<stop stop-color="#FFC444"/>
<stop offset="0.9964" stop-color="#F36F56"/>
</linearGradient>
<linearGradient id="paint26_linear_1_492" x1="449.17" y1="480.573" x2="439.873" y2="457.912" gradientUnits="userSpaceOnUse">
<stop stop-color="#444B8C"/>
<stop offset="0.9964" stop-color="#26264F"/>
</linearGradient>
<linearGradient id="paint27_linear_1_492" x1="347.512" y1="415.089" x2="501.328" y2="166.891" gradientUnits="userSpaceOnUse">
<stop stop-color="#FFC444"/>
<stop offset="0.9964" stop-color="#F36F56"/>
</linearGradient>
<linearGradient id="paint28_linear_1_492" x1="531.334" y1="493.296" x2="536.723" y2="463.285" gradientUnits="userSpaceOnUse">
<stop stop-color="#444B8C"/>
<stop offset="0.9964" stop-color="#26264F"/>
</linearGradient>
<linearGradient id="paint29_linear_1_492" x1="538.196" y1="486.755" x2="532.641" y2="440.202" gradientUnits="userSpaceOnUse">
<stop stop-color="#FFC444"/>
<stop offset="0.9964" stop-color="#F36F56"/>
</linearGradient>
<linearGradient id="paint30_linear_1_492" x1="521.167" y1="488.786" x2="515.612" y2="442.233" gradientUnits="userSpaceOnUse">
<stop stop-color="#FFC444"/>
<stop offset="0.9964" stop-color="#F36F56"/>
</linearGradient>
<linearGradient id="paint31_linear_1_492" x1="518.159" y1="490.931" x2="523.547" y2="460.919" gradientUnits="userSpaceOnUse">
<stop stop-color="#444B8C"/>
<stop offset="0.9964" stop-color="#26264F"/>
</linearGradient>
<linearGradient id="paint32_linear_1_492" x1="530.367" y1="385.807" x2="546.146" y2="481.477" gradientUnits="userSpaceOnUse">
<stop stop-color="#311944"/>
<stop offset="1" stop-color="#893976"/>
</linearGradient>
<linearGradient id="paint33_linear_1_492" x1="530.366" y1="385.807" x2="546.146" y2="481.477" gradientUnits="userSpaceOnUse">
<stop stop-color="#311944"/>
<stop offset="1" stop-color="#893976"/>
</linearGradient>
<linearGradient id="paint34_linear_1_492" x1="470.435" y1="434.463" x2="547.913" y2="421.774" gradientUnits="userSpaceOnUse">
<stop stop-color="#311944"/>
<stop offset="1" stop-color="#893976"/>
</linearGradient>
<linearGradient id="paint35_linear_1_492" x1="588.105" y1="441.251" x2="518.231" y2="329.48" gradientUnits="userSpaceOnUse">
<stop stop-color="#FF9085"/>
<stop offset="1" stop-color="#FB6FBB"/>
</linearGradient>
<linearGradient id="paint36_linear_1_492" x1="489.482" y1="318.093" x2="557.333" y2="391.113" gradientUnits="userSpaceOnUse">
<stop stop-color="#FF9085"/>
<stop offset="1" stop-color="#FB6FBB"/>
</linearGradient>
<linearGradient id="paint37_linear_1_492" x1="509.116" y1="294.418" x2="521.084" y2="309.373" gradientUnits="userSpaceOnUse">
<stop stop-color="#FFC444"/>
<stop offset="0.9964" stop-color="#F36F56"/>
</linearGradient>
<linearGradient id="paint38_linear_1_492" x1="474.975" y1="323.96" x2="499.099" y2="354.104" gradientUnits="userSpaceOnUse">
<stop stop-color="#444B8C"/>
<stop offset="0.9964" stop-color="#26264F"/>
</linearGradient>
<linearGradient id="paint39_linear_1_492" x1="477.045" y1="324.583" x2="498.018" y2="355.458" gradientUnits="userSpaceOnUse">
<stop stop-color="#FFC444"/>
<stop offset="0.9964" stop-color="#F36F56"/>
</linearGradient>
<linearGradient id="paint40_linear_1_492" x1="476.778" y1="321.618" x2="470.768" y2="312.247" gradientUnits="userSpaceOnUse">
<stop stop-color="#AA80F9"/>
<stop offset="0.9964" stop-color="#6165D7"/>
</linearGradient>
<linearGradient id="paint41_linear_1_492" x1="485.325" y1="323.436" x2="468.923" y2="325.139" gradientUnits="userSpaceOnUse">
<stop stop-color="#444B8C"/>
<stop offset="0.9964" stop-color="#26264F"/>
</linearGradient>
<linearGradient id="paint42_linear_1_492" x1="486.209" y1="324.877" x2="469.886" y2="326.573" gradientUnits="userSpaceOnUse">
<stop stop-color="#444B8C"/>
<stop offset="0.9964" stop-color="#26264F"/>
</linearGradient>
<linearGradient id="paint43_linear_1_492" x1="487.265" y1="327.682" x2="478.042" y2="328.64" gradientUnits="userSpaceOnUse">
<stop stop-color="#444B8C"/>
<stop offset="0.9964" stop-color="#26264F"/>
</linearGradient>
<linearGradient id="paint44_linear_1_492" x1="472.248" y1="337.389" x2="478.036" y2="344.622" gradientUnits="userSpaceOnUse">
<stop stop-color="#FFC444"/>
<stop offset="0.9964" stop-color="#F36F56"/>
</linearGradient>
<linearGradient id="paint45_linear_1_492" x1="564.698" y1="455.882" x2="494.825" y2="344.113" gradientUnits="userSpaceOnUse">
<stop stop-color="#FF9085"/>
<stop offset="1" stop-color="#FB6FBB"/>
</linearGradient>
<linearGradient id="paint46_linear_1_492" x1="572.435" y1="355.765" x2="521.476" y2="274.25" gradientUnits="userSpaceOnUse">
<stop stop-color="#444B8C"/>
<stop offset="0.9964" stop-color="#26264F"/>
</linearGradient>
<linearGradient id="paint47_linear_1_492" x1="337.45" y1="100.766" x2="408.755" y2="78.8325" gradientUnits="userSpaceOnUse">
<stop stop-color="#FF9085"/>
<stop offset="1" stop-color="#FB6FBB"/>
</linearGradient>
<linearGradient id="paint48_linear_1_492" x1="418.912" y1="86.4732" x2="404.463" y2="260.466" gradientUnits="userSpaceOnUse">
<stop stop-color="#AA80F9"/>
<stop offset="0.9964" stop-color="#6165D7"/>
</linearGradient>
<linearGradient id="paint49_linear_1_492" x1="457.248" y1="126.571" x2="499.198" y2="143.432" gradientUnits="userSpaceOnUse">
<stop stop-color="#FF9085"/>
<stop offset="1" stop-color="#FB6FBB"/>
</linearGradient>
<linearGradient id="paint50_linear_1_492" x1="438.6" y1="43.4798" x2="468.962" y2="144.739" gradientUnits="userSpaceOnUse">
<stop offset="0.0036" stop-color="#E38DDD"/>
<stop offset="1" stop-color="#9571F6"/>
</linearGradient>
<linearGradient id="paint51_linear_1_492" x1="521.05" y1="24.0605" x2="496.764" y2="316.513" gradientUnits="userSpaceOnUse">
<stop stop-color="#FFC444"/>
<stop offset="0.9964" stop-color="#F36F56"/>
</linearGradient>
<linearGradient id="paint52_linear_1_492" x1="420.469" y1="38.215" x2="421.888" y2="90.2796" gradientUnits="userSpaceOnUse">
<stop stop-color="#FFC444"/>
<stop offset="0.9964" stop-color="#F36F56"/>
</linearGradient>
<linearGradient id="paint53_linear_1_492" x1="518.639" y1="107.138" x2="474.172" y2="133.763" gradientUnits="userSpaceOnUse">
<stop stop-color="#FFC444"/>
<stop offset="0.9964" stop-color="#F36F56"/>
</linearGradient>
<linearGradient id="paint54_linear_1_492" x1="356.56" y1="130.044" x2="357.709" y2="172.202" gradientUnits="userSpaceOnUse">
<stop stop-color="#FFC444"/>
<stop offset="0.9964" stop-color="#F36F56"/>
</linearGradient>
<linearGradient id="paint55_linear_1_492" x1="315.246" y1="112.012" x2="366.333" y2="143.609" gradientUnits="userSpaceOnUse">
<stop stop-color="#FFC444"/>
<stop offset="0.9964" stop-color="#F36F56"/>
</linearGradient>
<linearGradient id="paint56_linear_1_492" x1="353.33" y1="59.809" x2="354.749" y2="111.874" gradientUnits="userSpaceOnUse">
<stop stop-color="#FFC444"/>
<stop offset="0.9964" stop-color="#F36F56"/>
</linearGradient>
</defs>
</svg>
