<svg width="663" height="520" viewBox="0 0 663 520" fill="none" xmlns="http://www.w3.org/2000/svg">
<g clip-path="url(#clip0_6_30)">
<path d="M112.089 388.186C25.5506 362.776 -20.6298 281.897 8.94023 207.535C25.5815 165.687 20.1487 78.6914 178.356 96.6755C290.176 91.9972 296.235 68.8297 341.878 28.3859C387.521 -12.0591 476.916 -6.73004 571.602 49.5188C666.286 105.768 655.976 191.95 632.398 251.238L601.795 314.587L582.773 376.028C553.202 450.388 439.564 463.049 353.024 437.639L112.089 388.186Z" fill="#EDC5F0" fill-opacity="0.5"/>
<path d="M73.2129 20.0664C73.2129 24.1726 77.1731 27.5008 82.0606 27.5008C86.9467 27.5008 90.9069 24.1726 90.9069 20.0664C90.9069 15.9601 86.9453 12.632 82.0606 12.632C77.1745 12.632 73.2129 15.9601 73.2129 20.0664Z" fill="#EDC5F0" fill-opacity="0.5"/>
<path d="M49.9829 20.0664C49.9829 24.1726 53.9445 27.5008 58.8306 27.5008C63.7167 27.5008 67.6769 24.1726 67.6769 20.0664C67.6769 15.9601 63.7167 12.632 58.8306 12.632C53.9445 12.632 49.9829 15.9601 49.9829 20.0664Z" fill="#EDC5F0" fill-opacity="0.5"/>
<path d="M26.7534 20.0664C26.7534 24.1726 30.7137 27.5008 35.5997 27.5008C40.4858 27.5008 44.4461 24.1726 44.4461 20.0664C44.4461 15.9601 40.4858 12.632 35.5997 12.632C30.7137 12.632 26.7534 15.9601 26.7534 20.0664Z" fill="#EDC5F0" fill-opacity="0.5"/>
<path d="M73.2129 39.1718C73.2129 43.278 77.1731 46.6062 82.0606 46.6062C86.9467 46.6062 90.9069 43.278 90.9069 39.1718C90.9069 35.0655 86.9453 31.7362 82.0606 31.7362C77.1745 31.7362 73.2129 35.0655 73.2129 39.1718Z" fill="#EDC5F0" fill-opacity="0.5"/>
<path d="M49.9829 39.1718C49.9829 43.278 53.9445 46.6062 58.8306 46.6062C63.7167 46.6062 67.6769 43.278 67.6769 39.1718C67.6769 35.0655 63.7167 31.7362 58.8306 31.7362C53.9445 31.7362 49.9829 35.0655 49.9829 39.1718Z" fill="#EDC5F0" fill-opacity="0.5"/>
<path d="M26.7534 39.1718C26.7534 43.278 30.7137 46.6062 35.5997 46.6062C40.4858 46.6062 44.4461 43.278 44.4461 39.1718C44.4461 35.0655 40.4858 31.7362 35.5997 31.7362C30.7137 31.7362 26.7534 35.0655 26.7534 39.1718Z" fill="#EDC5F0" fill-opacity="0.5"/>
<path d="M73.2129 58.2772C73.2129 62.3834 77.1731 65.7116 82.0606 65.7116C86.9467 65.7116 90.9069 62.3834 90.9069 58.2772C90.9069 54.1709 86.9453 50.8428 82.0606 50.8428C77.1745 50.8416 73.2129 54.1709 73.2129 58.2772Z" fill="#EDC5F0" fill-opacity="0.5"/>
<path d="M49.9829 58.2772C49.9829 62.3834 53.9445 65.7116 58.8306 65.7116C63.7167 65.7116 67.6769 62.3834 67.6769 58.2772C67.6769 54.1709 63.7167 50.8428 58.8306 50.8428C53.9445 50.8416 49.9829 54.1709 49.9829 58.2772Z" fill="#EDC5F0" fill-opacity="0.5"/>
<path d="M26.7534 58.2772C26.7534 62.3834 30.7137 65.7116 35.5997 65.7116C40.4858 65.7116 44.4461 62.3834 44.4461 58.2772C44.4461 54.1709 40.4858 50.8428 35.5997 50.8428C30.7137 50.8416 26.7534 54.1709 26.7534 58.2772Z" fill="#EDC5F0" fill-opacity="0.5"/>
<path d="M73.2129 77.3828C73.2129 81.489 77.1731 84.8172 82.0606 84.8172C86.9467 84.8172 90.9069 81.489 90.9069 77.3828C90.9069 73.2765 86.9453 69.9484 82.0606 69.9484C77.1745 69.9472 73.2129 73.2765 73.2129 77.3828Z" fill="#EDC5F0" fill-opacity="0.5"/>
<path d="M49.9829 77.3828C49.9829 81.489 53.9445 84.8172 58.8306 84.8172C63.7167 84.8172 67.6769 81.489 67.6769 77.3828C67.6769 73.2765 63.7167 69.9484 58.8306 69.9484C53.9445 69.9472 49.9829 73.2765 49.9829 77.3828Z" fill="#EDC5F0" fill-opacity="0.5"/>
<path d="M26.7534 77.3828C26.7534 81.489 30.7137 84.8172 35.5997 84.8172C40.4858 84.8172 44.4461 81.489 44.4461 77.3828C44.4461 73.2765 40.4858 69.9484 35.5997 69.9484C30.7137 69.9472 26.7534 73.2765 26.7534 77.3828Z" fill="#EDC5F0" fill-opacity="0.5"/>
<path d="M668.957 354.984C672.444 347.971 668.505 339.91 660.16 336.98C651.814 334.05 642.223 337.36 638.736 344.373C635.249 351.387 639.188 359.448 647.533 362.378C655.879 365.308 665.471 361.998 668.957 354.984Z" fill="#EDC5F0" fill-opacity="0.5"/>
<path d="M665.907 328.785C670.429 328.785 674.095 325.705 674.095 321.904C674.095 318.104 670.429 315.023 665.907 315.023C661.385 315.023 657.719 318.104 657.719 321.904C657.719 325.705 661.385 328.785 665.907 328.785Z" fill="#EDC5F0" fill-opacity="0.5"/>
<path d="M299.882 455.156C299.882 455.156 307.716 444.961 323.12 443.445C323.12 443.445 299.14 434.932 287.15 455.183L299.882 455.156Z" fill="#A3A0CE"/>
<path d="M271.902 455.156C271.902 455.156 263.749 433.178 235.453 425.28C235.453 425.28 252.242 437.108 255.359 455.156H271.902Z" fill="#A3A0CE"/>
<path d="M292.642 455.151C292.642 455.151 304.197 432.283 290.13 393.16C290.13 393.16 269.786 420.976 264.762 455.182L292.642 455.151Z" fill="#A3A0CE"/>
<path d="M297.108 455.156C296.322 447.011 300.352 438.714 305.956 430.37C294.103 436.936 284.987 444.96 279.951 455.156H297.108Z" fill="#A3A0CE"/>
<path d="M276.273 455.156C276.392 441.209 265.791 418.829 256.298 407.607L259.326 455.156H276.273Z" fill="#A3A0CE"/>
<path d="M287.784 454.103L286.516 453.584C290.475 447.011 297.958 443.94 298.275 443.813L298.898 444.86C298.825 444.888 291.525 447.895 287.784 454.103Z" fill="#D9E6F8"/>
<path d="M276.338 453.875L274.927 453.814C275.55 443.927 269.95 432.241 269.892 432.125L271.207 431.694C271.444 432.178 276.98 443.727 276.338 453.875Z" fill="#D9E6F8"/>
<path d="M280.629 454.007L279.27 453.682C282.924 443.289 295.953 435.904 296.506 435.594L297.302 436.56C297.169 436.632 284.136 444.022 280.629 454.007Z" fill="#D9E6F8"/>
<path d="M258.873 437.064L257.461 437.124L258.526 453.861L259.938 453.8L258.873 437.064Z" fill="#D9E6F8"/>
<path d="M258.568 495.821H297.172L300.709 455.885H255.029L258.568 495.821Z" fill="#CFCDEA"/>
<path d="M252.023 465.03H303.718V452.919H252.023V465.03Z" fill="#CFCDEA"/>
<path d="M299.626 464.447H255.84V465.613H299.626V464.447Z" fill="#A4C4EA"/>
<path d="M621.115 455.156C621.115 455.156 628.949 444.961 644.353 443.445C644.353 443.445 620.374 434.932 608.383 455.183L621.115 455.156Z" fill="#ADAAE5"/>
<path d="M593.137 455.156C593.137 455.156 584.983 433.178 556.688 425.28C556.688 425.28 573.477 437.108 576.594 455.156H593.137Z" fill="#ADAAE5"/>
<path d="M613.875 455.151C613.875 455.151 625.43 432.283 611.364 393.16C611.364 393.16 591.019 420.976 585.995 455.182L613.875 455.151Z" fill="#ADAAE5"/>
<path d="M618.341 455.156C617.555 447.011 621.585 438.714 627.189 430.37C615.336 436.936 606.22 444.96 601.184 455.156H618.341Z" fill="#ADAAE5"/>
<path d="M597.506 455.156C597.624 441.209 587.024 418.829 577.531 407.607L580.56 455.156H597.506Z" fill="#ADAAE5"/>
<path d="M609.017 454.103L607.749 453.584C611.709 447.011 619.191 443.94 619.508 443.813L620.131 444.86C620.058 444.888 612.759 447.895 609.017 454.103Z" fill="#D9E6F8"/>
<path d="M597.571 453.875L596.16 453.814C596.783 443.927 591.183 432.241 591.125 432.125L592.44 431.694C592.678 432.178 598.213 443.727 597.571 453.875Z" fill="#D9E6F8"/>
<path d="M601.862 454.007L600.503 453.682C604.157 443.289 617.186 435.904 617.739 435.594L618.535 436.56C618.404 436.632 605.371 444.022 601.862 454.007Z" fill="#D9E6F8"/>
<path d="M580.094 437.068L578.682 437.129L579.747 453.865L581.159 453.804L580.094 437.068Z" fill="#D9E6F8"/>
<path d="M579.802 495.821H618.405L621.943 455.885H576.264C577.646 471.481 578.42 480.225 579.802 495.821Z" fill="#CFCDEA"/>
<path d="M573.257 465.03H624.951V452.919H573.257V465.03Z" fill="#CFCDEA"/>
<path d="M620.86 464.447H577.074V465.613H620.86V464.447Z" fill="#A4C4EA"/>
<path d="M218.791 373.255L205.921 497.081H212.356L234.688 373.255H218.791Z" fill="#CFCDEA"/>
<path d="M234.688 372.878H218.791V373.632H234.688V372.878Z" fill="#CFCDEA"/>
<path d="M379.394 373.255L392.262 497.081H385.829L363.497 373.255H379.394Z" fill="#CFCDEA"/>
<path d="M379.395 372.878H363.497V373.632H379.395V372.878Z" fill="#CFCDEA"/>
<path d="M416.671 387.515H189.646V158.372H416.671V387.515Z" fill="#CFCDEA"/>
<path d="M202.915 377.853H403.402L403.402 168.035L202.915 168.035L202.915 377.853Z" fill="#9C99CA" fill-opacity="0.87"/>
<path d="M319.854 320.566C350.17 314.793 369.06 289.884 362.047 264.93C355.033 239.977 324.772 224.427 294.456 230.2C264.14 235.973 245.249 260.882 252.263 285.836C259.276 310.79 289.538 326.339 319.854 320.566Z" fill="#D9E6F8"/>
<path opacity="0.6" d="M307.156 275.361L325.838 319.114C319.991 320.806 313.706 321.735 307.156 321.735C276.698 321.735 251.901 301.838 250.865 276.975L307.156 275.361Z" fill="#A4C4EA"/>
<path d="M251.213 280.786C250.96 279.005 250.816 277.198 250.816 275.362C250.816 271.176 251.501 267.123 252.765 263.265L307.157 275.362L251.213 280.786Z" fill="#D9E6F8"/>
<path d="M242.821 274.145C243.301 256.642 254.082 241.241 270.381 231.883L307.155 275.361L242.821 274.145Z" fill="#F0F3F9"/>
<path opacity="0.2" d="M325.79 319.127L307.156 275.362L358.933 293.66C352.735 305.525 340.694 314.828 325.79 319.127Z" fill="#A4C4EA"/>
<path d="M321.215 230.442C345.529 235.583 363.497 253.744 363.497 275.361C363.497 281.997 361.791 288.303 358.741 294.01L307.158 275.361L321.215 230.442Z" fill="#C8DAF3"/>
<path d="M85.3355 173.781L85.8159 178.829L104.212 177.643L103.731 172.595L85.3355 173.781Z" fill="#EA513B"/>
<path d="M70.1966 160.606L64.8945 158.604L57.5968 171.697L62.8989 173.699L70.1966 160.606Z" fill="#F1A23A"/>
<path d="M573.682 123.268L570.913 120.989L562.608 127.826L565.376 130.104L573.682 123.268Z" fill="#EA513B"/>
<path d="M598.523 292.911L595.754 290.632L587.449 297.468L590.218 299.747L598.523 292.911Z" fill="#EA513B"/>
<path d="M38.4112 364.831L37.1553 369.521L54.2463 372.622L55.5023 367.933L38.4112 364.831Z" fill="#306FF3"/>
<path d="M82.5041 316.53L77.6733 313.838L67.8625 325.767L72.6933 328.459L82.5041 316.53Z" fill="#2E62AD"/>
<path d="M526.429 328.273L522.811 330.574L531.196 339.51L534.815 337.209L526.429 328.273Z" fill="#2E62AD"/>
<path d="M133.82 97.884L130.429 99.4955L136.302 107.869L139.693 106.257L133.82 97.884Z" fill="#2E62AD"/>
<path d="M48.4735 248.152L50.6572 250.827L60.4059 245.436L58.2222 242.761L48.4735 248.152Z" fill="#2E62AD"/>
<path d="M192.084 108.513L193.52 111.511L204.447 107.965L203.011 104.967L192.084 108.513Z" fill="#F1A23A"/>
<path d="M43.348 412.234L44.7842 415.232L55.7109 411.686L54.2747 408.688L43.348 412.234Z" fill="#F1A23A"/>
<path d="M612.181 399.646L601.254 403.192L602.69 406.19L613.617 402.644L612.181 399.646Z" fill="#306FF3"/>
<path d="M553.939 271.789L543.013 275.335L544.449 278.333L555.376 274.787L553.939 271.789Z" fill="#306FF3"/>
<path d="M584.64 243.363L583.089 246.323L593.873 250.153L595.425 247.194L584.64 243.363Z" fill="#F1A23A"/>
<path d="M579.092 340.171L582.483 338.559L576.61 330.187L573.219 331.798L579.092 340.171Z" fill="#F1A23A"/>
<path d="M460.9 124.011L448.841 132.505L452.281 135.814L464.34 127.321L460.9 124.011Z" fill="#306FF3"/>
<path d="M578.796 390.465C578.645 389.717 578.313 388.975 577.833 388.254C575.421 384.626 569.199 381.547 562.673 381.056C559.606 380.826 556.353 381.5 553.454 382.881C553.451 382.882 553.449 382.885 553.449 382.885C553.314 382.51 553.204 382.134 553.132 381.761C552.706 379.65 553.011 377.999 554.031 376.859C555.265 375.476 557.284 375.157 557.53 375.123C557.544 375.122 557.553 375.122 557.553 375.122L557.247 373.175L556.95 371.112C556.522 371.154 552.693 371.602 550.138 374.397C548.259 376.458 547.636 379.156 548.288 382.417C548.495 383.442 548.869 384.47 549.397 385.484C548.968 385.848 548.56 386.229 548.177 386.629C543.751 391.221 542.844 397.544 545.622 404.437C548.935 412.652 546.415 419.098 542.673 421.614C540.007 423.404 536.559 423.449 532.959 421.742L530.511 425.24C531.458 425.69 532.406 426.055 533.356 426.335C537.824 427.659 542.231 427.12 545.774 424.741C551.991 420.568 551.162 410.876 547.644 402.144C544.773 395.028 547.476 389.488 552.015 389.144C554.178 391.491 557.115 393.575 560.512 395.076C565.603 397.325 570.702 397.808 574.5 396.402C577.704 395.218 579.31 392.998 578.796 390.465ZM571.265 393.039C568.966 393.423 565.926 392.887 562.833 391.522C559.913 390.234 557.429 388.449 555.689 386.483C557.966 385.357 560.373 384.936 562.229 385.075C568.639 385.558 573.535 389.04 573.96 391.131C574.023 391.448 574.155 392.107 572.493 392.722C572.163 392.843 571.81 392.94 571.438 393.01C571.326 393.03 571.265 393.039 571.265 393.039Z" fill="#EA513B"/>
<path d="M571.436 393.01C571.809 392.94 572.16 392.843 572.491 392.722C574.155 392.107 574.023 391.448 573.958 391.131C573.534 389.04 568.638 385.559 562.228 385.076C560.373 384.936 557.966 385.357 555.688 386.483C555.688 386.483 553.89 384.753 553.449 382.885C553.449 382.885 553.45 382.883 553.454 382.881C556.353 381.5 559.606 380.825 562.673 381.056C569.2 381.547 575.421 384.627 577.833 388.254C578.023 391.665 572.492 392.821 571.436 393.01Z" fill="#CC4642"/>
<path d="M260.922 152.179C260.935 151.421 260.772 150.643 260.457 149.862C258.874 145.938 253.422 141.99 247.107 140.546C244.14 139.867 240.792 140.052 237.641 140.982C237.637 140.983 237.635 140.985 237.635 140.985C237.583 140.596 237.558 140.211 237.568 139.833C237.608 137.694 238.267 136.115 239.519 135.143C241.034 133.963 243.089 133.948 243.339 133.951C243.353 133.952 243.362 133.953 243.362 133.953L243.485 131.994L243.641 129.921C243.211 129.899 239.346 129.775 236.225 132.148C233.928 133.898 232.727 136.461 232.66 139.767C232.641 140.804 232.787 141.872 233.085 142.948C232.583 143.242 232.099 143.556 231.634 143.894C226.281 147.76 224.012 153.847 225.246 161.038C226.718 169.607 222.837 175.579 218.608 177.501C215.596 178.87 212.193 178.406 209.023 176.196L205.853 179.277C206.687 179.86 207.541 180.357 208.414 180.774C212.522 182.735 216.974 182.854 220.977 181.036C228.002 177.846 229.296 168.19 227.733 159.079C226.457 151.656 230.32 146.605 234.863 146.934C236.481 149.562 238.916 152.046 241.932 154.023C246.45 156.985 251.363 158.213 255.406 157.389C258.815 156.695 260.878 154.748 260.922 152.179ZM252.952 153.602C250.607 153.64 247.733 152.665 244.987 150.866C242.396 149.168 240.339 147.047 239.055 144.855C241.54 144.085 243.999 144.024 245.794 144.435C251.996 145.855 256.055 150.002 256.017 152.122C256.011 152.443 255.998 153.11 254.228 153.47C253.877 153.541 253.509 153.584 253.128 153.598C253.015 153.603 252.952 153.602 252.952 153.602Z" fill="#306FF3"/>
<path d="M253.129 153.599C253.51 153.585 253.878 153.541 254.229 153.471C255.999 153.111 256.013 152.443 256.018 152.123C256.056 150.002 251.995 145.856 245.795 144.436C244 144.025 241.541 144.086 239.056 144.856C239.056 144.856 237.662 142.89 237.636 140.986C237.636 140.986 237.637 140.984 237.642 140.983C240.793 140.053 244.141 139.867 247.108 140.547C253.422 141.991 258.874 145.939 260.458 149.863C259.901 153.246 254.209 153.568 253.129 153.599Z" fill="#A4C4EA"/>
<path d="M612.149 156.346L604.357 177.023C603.857 177.579 602.778 178.947 602.111 180.292L610.729 156.66C611.209 156.573 611.682 156.47 612.149 156.346Z" fill="#1E202E"/>
<path d="M606.597 162.545C606.637 162.483 606.789 162.245 607.003 161.892C606.773 162.242 606.633 162.483 606.597 162.545Z" fill="#F2B055"/>
<path d="M609.654 147.689C607.045 148.703 602.485 144.951 602.202 144.716C602.475 144.985 607.118 149.609 606.543 151.788C605.95 154.032 601.567 155.803 601.567 155.803C601.567 155.803 607.268 153.577 608.907 155.305C610.034 156.495 607.945 160.315 607.008 161.88C608.408 159.736 613.48 153.656 615.552 161.717C615.552 161.717 613.519 152.46 624.55 158.41C624.09 158.162 618.806 154.658 619.763 152.691C620.662 150.843 626.19 151.26 627.639 151.318C626.14 151.237 619.547 150.784 618.497 149.033C617.331 147.086 620.597 141.254 620.698 141.071C620.566 141.225 615.726 146.887 614.006 146.537C612.441 146.221 612.155 141.311 612.112 140.298C612.125 141.362 612.078 146.747 609.654 147.689ZM614.754 148.13C615.998 148.461 617.016 149.169 617.62 150.122C618.239 151.099 618.352 152.213 617.938 153.262C617.098 155.398 614.302 156.573 611.706 155.882C610.464 155.551 609.448 154.845 608.843 153.891C608.223 152.914 608.111 151.799 608.522 150.752C609.362 148.615 612.159 147.438 614.754 148.13Z" fill="#F1A23A"/>
<path d="M609.655 151.053C609.016 152.678 610.098 154.422 612.073 154.949C614.048 155.475 616.167 154.584 616.806 152.958C617.446 151.333 616.363 149.588 614.388 149.062C612.413 148.536 610.294 149.427 609.655 151.053Z" fill="#F1A23A"/>
<path d="M570.709 495.225C570.709 501.389 511.837 506.385 439.216 506.385C366.594 506.385 307.722 501.388 307.722 495.225C307.722 489.061 366.593 484.064 439.216 484.064C511.838 484.064 570.709 489.061 570.709 495.225Z" fill="#EDC5F0"/>
<path d="M484.135 258.439C497.888 258.439 509.037 238.828 509.037 214.637C509.037 190.446 497.888 170.836 484.135 170.836C470.382 170.836 459.233 190.446 459.233 214.637C459.233 238.828 470.382 258.439 484.135 258.439Z" fill="#1C1318"/>
<path d="M375.88 238.75L362.686 229.559C362.686 229.559 360.932 223.699 356.83 220.967C352.727 218.236 349.139 217.336 348.522 217.647C347.906 217.957 353.894 223.563 353.894 223.563C353.894 223.563 349.372 223.747 346.444 222.42C343.517 221.093 337.424 217.295 335.971 218.169C334.518 219.045 334.611 226.426 342.396 231.499C342.396 231.499 340.421 231.821 338.322 230.887C336.224 229.953 334.876 229.022 334.272 229.723C333.668 230.424 337.231 233.51 339.274 234.177C341.317 234.844 343.767 235.173 343.767 235.173C343.767 235.173 348.271 238.129 355.796 238.029L364.398 248.758L375.88 238.75Z" fill="#B0514E"/>
<path d="M346.977 226.084C346.977 226.084 340.071 223.268 336.077 219.247" stroke="#1C1318" stroke-width="0.4" stroke-miterlimit="10"/>
<path d="M344.881 228.771C344.881 228.771 339.864 225.481 336.521 222.881" stroke="#1C1318" stroke-width="0.4" stroke-miterlimit="10"/>
<path d="M348.043 224.8C348.043 224.8 345.053 228.117 343.971 231.041" stroke="#1C1318" stroke-width="0.4" stroke-miterlimit="10"/>
<path d="M358.963 232.204C358.963 232.204 352.667 228.902 346.007 230.757" stroke="#1C1318" stroke-width="0.4" stroke-miterlimit="10"/>
<path d="M370.073 234.705L375.88 238.75L364.402 248.757L358.978 241.991L370.073 234.705Z" fill="#E992EC"/>
<path d="M423.02 222.868L399.168 251.684L373.009 235.063L357.451 251.354C357.451 251.354 381.666 273.751 389.214 280.649C396.762 287.549 413.09 288.164 423.17 275.665C432.539 264.046 446.9 244.227 446.9 244.227L446.023 210.022L443.608 210.595C435.219 212.588 427.937 216.927 423.02 222.868Z" fill="#5B2B82"/>
<path d="M399.168 251.683L411.526 258.806" stroke="#1C1318" stroke-width="0.4" stroke-miterlimit="10"/>
<path d="M592.579 192.24L595.848 187.165C595.848 187.165 603.835 183.757 606.551 182.127C609.266 180.497 610.664 174.966 610.664 174.966C610.664 174.966 611.827 169.917 610.964 169.706C610.101 169.495 608.639 173.466 608.639 173.466L605.35 176.861L605.014 170.552C605.014 170.552 604.422 165.429 603.752 165.317C602.409 165.093 601.737 165.611 601.737 165.611C601.737 165.611 600.721 165.323 599.877 165.832C598.297 165.776 598.136 166.136 597.472 166.849C596.808 167.563 595.188 173.016 595.188 173.016L592.167 176.709C592.167 176.709 585.146 178.91 585.187 182.269L582.059 187.044L592.579 192.24Z" fill="#B0514E"/>
<path d="M601.994 176.705C601.994 176.705 603.101 171.875 601.94 166.24" stroke="#1C1318" stroke-width="0.4" stroke-miterlimit="10"/>
<path d="M598.353 174.503C598.353 174.503 600.122 169.659 599.81 166.551" stroke="#1C1318" stroke-width="0.4" stroke-miterlimit="10"/>
<path d="M582.494 186.047L594.463 188.847L592.489 192.13L581.255 188.069L582.494 186.047Z" fill="#1C1318"/>
<path d="M480.193 234.841L475.873 230.251L503.48 217.015L552.92 218.865L579.11 185.109L596.671 192.695C596.671 192.695 583.063 227.861 573.729 237.282C563.879 247.224 518.99 244.718 497.856 242.925C490.871 242.334 484.494 239.411 480.193 234.841Z" fill="#5B2B82"/>
<path d="M545.456 228.486L552.92 218.865" stroke="#1C1318" stroke-width="0.4" stroke-miterlimit="10"/>
<path d="M451.905 169.422C452.96 166.665 456.961 165.245 460.843 166.25C461.911 166.528 462.844 166.97 463.635 167.509C465.597 165.417 468.998 164.44 472.239 165.28C473.865 165.701 475.202 166.52 476.157 167.56C478.169 165.884 481.218 165.168 484.135 165.924C485.942 166.392 487.399 167.347 488.361 168.557C489.644 168.211 491.06 168.168 492.446 168.527C495.971 169.44 497.93 172.533 496.82 175.435C496.184 177.098 494.667 178.314 492.833 178.898L487.543 186.826L463.02 181.579L458.595 176.505C458.073 176.455 457.547 176.371 457.023 176.235C453.143 175.23 450.851 172.179 451.905 169.422Z" fill="#1C1318"/>
<path d="M436.935 231.294L425.544 272.073L441.452 257.159L436.935 231.294Z" fill="#471F68"/>
<path d="M475.231 459.969L475.666 471.415C475.81 475.199 473.224 478.694 469.073 480.326L457.18 485.001C453.831 486.318 451.099 488.502 449.403 491.218C448.325 492.945 449.829 495 452.186 495.012C465.384 495.085 499.441 495.249 499.116 494.982C498.79 494.714 495.566 483.466 494.346 479.182C494.039 478.103 493.978 476.988 494.162 475.89L496.836 459.969H475.231Z" fill="#B0514E"/>
<path d="M376.753 459.969L374.117 471.415C373.245 475.199 369.721 478.694 365.135 480.326L351.987 485.001C348.285 486.318 344.967 488.502 342.542 491.218C341.143 492.787 342.487 495.003 344.852 495.015C358.397 495.09 391.496 495.246 391.246 494.982C390.992 494.714 390.785 483.466 390.714 479.182C390.696 478.103 390.934 476.988 391.413 475.89L398.357 459.969H376.753Z" fill="#B0514E"/>
<path d="M425.448 295.62L370.165 465.271H403.979L465.502 318.148L469.73 465.271H500.861L509.683 299.237L455.104 278.293L425.448 295.62Z" fill="#1C1318"/>
<path opacity="0.2" d="M423.442 301.777L508.476 321.961L509.682 299.237L455.104 278.293L425.448 295.62L423.442 301.777Z" fill="#4F454D"/>
<path d="M460.874 292.859L395.659 465.271" stroke="#4F454D" stroke-width="0.4" stroke-miterlimit="10"/>
<path d="M457.085 292.262L455.171 287.211L452.717 292.722C450.975 296.635 446.45 299.237 441.387 299.237H421.322L433.801 256.41L433.95 222.647C433.979 216.015 440.039 210.452 448.046 209.708L466.054 208.032H486.738L498.167 210.114C505.341 211.422 509.77 217.364 507.931 223.22L495.694 262.209C495.694 262.209 506.161 286.646 509.682 299.237H468.604C463.324 299.237 458.658 296.412 457.085 292.262Z" fill="#5B2B82"/>
<path d="M492.005 236.473L497.419 256.713L501.807 242.733L492.005 236.473Z" fill="#471F68"/>
<path d="M501.807 299.237L493.883 465.271" stroke="#4F454D" stroke-width="0.4" stroke-miterlimit="10"/>
<path d="M509.682 299.237H491.736L500.799 274.577C503.98 282.513 507.811 292.547 509.682 299.237Z" fill="#3E1B5B"/>
<path d="M452.798 257.783L448.725 264.11C447.656 265.771 447.452 267.718 448.16 269.505L454.63 285.844" stroke="#1C1318" stroke-width="0.4" stroke-miterlimit="10"/>
<path d="M453.359 266.185C453.359 267.069 454.229 267.787 455.305 267.787C456.379 267.787 457.25 267.07 457.25 266.185C457.25 265.3 456.38 264.583 455.305 264.583C454.231 264.583 453.359 265.3 453.359 266.185Z" stroke="white" stroke-width="0.4" stroke-miterlimit="10"/>
<path d="M449.403 491.218C451.099 488.502 453.831 486.318 457.18 485.001L469.073 480.326C470.741 479.671 472.139 478.705 473.226 477.551H478.947C482.453 477.551 485.295 479.889 485.295 482.775V483.496L490.125 477.551H494.07C494.101 478.1 494.192 478.646 494.346 479.183C495.566 483.467 498.79 494.715 499.116 494.983C499.441 495.25 465.385 495.086 452.186 495.013C449.829 495 448.325 492.945 449.403 491.218Z" fill="#1C1318"/>
<path d="M344.851 495.015C342.485 495.003 341.141 492.788 342.541 491.218C344.966 488.502 348.284 486.318 351.986 485.001L365.133 480.326C366.977 479.671 368.635 478.705 370.031 477.551H375.752C379.258 477.551 381.473 479.889 380.698 482.775L380.505 483.496L386.931 477.551H390.876C390.759 478.1 390.705 478.646 390.714 479.183C390.783 483.467 390.992 494.715 391.246 494.983C391.495 495.246 358.395 495.09 344.851 495.015Z" fill="#1C1318"/>
<path d="M485.094 183.568C485.094 183.568 481.001 180.587 481.336 176.61C481.336 176.61 474.962 177.382 472.882 174.401C470.064 176.388 466.106 176.168 463.824 174.953C462.146 176.168 460.873 176.223 460.873 176.223V184.562C460.873 184.562 457.652 188.593 459.195 192.072C460.737 195.551 464.696 196.766 464.696 196.766L463.421 205.823H485.092L484.488 187.268L485.094 183.568Z" fill="#B0514E"/>
<path d="M474.39 181.007C475.272 181.007 475.987 181.595 475.987 182.321C475.987 182.456 475.939 182.577 475.895 182.699L474.73 182.456L475.544 183.222C475.253 183.475 474.846 183.636 474.39 183.636C473.508 183.636 472.792 183.047 472.792 182.321C472.792 181.595 473.508 181.007 474.39 181.007Z" fill="#1C1318"/>
<path d="M464.457 181.007C465.339 181.007 466.054 181.595 466.054 182.321C466.054 182.456 466.006 182.577 465.962 182.699L464.797 182.456L465.611 183.222C465.32 183.475 464.914 183.636 464.457 183.636C463.575 183.636 462.86 183.047 462.86 182.321C462.86 181.595 463.575 181.007 464.457 181.007Z" fill="#1C1318"/>
<path d="M468.287 181.111V182.722C468.287 183.341 468.077 183.946 467.681 184.471L466.993 185.382C466.686 185.79 466.987 186.323 467.563 186.394L469.528 186.632" stroke="#1C1318" stroke-width="0.4" stroke-miterlimit="10"/>
<path d="M476.824 178.75C476.824 178.75 474.041 177.839 471.936 178.75" stroke="#1C1318" stroke-width="0.4" stroke-miterlimit="10"/>
<path d="M467.372 178.75C467.372 178.75 464.589 177.839 462.484 178.75" stroke="#1C1318" stroke-width="0.4" stroke-miterlimit="10"/>
<path d="M466.056 187.863H472.793C472.793 187.863 471.794 193.081 469.529 192.958C467.264 192.832 466.056 187.863 466.056 187.863Z" fill="#1C1318"/>
<path d="M469.965 190.112C470.7 190.112 471.411 190.158 472.095 190.236C471.566 191.596 470.726 193.022 469.529 192.956C468.397 192.893 467.528 191.619 466.943 190.361C467.888 190.204 468.903 190.112 469.965 190.112Z" fill="#9D3934"/>
<path d="M466.056 197.139C470.133 198.216 477.278 197.388 480.298 193.868" stroke="#1C1318" stroke-width="0.4" stroke-miterlimit="10"/>
<path d="M485.645 202.952H462.563C461.537 202.952 460.671 203.577 460.536 204.414L459.665 209.8L455.103 254.201L488.196 210.104L487.684 204.51C487.604 203.631 486.715 202.952 485.645 202.952Z" fill="white"/>
<path d="M486.034 209.69C486.034 209.69 471.542 211.844 461.377 209.69" stroke="#1C1318" stroke-width="0.4" stroke-miterlimit="10"/>
<path d="M456.312 210.169L450.073 214.163C448.676 215.058 448.114 216.577 448.666 217.96L452.027 226.368L445.28 231.074C443.995 231.97 443.489 233.413 443.993 234.735L452.795 257.783L483.233 238.52C484.849 237.497 485.335 235.664 484.384 234.18L480.294 227.803L493.327 219.934C495.331 218.725 495.62 216.351 493.948 214.838L489.318 210.646" stroke="#1C1318" stroke-width="0.4" stroke-miterlimit="10"/>
<path d="M459.579 210.647L458.778 249.306L455.104 254.201L459.579 210.647Z" fill="#3E1B5B"/>
<path d="M488.197 190.471C491.337 190.471 493.883 188.376 493.883 185.791C493.883 183.206 491.337 181.111 488.197 181.111C485.057 181.111 482.511 183.206 482.511 185.791C482.511 188.376 485.057 190.471 488.197 190.471Z" fill="#B0514E"/>
<path d="M491.132 184.396C489.32 182.463 483.965 184.762 483.953 186.826" stroke="#1C1318" stroke-width="0.4" stroke-miterlimit="10"/>
<path d="M489.656 186.385L487.542 183.894" stroke="#1C1318" stroke-width="0.4" stroke-miterlimit="10"/>
<path d="M492.506 144.884C490.616 145.82 490.006 147.84 491.143 149.396C492.28 150.952 494.735 151.454 496.625 150.518C498.516 149.582 499.126 147.562 497.989 146.006C496.851 144.45 494.397 143.948 492.506 144.884Z" fill="white"/>
<path d="M494.497 150.651C494.353 149.676 492.926 149.247 492.053 149.917L490.845 150.844L488.721 152.473L488.718 152.474L484.431 155.761L482.321 157.378L477.972 160.713L475.875 162.322L469.535 167.181C469.535 167.181 480.123 167.683 489.359 172.144C492.91 173.857 496.261 176.153 498.736 179.232L498.624 178.474L497.022 167.651L497.021 167.649L496.444 163.756C496.443 163.754 496.443 163.754 496.443 163.754L495.306 156.082L494.841 152.958L494.497 150.651Z" fill="#EA513B"/>
<path d="M477.972 160.714L475.875 162.323C481.411 165.37 485.894 168.89 489.358 172.145C492.91 173.858 496.261 176.154 498.736 179.233L498.624 178.475C495.352 174.181 488.628 166.681 477.972 160.714Z" fill="white"/>
<path d="M484.431 155.761L482.321 157.378C488.385 160.482 493.267 164.194 497.021 167.649L496.445 163.756C496.443 163.754 496.443 163.754 496.443 163.754C493.129 161.012 489.139 158.225 484.431 155.761Z" fill="white"/>
<path d="M490.845 150.844L488.721 152.473C491.08 153.596 493.276 154.812 495.305 156.082L494.84 152.958C493.566 152.23 492.236 151.521 490.845 150.844Z" fill="white"/>
<path d="M353.851 231.227L340.912 229.398L342.614 210.466L359.913 212.909L353.851 231.227Z" fill="white"/>
<path d="M360.52 213.663L341.735 211.01L342.641 209.231L360.386 211.737L360.52 213.663Z" fill="#EA513B"/>
<path d="M136.804 509.905C185 509.905 224.07 504.72 224.07 498.323C224.07 491.927 185 486.742 136.804 486.742C88.609 486.742 49.5391 491.927 49.5391 498.323C49.5391 504.72 88.609 509.905 136.804 509.905Z" fill="#EDC5F0"/>
<path d="M138.479 170.902C127.681 172.218 119.254 176.933 115.079 184.663C112.98 188.553 112.588 192.533 107.592 194.977C102.596 197.422 101.81 200.95 102.207 202.938C102.604 204.928 101.555 207.913 98.3989 209.542L171.665 209.491C171.665 209.491 167.582 205.244 168.368 201.626C169.154 198.008 171.651 195.565 169.805 191.858C167.959 188.152 165.465 186.487 169.006 183.358C174.134 178.835 166.098 167.538 138.479 170.902Z" fill="#1C1318"/>
<path d="M147.018 178.739C147.019 180.237 145.488 188.769 137.087 192.119L136.461 196.904L130.805 212.358L144.049 220.361L152.235 212.458L152.227 205.483C157.69 205.883 162.24 203.28 162.585 198.438C162.93 193.596 162.646 189.393 164.324 186.797C164.324 186.797 155.78 186.687 147.018 178.739Z" fill="#F0956D"/>
<path d="M142.407 196.299C142.407 197.668 143.755 198.777 145.418 198.777C147.081 198.777 148.429 197.668 148.429 196.299C148.429 194.93 147.081 193.821 145.418 193.821C143.755 193.821 142.407 194.93 142.407 196.299Z" fill="#E25E59"/>
<path d="M151.334 205.368C151.334 205.368 145.451 205.328 141.612 201.181" stroke="#1C1318" stroke-width="0.4" stroke-miterlimit="10"/>
<path d="M131.267 193.321C132.736 196.059 136.007 197.523 138.572 196.59C141.136 195.658 142.026 192.683 140.558 189.946C139.09 187.208 135.82 185.744 133.254 186.677C130.689 187.609 129.799 190.584 131.267 193.321Z" fill="#F0956D"/>
<path d="M138.978 193.443C138.978 193.443 138.028 189.294 133.668 188.475" stroke="#1C1318" stroke-width="0.4" stroke-miterlimit="10"/>
<path d="M135.248 191.889L135.909 189.32" stroke="#1C1318" stroke-width="0.4" stroke-miterlimit="10"/>
<path d="M131.645 196.042C131.646 196.966 132.556 197.713 133.678 197.712C134.8 197.711 135.708 196.963 135.707 196.039C135.706 195.115 134.796 194.368 133.674 194.369C132.553 194.371 131.645 195.12 131.645 196.042Z" stroke="white" stroke-width="0.4" stroke-miterlimit="10"/>
<path d="M158.498 193.02L157.821 192.213C158.158 191.924 158.637 191.754 159.155 191.822C159.996 191.932 160.569 192.581 160.435 193.274C160.301 193.965 159.513 194.437 158.671 194.327C157.831 194.217 157.258 193.568 157.391 192.875C157.402 192.824 157.438 192.785 157.455 192.736L158.498 193.02Z" fill="#121F32"/>
<path d="M148.988 191.777L148.31 190.97C148.648 190.681 149.127 190.511 149.645 190.579C150.485 190.689 151.058 191.338 150.924 192.031C150.791 192.722 150.002 193.195 149.161 193.084C148.32 192.974 147.747 192.325 147.881 191.632C147.891 191.581 147.927 191.542 147.944 191.493L148.988 191.777Z" fill="#121F32"/>
<path d="M155.015 192.769C155.015 192.769 154.981 194.124 155.018 195.248C155.053 196.372 153.444 196.978 151.692 196.028" stroke="#1C1318" stroke-width="0.4" stroke-miterlimit="10"/>
<path d="M154.496 198.218C152.956 198.593 149.139 198.769 146.721 196.033" stroke="#1C1318" stroke-width="0.4" stroke-miterlimit="10"/>
<path d="M147.866 195.484L146.09 196.378" stroke="#1C1318" stroke-width="0.4" stroke-miterlimit="10"/>
<path d="M152.559 188.102C152.559 188.102 148.741 187.067 146.082 187.847" stroke="#7B2A27" stroke-width="0.9712" stroke-miterlimit="10" stroke-linecap="round" stroke-linejoin="round"/>
<path d="M161.351 189.623C161.351 189.623 158.898 188.444 156.237 189.166" stroke="#7B2A27" stroke-width="0.9712" stroke-miterlimit="10" stroke-linecap="round" stroke-linejoin="round"/>
<path d="M149.404 456.817L149.424 476.027C149.425 477.396 149.147 478.751 148.584 480.039C147.17 483.266 144.507 490.523 144.826 498.785L198.612 498.748C198.612 498.748 195.465 492.885 181.22 489.288C178.688 488.648 176.365 487.545 174.349 486.131L169.102 482.455C166.199 480.422 164.83 477.273 165.503 474.186L169.295 456.802L149.404 456.817Z" fill="#F0956D"/>
<path d="M147.354 483.169L160.396 488.283L170.011 483.095L174.346 486.132C176.363 487.545 178.685 488.649 181.217 489.289C195.463 492.886 198.609 498.749 198.609 498.749L144.824 498.786C144.585 492.591 146.024 486.96 147.354 483.169Z" fill="#1C1318"/>
<path d="M105.984 456.847L101.317 478.4C101.084 479.475 101.064 480.576 101.258 481.656L104.345 498.814L63.1655 498.842C63.1655 498.842 63.7202 493.769 65.6799 492.384C67.6395 490.999 73.238 487.536 73.238 487.536L81.6428 480.35C83.5355 478.732 84.6713 476.614 84.8482 474.373L86.233 456.861L105.984 456.847Z" fill="#F0956D"/>
<path d="M81.3253 480.623C90.5437 481.004 95.5787 486.513 95.5787 486.513L101.66 483.886L104.346 498.814L63.1665 498.842C63.1665 498.842 63.7212 493.769 65.6808 492.384C67.6405 490.999 73.239 487.536 73.239 487.536L81.3253 480.623Z" fill="#1C1318"/>
<path d="M169.899 228.01L152.235 212.457L130.805 212.357L118.845 228.045L129.016 280.046L168.902 280.018L169.899 228.01Z" fill="#8683B2"/>
<path d="M156.175 229.69L143.907 221.283L129.354 233.053" stroke="white" stroke-width="0.4" stroke-miterlimit="10"/>
<path d="M143.911 225.26L151.774 275.06" stroke="white" stroke-width="0.4" stroke-miterlimit="10"/>
<path d="M108.21 306.507L75.1714 459.29L112.989 459.264L151.822 322.271L140.304 460.974L178.541 460.948L189.156 299.937L171.738 280.284L116.869 281.475L108.21 306.507Z" fill="#EA513B"/>
<path d="M108.21 306.507L116.869 281.475L171.739 280.284L189.156 299.937L188.892 303.944C176.988 304.147 137.775 305.623 106.142 316.073L108.21 306.507Z" fill="#D83B2B"/>
<path d="M151.822 322.271L155.857 309.1L153.008 283.418" stroke="#1C1318" stroke-width="0.4" stroke-miterlimit="10"/>
<path d="M168.094 311.711L132.094 311.736" stroke="#1C1318" stroke-width="0.4" stroke-miterlimit="10"/>
<path d="M157.628 283.415L155.567 306.475" stroke="#1C1318" stroke-width="0.4" stroke-miterlimit="10"/>
<path d="M176.689 293.317L166.775 460.956" stroke="#1C1318" stroke-width="0.4" stroke-miterlimit="10"/>
<path d="M129.029 293.35L92.3984 459.278" stroke="#1C1318" stroke-width="0.4" stroke-miterlimit="10"/>
<path opacity="0.2" d="M120.178 284.924L172.758 284.888L172.751 277.986L120.171 278.022L120.178 284.924Z" fill="#4F454D"/>
<path d="M130.805 212.357L143.685 277.358C144.242 280.17 143.976 283.051 142.908 285.76L137.811 298.698C136.956 300.869 133.889 301.839 131.487 300.7L106.302 288.753L117.214 275.083L102.759 233.138C100.716 227.208 104.456 220.966 111.417 218.691L130.805 212.357Z" fill="white"/>
<path d="M122.745 275.714L136.061 284.912" stroke="#1C1318" stroke-width="0.4" stroke-miterlimit="10"/>
<path d="M128.907 214.754L127.694 216.286C123.906 221.071 123.646 227.188 127.017 232.18L129.358 235.646L126.746 242.014C125.602 244.802 125.869 247.85 127.486 250.473L141.689 273.511" stroke="#1C1318" stroke-width="0.4" stroke-miterlimit="10"/>
<path opacity="0.2" d="M117.212 275.084L134.076 301.15C133.212 301.219 132.311 301.093 131.487 300.701L106.302 288.754L117.212 275.084Z" fill="#4F454D"/>
<path opacity="0.2" d="M116.829 242.861L115.063 268.846L108.647 250.228L116.829 242.861Z" fill="#4F454D"/>
<path d="M129.424 299.723L112.224 302.879L122.764 293.354L129.424 299.723Z" fill="#F0956D"/>
<path d="M152.235 212.458L162.527 295.803C162.818 298.161 165.231 299.954 168.111 299.952L193.504 299.934C193.504 299.934 183.399 279.853 175.194 268.805L175.397 262.765L187.332 273.112C192.04 277.194 199.713 277.735 205.195 274.371C210.893 270.874 212.324 264.339 208.464 259.425L182.682 226.6C179.766 222.888 175.511 220.018 170.514 218.395L152.235 212.458Z" fill="white"/>
<path d="M153.602 213.753C156.547 217.383 164.431 222.825 158.35 234.156C164.663 243.317 165.936 255.675 161.33 270.813" stroke="#1C1318" stroke-width="0.4" stroke-miterlimit="10"/>
<path d="M188.288 267.138L185.974 250.134" stroke="#1C1318" stroke-width="0.4" stroke-miterlimit="10"/>
<path d="M119.209 241.591L100.887 268.236L122.763 293.354L108.209 306.507L77.7259 283.223C71.0559 278.128 69.3388 269.995 73.5311 263.348L93.8985 231.042C97.2922 225.66 102.929 221.466 109.775 219.229L117.193 216.805L119.209 241.591Z" fill="white"/>
<path d="M195.562 254.42L182.623 252.592L184.325 233.659L201.625 236.102L195.562 254.42Z" fill="#306FF3"/>
<path d="M202.231 236.856L183.448 234.203L184.354 232.424L202.097 234.931L202.231 236.856Z" fill="#EA513B"/>
<path d="M100.888 268.236L95.9097 262.821" stroke="#1C1318" stroke-width="0.4" stroke-miterlimit="10"/>
<path d="M202.744 244.458C202.66 244.128 199.957 241.434 197.487 240.009C196.049 239.179 194.415 238.453 193.301 237.991C192.519 237.666 191.572 237.806 190.97 238.33L188.965 240.068C188.352 240.6 188.242 241.402 188.697 242.033L193.346 248.486C193.346 248.486 186.463 245.464 185.99 245.724C185.71 245.878 188.338 248.3 190.52 250.244C192.339 251.864 195.259 252.308 197.622 251.268C200.499 250.002 203.605 247.819 202.744 244.458Z" fill="#F0956D"/>
<path d="M198.646 243.813L190.591 238.657" stroke="#1C1318" stroke-width="0.4" stroke-miterlimit="10"/>
<path d="M195.76 246.755L189.095 240.089" stroke="#1C1318" stroke-width="0.4" stroke-miterlimit="10"/>
<path d="M144.907 142.937C143.318 144.459 143.641 146.682 145.63 147.898C147.618 149.116 150.518 148.868 152.108 147.345C153.697 145.822 153.374 143.6 151.385 142.383C149.396 141.165 146.496 141.414 144.907 142.937Z" fill="#F1A23A"/>
<path d="M149.869 148.131C149.238 147.194 147.486 147.201 146.867 148.143L146.01 149.447L144.505 151.74L144.503 151.742L141.465 156.367L139.969 158.644L136.889 163.337L135.403 165.6L130.91 172.438C130.91 172.438 142.609 169.694 154.772 171.349C159.449 171.984 164.192 173.267 168.367 175.606L167.877 174.878L160.874 164.473L160.871 164.472L158.353 160.729C158.351 160.728 158.351 160.728 158.351 160.728L153.385 153.352L151.36 150.35L149.869 148.131Z" fill="#EA513B"/>
<path d="M136.89 163.337L135.404 165.6C142.877 166.968 149.44 169.135 154.773 171.349C159.449 171.984 164.192 173.267 168.368 175.606L167.878 174.878C162.25 171.56 151.324 166.073 136.89 163.337Z" fill="white"/>
<path d="M141.466 156.367L139.97 158.644C148.041 159.908 155.13 162.145 160.872 164.472L158.354 160.729C158.351 160.728 158.351 160.728 158.351 160.728C153.431 158.984 147.758 157.402 141.466 156.367Z" fill="white"/>
<path d="M146.011 149.447L144.506 151.74C147.605 152.146 150.572 152.697 153.386 153.352L151.36 150.35C149.631 150.007 147.845 149.702 146.011 149.447Z" fill="white"/>
<path d="M373.817 179.14C392.641 179.14 407.902 169.702 407.902 158.059C407.902 146.417 392.641 136.978 373.817 136.978C354.992 136.978 339.731 146.417 339.731 158.059C339.731 169.702 354.992 179.14 373.817 179.14Z" fill="#77489E"/>
<path d="M384.114 173.742L385.424 191.223L362.899 173.742H384.114Z" fill="#77489E"/>
<path d="M386.601 148.026H361.034" stroke="white" stroke-width="0.9712" stroke-miterlimit="10"/>
<path d="M386.601 153.635H361.034" stroke="white" stroke-width="0.9712" stroke-miterlimit="10"/>
<path d="M386.601 159.244H361.034" stroke="white" stroke-width="0.9712" stroke-miterlimit="10"/>
<path d="M386.601 164.852H361.034" stroke="white" stroke-width="0.9712" stroke-miterlimit="10"/>
<path d="M276.349 60.7308L274.197 41.8299L272.045 22.9279L293.007 30.8443L313.969 38.7608L295.16 49.7453L276.349 60.7308Z" fill="white"/>
<path d="M357.557 87.5795L353.223 68.9333L348.891 50.2882L370.674 56.522L392.458 62.7557L375.007 75.1681L357.557 87.5795Z" fill="white"/>
<path d="M439.148 105.418L431.159 87.6086L423.17 69.8007L445.901 73.0101L468.633 76.2195L453.89 90.818L439.148 105.418Z" fill="white"/>
<path d="M531.516 116.279L522.629 98.7615L513.741 81.2438L536.615 83.667L559.491 86.0912L545.503 101.185L531.516 116.279Z" fill="white"/>
<path d="M232.661 0C232.661 0 364.09 92.6796 644.353 85.7241" stroke="#D9E6F8" stroke-width="2" stroke-miterlimit="10"/>
<path d="M143.781 70.4361C142.643 70.4361 141.711 69.6696 141.711 68.7326V63.5971C141.711 62.66 142.643 61.8936 143.781 61.8936C144.919 61.8936 145.851 62.66 145.851 63.5971V68.7326C145.849 69.6696 144.919 70.4361 143.781 70.4361Z" fill="#1C1318"/>
<path d="M143.823 86.1962C137.761 86.1962 132.874 82.1714 132.874 77.2241C132.874 74.8779 133.968 72.6596 135.955 70.9748L136.106 70.85C136.664 70.3944 137.6 69.63 137.618 68.0711C137.641 67.3618 137.618 66.0566 137.618 66.0556C137.618 64.6079 139.044 63.4327 140.798 63.4327L146.761 63.4316C148.514 63.4316 149.941 64.6058 149.941 66.0504C149.941 66.0556 149.917 67.3608 149.941 68.0648C149.96 69.6259 150.892 70.3903 151.449 70.8468L151.603 70.9748C153.59 72.6564 154.684 74.8758 154.684 77.222C154.684 82.1516 149.812 86.1775 143.823 86.1962C143.824 86.1962 143.825 86.1962 143.823 86.1962Z" fill="#F1A23A"/>
<path d="M143.81 75.506L143.564 75.3521C141.82 74.2632 139.949 73.7671 137.973 73.8774L137.183 73.921L141.965 68.7346L142.539 69.0923L138.687 73.27C140.463 73.3002 142.164 73.79 143.754 74.7291C145.128 73.7141 146.851 73.2336 148.856 73.2471L145.026 69.0913L145.599 68.7335L150.4 73.9398L149.582 73.8753C147.291 73.6974 145.477 74.1686 144.034 75.3271L143.81 75.506Z" fill="#1C1318"/>
<path d="M144.14 69.0581H143.419V75.1151H144.14V69.0581Z" fill="#1C1318"/>
<path d="M149.526 59.3174H138.037L77.4556 68.3935H210.112L149.526 59.3174Z" fill="#1C1318"/>
<path d="M144.26 0H143.3V57.357H144.26V0Z" fill="#1C1318"/>
<path d="M149.338 59.3174V55.3363C149.338 52.8195 146.838 50.7614 143.781 50.7614C140.725 50.7614 138.225 52.8206 138.225 55.3363V59.3174H149.338Z" fill="#1B44C1"/>
<path d="M328.479 70.4361C327.34 70.4361 326.409 69.6696 326.409 68.7326V63.5971C326.409 62.66 327.34 61.8936 328.479 61.8936C329.617 61.8936 330.548 62.66 330.548 63.5971V68.7326C330.547 69.6696 329.617 70.4361 328.479 70.4361Z" fill="#1C1318"/>
<path d="M328.521 86.1962C322.458 86.1962 317.571 82.1714 317.571 77.2241C317.571 74.8779 318.665 72.6596 320.653 70.9748L320.805 70.85C321.363 70.3944 322.298 69.63 322.317 68.0711C322.34 67.3618 322.317 66.0556 322.317 66.0556C322.317 64.6079 323.743 63.4327 325.497 63.4327L331.46 63.4316C333.213 63.4316 334.64 64.6058 334.64 66.0504C334.64 66.0556 334.616 67.3608 334.64 68.0648C334.659 69.6259 335.591 70.3903 336.148 70.8468L336.302 70.9748C338.289 72.6564 339.383 74.8758 339.383 77.222C339.383 82.1516 334.512 86.1775 328.523 86.1962H328.521Z" fill="#F1A23A"/>
<path d="M328.508 75.506L328.261 75.3521C326.518 74.2632 324.647 73.7671 322.671 73.8774L321.881 73.921L326.663 68.7346L327.237 69.0923L323.384 73.27C325.161 73.3002 326.862 73.79 328.452 74.7291C329.826 73.7141 331.549 73.2336 333.554 73.2471L329.723 69.0913L330.297 68.7335L335.098 73.9398L334.279 73.8753C331.989 73.6974 330.174 74.1686 328.731 75.3271L328.508 75.506Z" fill="#1C1318"/>
<path d="M328.838 69.0581H328.118V75.1151H328.838V69.0581Z" fill="#1C1318"/>
<path d="M334.224 59.3174H322.735L262.153 68.3935H394.809L334.224 59.3174Z" fill="#1C1318"/>
<path d="M328.958 0H327.998V57.357H328.958V0Z" fill="#1C1318"/>
<path d="M334.036 59.3174V55.3363C334.036 52.8195 331.536 50.7614 328.479 50.7614C325.423 50.7614 322.922 52.8206 322.922 55.3363V59.3174H334.036Z" fill="#1B44C1"/>
<path d="M513.177 70.4361C512.039 70.4361 511.107 69.6696 511.107 68.7326V63.5971C511.107 62.66 512.039 61.8936 513.177 61.8936C514.315 61.8936 515.247 62.66 515.247 63.5971V68.7326C515.245 69.6696 514.315 70.4361 513.177 70.4361Z" fill="#1C1318"/>
<path d="M513.219 86.1962C507.157 86.1962 502.27 82.1714 502.27 77.2241C502.27 74.8779 503.364 72.6596 505.351 70.9748L505.503 70.85C506.061 70.3944 506.996 69.63 507.015 68.0711C507.038 67.3618 507.015 66.0556 507.015 66.0556C507.015 64.6079 508.442 63.4327 510.195 63.4327L516.158 63.4316C517.912 63.4316 519.338 64.6058 519.338 66.0504C519.338 66.0556 519.315 67.3608 519.338 68.0648C519.357 69.6259 520.289 70.3903 520.847 70.8468L521.001 70.9748C522.987 72.6564 524.081 74.8758 524.081 77.222C524.081 82.1516 519.21 86.1775 513.221 86.1962H513.219Z" fill="#F1A23A"/>
<path d="M513.207 75.506L512.96 75.3521C511.217 74.2632 509.345 73.7671 507.369 73.8774L506.58 73.921L511.362 68.7346L511.936 69.0923L508.083 73.27C509.86 73.3002 511.56 73.79 513.151 74.7291C514.524 73.7141 516.248 73.2336 518.253 73.2471L514.422 69.0913L514.996 68.7335L519.797 73.9398L518.978 73.8753C516.687 73.6974 514.873 74.1686 513.429 75.3271L513.207 75.506Z" fill="#1C1318"/>
<path d="M513.536 69.0581H512.816V75.1151H513.536V69.0581Z" fill="#1C1318"/>
<path d="M518.922 59.3174H507.433L446.852 68.3935H579.508L518.922 59.3174Z" fill="#1C1318"/>
<path d="M513.656 0H512.696V57.357H513.656V0Z" fill="#1C1318"/>
<path d="M518.734 59.3174V55.3363C518.734 52.8195 516.234 50.7614 513.177 50.7614C510.121 50.7614 507.621 52.8206 507.621 55.3363V59.3174H518.734Z" fill="#1B44C1"/>
<path d="M251.2 205.824C240.124 206.956 239.009 207.872 237.634 216.991C236.26 207.873 235.147 206.956 224.068 205.824C235.145 204.693 236.26 203.777 237.634 194.658C239.009 203.776 240.124 204.693 251.2 205.824Z" fill="#306FF3"/>
<path d="M341.793 349.951C331.427 351.009 330.384 351.867 329.099 360.399C327.812 351.867 326.77 351.008 316.404 349.951C326.77 348.892 327.814 348.034 329.099 339.502C330.385 348.034 331.427 348.892 341.793 349.951Z" fill="#306FF3"/>
</g>
<defs>
<clipPath id="clip0_6_30">
<rect width="663" height="520" fill="white"/>
</clipPath>
</defs>
</svg>
