<svg width="643" height="526" viewBox="0 0 643 526" fill="none" xmlns="http://www.w3.org/2000/svg">
<path d="M318.928 482.939C464.575 482.939 582.645 386.353 582.645 267.208C582.645 148.063 464.575 51.4764 318.928 51.4764C173.281 51.4764 55.2104 148.063 55.2104 267.208C55.2104 386.353 173.281 482.939 318.928 482.939Z" fill="#E3E3F7"/>
<path d="M410.407 138.353C410.407 140.152 408.59 141.61 406.35 141.61H262.576C260.334 141.61 258.519 140.152 258.519 138.353V55.7034C258.519 53.9042 260.335 52.4469 262.576 52.4469H406.349C408.59 52.4469 410.406 53.9053 410.406 55.7034L410.407 138.353Z" fill="#CECEF4"/>
<path d="M397.663 65.1223C395.199 65.1223 393.195 63.5131 393.195 61.5349C393.195 59.5567 395.199 57.9485 397.663 57.9485C400.128 57.9485 402.131 59.5567 402.131 61.5349C402.131 63.5131 400.126 65.1223 397.663 65.1223ZM397.663 59.6728C396.383 59.6728 395.342 60.5083 395.342 61.5359C395.342 62.5636 396.383 63.4002 397.663 63.4002C398.943 63.4002 399.984 62.5646 399.984 61.5359C399.984 60.5083 398.942 59.6728 397.663 59.6728Z" fill="white"/>
<path d="M403.665 66.8119C403.421 66.8119 403.175 66.7446 402.973 66.6079L399.339 64.1436C398.887 63.8365 398.828 63.2928 399.212 62.9293C399.595 62.5658 400.272 62.5202 400.725 62.8273L404.359 65.2916C404.812 65.5987 404.87 66.1424 404.486 66.5059C404.274 66.7088 403.971 66.8119 403.665 66.8119Z" fill="white"/>
<path d="M288.415 65.1222H281.625C281.033 65.1222 280.551 64.7359 280.551 64.2606V58.8111C280.551 58.3358 281.033 57.9495 281.625 57.9495H288.415C289.007 57.9495 289.489 58.3358 289.489 58.8111V64.2606C289.489 64.7359 289.007 65.1222 288.415 65.1222ZM282.698 63.399H287.34V59.6727H282.698V63.399Z" fill="white"/>
<path d="M272.756 65.1224C272.482 65.1224 272.208 65.0388 271.998 64.8695L265.208 59.4189C264.789 59.0825 264.789 58.5367 265.208 58.2003C265.627 57.8639 266.307 57.8639 266.726 58.2003L273.516 63.6509C273.935 63.9873 273.935 64.5331 273.516 64.8695C273.305 65.0388 273.031 65.1224 272.756 65.1224Z" fill="white"/>
<path d="M265.967 65.1224C265.693 65.1224 265.419 65.0388 265.208 64.8695C264.789 64.5331 264.789 63.9873 265.208 63.6509L271.998 58.2003C272.417 57.8639 273.097 57.8639 273.516 58.2003C273.935 58.5367 273.935 59.0825 273.516 59.4189L266.726 64.8695C266.516 65.0388 266.242 65.1224 265.967 65.1224Z" fill="white"/>
<path d="M324.002 121.038H268.385C267.791 121.038 267.311 120.652 267.311 120.177V77.5755C267.311 77.1002 267.793 76.7139 268.385 76.7139H324.002C324.594 76.7139 325.076 77.1002 325.076 77.5755V120.177C325.076 120.652 324.596 121.038 324.002 121.038ZM269.458 119.315H322.929V78.4382H269.458V119.315Z" fill="white"/>
<path d="M324.002 121.038C323.736 121.038 323.468 120.959 323.261 120.8L267.644 78.1983C267.215 77.8706 267.199 77.3247 267.609 76.9807C268.02 76.6368 268.698 76.6237 269.127 76.9525L324.744 119.554C325.173 119.882 325.189 120.428 324.779 120.771C324.567 120.949 324.286 121.038 324.002 121.038Z" fill="white"/>
<path d="M268.385 121.038C268.102 121.038 267.819 120.949 267.609 120.771C267.199 120.427 267.215 119.882 267.644 119.554L323.261 76.9526C323.69 76.6238 324.368 76.6357 324.778 76.9808C325.188 77.3248 325.171 77.8706 324.743 78.1983L269.125 120.8C268.917 120.959 268.651 121.038 268.385 121.038Z" fill="white"/>
<path d="M396.217 82.631H352.086C351.494 82.631 351.013 82.2447 351.013 81.7694C351.013 81.2942 351.494 80.9078 352.086 80.9078H396.217C396.81 80.9078 397.29 81.2942 397.29 81.7694C397.29 82.2458 396.809 82.631 396.217 82.631Z" fill="white"/>
<path d="M396.217 96.4067H352.086C351.494 96.4067 351.013 96.0204 351.013 95.5451C351.013 95.0698 351.494 94.6835 352.086 94.6835H396.217C396.81 94.6835 397.29 95.0698 397.29 95.5451C397.29 96.0204 396.809 96.4067 396.217 96.4067Z" fill="white"/>
<path d="M396.217 110.294H352.086C351.494 110.294 351.013 109.908 351.013 109.433C351.013 108.957 351.494 108.571 352.086 108.571H396.217C396.81 108.571 397.29 108.957 397.29 109.433C397.29 109.909 396.809 110.294 396.217 110.294Z" fill="white"/>
<path d="M396.217 124.07H352.086C351.494 124.07 351.013 123.684 351.013 123.209C351.013 122.733 351.494 122.347 352.086 122.347H396.217C396.81 122.347 397.29 122.733 397.29 123.209C397.29 123.684 396.809 124.07 396.217 124.07Z" fill="white"/>
<path d="M341.618 81.7693C341.618 83.2744 340.099 84.4941 338.224 84.4941C336.349 84.4941 334.829 83.2744 334.829 81.7693C334.829 80.2642 336.349 79.0446 338.224 79.0446C340.099 79.0446 341.618 80.2642 341.618 81.7693Z" fill="#2F2FA7"/>
<path d="M341.618 95.5451C341.618 97.0502 340.099 98.2699 338.224 98.2699C336.349 98.2699 334.829 97.0502 334.829 95.5451C334.829 94.04 336.349 92.8203 338.224 92.8203C340.099 92.8203 341.618 94.04 341.618 95.5451Z" fill="#2F2FA7"/>
<path d="M341.618 109.433C341.618 110.938 340.099 112.157 338.224 112.157C336.349 112.157 334.829 110.938 334.829 109.433C334.829 107.928 336.349 106.708 338.224 106.708C340.099 106.708 341.618 107.929 341.618 109.433Z" fill="#2F2FA7"/>
<path d="M341.618 123.209C341.618 124.714 340.099 125.933 338.224 125.933C336.349 125.933 334.829 124.714 334.829 123.209C334.829 121.703 336.349 120.484 338.224 120.484C340.099 120.484 341.618 121.703 341.618 123.209Z" fill="#2F2FA7"/>
<path d="M387.911 64.2217C387.911 67.4391 384.659 70.0489 380.652 70.0489H300.943C296.932 70.0489 293.685 67.4391 293.685 64.2217C293.685 61.0043 296.932 58.3956 300.943 58.3956H380.652C384.659 58.3945 387.911 61.0043 387.911 64.2217Z" fill="white"/>
<path d="M101.61 136.831C101.61 132.865 105.616 129.65 110.557 129.65H318.481C323.422 129.65 327.427 132.865 327.427 136.831V141.842H101.61V136.831Z" fill="#ECDB7F"/>
<path d="M316.902 137.602C315.051 137.602 313.545 136.393 313.545 134.907C313.545 133.422 315.051 132.214 316.902 132.214C318.752 132.214 320.258 133.423 320.258 134.907C320.258 136.393 318.752 137.602 316.902 137.602ZM316.902 133.937C316.235 133.937 315.692 134.372 315.692 134.907C315.692 135.442 316.234 135.879 316.902 135.879C317.568 135.879 318.112 135.442 318.112 134.907C318.112 134.372 317.569 133.937 316.902 133.937Z" fill="#2F2FA7"/>
<path d="M320.938 138.738C320.694 138.738 320.448 138.671 320.246 138.534L317.803 136.877C317.351 136.57 317.294 136.026 317.676 135.663C318.059 135.299 318.735 135.254 319.189 135.561L321.632 137.218C322.085 137.525 322.142 138.068 321.759 138.432C321.547 138.634 321.244 138.738 320.938 138.738Z" fill="#2F2FA7"/>
<path d="M125.319 138.169H120.754C120.162 138.169 119.681 137.783 119.681 137.308V133.643C119.681 133.168 120.162 132.781 120.754 132.781H125.319C125.911 132.781 126.393 133.168 126.393 133.643V137.308C126.393 137.783 125.911 138.169 125.319 138.169ZM121.827 136.446H124.246V134.505H121.827V136.446Z" fill="#2F2FA7"/>
<path d="M114.79 138.169C114.515 138.169 114.241 138.086 114.03 137.916L109.465 134.252C109.046 133.916 109.046 133.37 109.465 133.033C109.884 132.697 110.564 132.697 110.983 133.033L115.548 136.698C115.967 137.034 115.967 137.58 115.548 137.916C115.339 138.086 115.064 138.169 114.79 138.169Z" fill="#2F2FA7"/>
<path d="M110.224 138.169C109.95 138.169 109.676 138.086 109.465 137.916C109.046 137.58 109.046 137.034 109.465 136.698L114.03 133.033C114.449 132.697 115.129 132.697 115.548 133.033C115.967 133.37 115.967 133.916 115.548 134.252L110.983 137.916C110.773 138.086 110.499 138.169 110.224 138.169Z" fill="#2F2FA7"/>
<path d="M327.429 141.841V235.93C327.429 239.896 323.423 243.112 318.482 243.112H110.557C105.616 243.112 101.61 239.896 101.61 235.93V141.841H327.429Z" fill="#A4A4E4"/>
<path d="M169.931 160.725H110.268C109.676 160.725 109.194 160.339 109.194 159.863C109.194 159.388 109.676 159.002 110.268 159.002H169.931C170.524 159.002 171.005 159.388 171.005 159.863C171.005 160.339 170.524 160.725 169.931 160.725Z" fill="#CECEF4"/>
<path d="M200.585 166.678H110.268C109.676 166.678 109.194 166.292 109.194 165.816C109.194 165.34 109.676 164.955 110.268 164.955H200.585C201.177 164.955 201.659 165.341 201.659 165.816C201.659 166.292 201.177 166.678 200.585 166.678Z" fill="#CECEF4"/>
<path d="M169.931 149.072H110.268C109.676 149.072 109.194 148.685 109.194 148.21C109.194 147.735 109.676 147.348 110.268 147.348H169.931C170.524 147.348 171.005 147.735 171.005 148.21C171.005 148.686 170.524 149.072 169.931 149.072Z" fill="#CECEF4"/>
<path d="M200.585 155.024H110.268C109.676 155.024 109.194 154.637 109.194 154.162C109.194 153.687 109.676 153.3 110.268 153.3H200.585C201.177 153.3 201.659 153.687 201.659 154.162C201.659 154.637 201.177 155.024 200.585 155.024Z" fill="#CECEF4"/>
<path d="M169.931 172.486H110.268C109.676 172.486 109.194 172.099 109.194 171.624C109.194 171.149 109.676 170.762 110.268 170.762H169.931C170.524 170.762 171.005 171.149 171.005 171.624C171.005 172.099 170.524 172.486 169.931 172.486Z" fill="#CECEF4"/>
<path d="M129.7 178.439H110.268C109.676 178.439 109.194 178.052 109.194 177.577C109.194 177.102 109.676 176.715 110.268 176.715H129.7C130.292 176.715 130.773 177.102 130.773 177.577C130.773 178.052 130.292 178.439 129.7 178.439Z" fill="#CECEF4"/>
<path d="M226.859 184.119H110.268C109.676 184.119 109.194 183.733 109.194 183.258C109.194 182.782 109.676 182.396 110.268 182.396H226.86C227.452 182.396 227.934 182.782 227.934 183.258C227.932 183.733 227.452 184.119 226.859 184.119Z" fill="#CECEF4"/>
<path d="M188.268 189.926H110.268C109.676 189.926 109.194 189.539 109.194 189.064C109.194 188.588 109.676 188.203 110.268 188.203H188.27C188.862 188.203 189.343 188.589 189.343 189.064C189.343 189.54 188.862 189.926 188.268 189.926Z" fill="#CECEF4"/>
<path d="M162.268 195.879H110.268C109.676 195.879 109.194 195.493 109.194 195.017C109.194 194.542 109.676 194.156 110.268 194.156H162.268C162.861 194.156 163.341 194.542 163.341 195.017C163.341 195.493 162.861 195.879 162.268 195.879Z" fill="#CECEF4"/>
<path d="M180.323 201.622H110.268C109.676 201.622 109.194 201.236 109.194 200.761C109.194 200.285 109.676 199.899 110.268 199.899H180.325C180.917 199.899 181.398 200.286 181.398 200.761C181.397 201.236 180.917 201.622 180.323 201.622Z" fill="#CECEF4"/>
<path d="M195.513 207.367H110.268C109.676 207.367 109.194 206.981 109.194 206.506C109.194 206.03 109.676 205.644 110.268 205.644H195.513C196.105 205.644 196.586 206.03 196.586 206.506C196.586 206.981 196.105 207.367 195.513 207.367Z" fill="#CECEF4"/>
<path d="M226.859 213.192H110.268C109.676 213.192 109.194 212.806 109.194 212.331C109.194 211.855 109.676 211.469 110.268 211.469H226.86C227.452 211.469 227.934 211.855 227.934 212.331C227.932 212.807 227.452 213.192 226.859 213.192Z" fill="#CECEF4"/>
<path d="M153.236 218.936H110.268C109.676 218.936 109.194 218.55 109.194 218.074C109.194 217.599 109.676 217.213 110.268 217.213H153.237C153.829 217.213 154.31 217.599 154.31 218.074C154.31 218.551 153.829 218.936 153.236 218.936Z" fill="#CECEF4"/>
<path d="M126.14 224.68H110.268C109.676 224.68 109.194 224.294 109.194 223.819C109.194 223.343 109.676 222.957 110.268 222.957H126.141C126.734 222.957 127.215 223.344 127.215 223.819C127.215 224.294 126.734 224.68 126.14 224.68Z" fill="#CECEF4"/>
<path d="M153.236 229.618H110.268C109.676 229.618 109.194 229.232 109.194 228.756C109.194 228.28 109.676 227.895 110.268 227.895H153.237C153.829 227.895 154.31 228.281 154.31 228.756C154.31 229.232 153.829 229.618 153.236 229.618Z" fill="#CECEF4"/>
<path d="M126.14 235.361H110.268C109.676 235.361 109.194 234.975 109.194 234.5C109.194 234.024 109.676 233.638 110.268 233.638H126.141C126.734 233.638 127.215 234.024 127.215 234.5C127.215 234.975 126.734 235.361 126.14 235.361Z" fill="#CECEF4"/>
<path d="M235.858 237.947C235.266 237.947 234.785 237.561 234.785 237.086V147.287C234.785 146.811 235.266 146.425 235.858 146.425C236.45 146.425 236.931 146.811 236.931 147.287V237.086C236.931 237.561 236.45 237.947 235.858 237.947Z" fill="#CECEF4"/>
<path d="M319.87 153.581H235.858C235.266 153.581 234.785 153.195 234.785 152.72C234.785 152.243 235.266 151.858 235.858 151.858H319.87C320.462 151.858 320.944 152.244 320.944 152.72C320.944 153.195 320.464 153.581 319.87 153.581Z" fill="#CECEF4"/>
<path d="M282.848 160.725H244.045C243.453 160.725 242.972 160.339 242.972 159.863C242.972 159.388 243.453 159.002 244.045 159.002H282.848C283.44 159.002 283.922 159.388 283.922 159.863C283.922 160.339 283.442 160.725 282.848 160.725Z" fill="#CECEF4"/>
<path d="M302.784 166.678H244.046C243.454 166.678 242.973 166.292 242.973 165.816C242.973 165.34 243.454 164.955 244.046 164.955H302.784C303.376 164.955 303.857 165.341 303.857 165.816C303.857 166.292 303.376 166.678 302.784 166.678Z" fill="#CECEF4"/>
<path d="M282.848 172.486H244.045C243.453 172.486 242.972 172.099 242.972 171.624C242.972 171.149 243.453 170.762 244.045 170.762H282.848C283.44 170.762 283.922 171.149 283.922 171.624C283.922 172.099 283.442 172.486 282.848 172.486Z" fill="#CECEF4"/>
<path d="M256.684 178.439H244.046C243.454 178.439 242.973 178.052 242.973 177.577C242.973 177.102 243.454 176.715 244.046 176.715H256.684C257.276 176.715 257.757 177.102 257.757 177.577C257.757 178.052 257.276 178.439 256.684 178.439Z" fill="#CECEF4"/>
<path d="M319.871 184.119H244.045C243.453 184.119 242.972 183.733 242.972 183.258C242.972 182.782 243.453 182.396 244.045 182.396H319.871C320.463 182.396 320.944 182.782 320.944 183.258C320.944 183.733 320.464 184.119 319.871 184.119Z" fill="#CECEF4"/>
<path d="M294.773 189.926H244.045C243.453 189.926 242.972 189.54 242.972 189.064C242.972 188.588 243.453 188.203 244.045 188.203H294.773C295.367 188.203 295.846 188.589 295.846 189.064C295.848 189.541 295.367 189.926 294.773 189.926Z" fill="#CECEF4"/>
<path d="M277.864 195.879H244.045C243.453 195.879 242.972 195.493 242.972 195.017C242.972 194.542 243.453 194.156 244.045 194.156H277.864C278.457 194.156 278.937 194.542 278.937 195.017C278.937 195.493 278.457 195.879 277.864 195.879Z" fill="#CECEF4"/>
<path d="M254.369 201.622H244.046C243.454 201.622 242.973 201.236 242.973 200.761C242.973 200.285 243.454 199.899 244.046 199.899H254.369C254.963 199.899 255.443 200.286 255.443 200.761C255.443 201.236 254.961 201.622 254.369 201.622Z" fill="#CECEF4"/>
<path d="M254.369 207.367H244.046C243.454 207.367 242.973 206.981 242.973 206.506C242.973 206.03 243.454 205.644 244.046 205.644H254.369C254.963 205.644 255.443 206.03 255.443 206.506C255.443 206.981 254.961 207.367 254.369 207.367Z" fill="#CECEF4"/>
<path d="M319.871 213.192H244.045C243.453 213.192 242.972 212.806 242.972 212.331C242.972 211.855 243.453 211.469 244.045 211.469H319.871C320.463 211.469 320.944 211.855 320.944 212.331C320.944 212.807 320.464 213.192 319.871 213.192Z" fill="#CECEF4"/>
<path d="M271.991 218.936H244.046C243.454 218.936 242.973 218.55 242.973 218.074C242.973 217.599 243.454 217.213 244.046 217.213H271.991C272.583 217.213 273.064 217.599 273.064 218.074C273.064 218.551 272.583 218.936 271.991 218.936Z" fill="#CECEF4"/>
<path d="M254.369 224.681H244.046C243.454 224.681 242.973 224.294 242.973 223.819C242.973 223.343 243.454 222.957 244.046 222.957H254.369C254.963 222.957 255.443 223.344 255.443 223.819C255.443 224.294 254.961 224.681 254.369 224.681Z" fill="#CECEF4"/>
<path d="M271.991 229.618H244.046C243.454 229.618 242.973 229.232 242.973 228.756C242.973 228.28 243.454 227.895 244.046 227.895H271.991C272.583 227.895 273.064 228.281 273.064 228.756C273.064 229.232 272.583 229.618 271.991 229.618Z" fill="#CECEF4"/>
<path d="M254.369 235.361H244.046C243.454 235.361 242.973 234.975 242.973 234.5C242.973 234.024 243.454 233.638 244.046 233.638H254.369C254.963 233.638 255.443 234.024 255.443 234.5C255.443 234.975 254.961 235.361 254.369 235.361Z" fill="#CECEF4"/>
<path d="M313.939 148.537H296.732C296.14 148.537 295.659 148.15 295.659 147.675C295.659 147.2 296.14 146.813 296.732 146.813H313.939C314.531 146.813 315.012 147.2 315.012 147.675C315.012 148.151 314.531 148.537 313.939 148.537Z" fill="#CECEF4"/>
<path d="M289.02 148.537H276.204C275.61 148.537 275.13 148.15 275.13 147.675C275.13 147.2 275.612 146.813 276.204 146.813H289.02C289.612 146.813 290.093 147.2 290.093 147.675C290.093 148.151 289.612 148.537 289.02 148.537Z" fill="#CECEF4"/>
<path d="M269.409 148.537H260.49C259.898 148.537 259.416 148.15 259.416 147.675C259.416 147.2 259.898 146.813 260.49 146.813H269.409C270.001 146.813 270.483 147.2 270.483 147.675C270.483 148.151 270.003 148.537 269.409 148.537Z" fill="#CECEF4"/>
<path d="M254.825 148.537H243.215C242.622 148.537 242.142 148.15 242.142 147.675C242.142 147.2 242.623 146.813 243.215 146.813H254.825C255.417 146.813 255.899 147.2 255.899 147.675C255.899 148.151 255.417 148.537 254.825 148.537Z" fill="#CECEF4"/>
<path fill-rule="evenodd" clip-rule="evenodd" d="M306.076 283.32C306.805 282.949 305.15 283.043 304.359 283.021C299.566 282.87 291.698 283.319 286.593 281.726C284.857 281.185 283.073 280.27 283.234 279.443C283.562 277.784 286.519 278.292 288.192 278.348C290.294 278.417 292.049 278.368 293.44 278.323C297.307 278.195 300.551 278.103 303.647 277.2C304.528 277.796 305.681 277.641 306.798 277.877C312.537 279.09 318.397 281.109 323.824 282.315C325.878 282.772 329.089 282.706 329.76 284.664C329.292 285.857 327.517 286.081 326.051 286.442C319.241 288.106 311.277 289.237 303.545 289.385C300.267 289.446 296.521 289.43 293.804 288.588C291.753 287.949 290.3 286.923 290.728 285.842C291.489 283.923 296.113 284.106 298.062 283.97C301.067 283.756 303.352 283.514 305.886 283.243C305.948 283.268 306.013 283.294 306.076 283.32Z" fill="#BB78A2"/>
<path fill-rule="evenodd" clip-rule="evenodd" d="M353.182 288.581C352.029 290.122 346.75 290.919 344.545 291.342C341.352 291.953 338.556 292.44 335.798 293.1C332.865 293.804 329.862 294.531 327.052 295.425C322.151 296.985 309.379 300.145 308.212 297.455C306.782 294.161 316.334 290.653 317.69 290.248C322.112 288.923 326.799 287.233 325.942 285.394C325.257 283.916 322.785 283.908 321.1 283.566C312.936 281.912 304.323 281.366 295.706 279.283C292.28 278.454 288.335 277.303 285.154 275.545C283.324 274.536 280.984 272.633 281.557 271.362C282.535 269.198 286.875 269.93 289.429 270.002C298.307 270.246 307.828 271.534 316.326 271.555C322.226 271.566 327.582 270.561 333.03 270.285C338.944 269.986 344.698 270.072 350.476 269.389C350.531 269.418 353.774 287.791 353.182 288.581Z" fill="#E2B1CE"/>
<path d="M462.611 154.525C462.511 154.456 462.435 154.36 462.342 154.348C462.055 154.312 461.762 154.294 461.473 154.294C457.982 154.286 454.834 155.167 451.878 156.615C446.575 159.211 442.5 162.756 439.287 166.984C435.56 171.886 432.63 177.084 430.273 182.497C426.754 190.574 424.602 198.925 422.593 207.301C420.44 216.271 418.553 225.28 416.7 234.293C414.971 242.704 413.166 251.105 411.688 259.548C411.433 261.007 411.249 261.151 409.32 261.156C403.3 261.173 397.326 261.751 391.339 262.131C385.701 262.489 380.098 263.145 374.478 263.664C365.598 264.484 356.831 265.807 348.093 267.28C343.731 268.014 339.437 268.958 335.151 269.929C335.349 277.5 336.657 284.985 338.301 292.443C343.773 292.685 349.251 292.811 354.733 292.827C372.538 292.879 390.344 292.907 408.137 292.248C412.158 292.098 416.173 291.839 420.186 291.605C424.2 291.372 428.212 291.111 432.225 290.856C435.598 290.643 438.971 290.43 442.342 290.2C447.282 289.864 452.216 289.477 457.16 289.178C460.238 288.991 460.395 288.91 460.159 286.435C459.819 282.886 459.535 279.333 459.111 275.792C458.782 273.044 458.588 270.283 457.937 267.56C455.528 257.463 451.874 247.631 448.199 237.802C446.906 234.348 445.327 230.964 444.294 227.446C442.367 220.884 442.207 214.281 444.734 207.86C448.574 198.102 450.633 188.114 451.896 177.974C452.407 173.871 453.222 169.799 454.624 165.818C456.012 161.877 458.111 158.265 461.911 155.414C462.228 155.177 462.692 154.973 462.611 154.525Z" fill="#C167A0"/>
<path d="M412.563 255.943C412.487 255.921 412.43 255.905 412.36 255.884C412.133 257.104 411.901 258.325 411.687 259.548C411.531 260.436 411.398 260.833 410.885 261.012C418.418 261.916 432.953 263.629 432.953 263.629C432.953 263.629 413.98 256.375 412.563 255.943Z" fill="#9A466E"/>
<path d="M512.339 290.292C494.237 290.292 476.134 290.292 458.032 290.292C455.172 290.292 455.145 290.292 454.918 288.007C454.515 283.945 454.236 279.875 453.746 275.821C452.953 269.293 452.068 262.772 449.97 256.404C448.208 251.06 445.376 246.089 441.838 241.366C438.555 236.981 435.744 232.406 433.089 227.757C430.364 222.983 430.1 218.094 431.498 213.055C432.172 210.622 433.115 208.26 434.346 205.976C437.802 199.569 439.317 192.832 439.836 185.903C440.134 181.933 440.198 177.939 441.066 174.008C442.232 168.724 445.1 164.059 449.237 159.877C454.845 154.208 462.279 151.057 471.041 149.815C477.997 148.829 484.995 148.133 492.055 147.778C502.136 147.272 512.216 146.68 522.317 147.073C528.835 147.327 535.388 147.385 541.831 148.398C547.049 149.218 551.947 150.654 556.202 153.303C558.198 154.545 559.984 155.962 561.458 157.606C565.661 162.294 568.253 167.49 569.286 173.226C570.36 179.191 570.558 185.175 570.196 191.172C569.93 195.566 569.384 199.95 568.973 204.34C568.816 206.021 568.652 207.703 568.558 209.387C568.27 214.487 567.901 219.584 567.715 224.689C567.434 232.416 567.144 240.143 567.05 247.874C566.989 252.936 566.923 258.003 567.191 263.058C567.453 268.016 567.814 272.973 568.414 277.916C568.827 281.318 569.143 284.729 569.5 288.135C569.524 288.368 569.528 288.604 569.527 288.838C569.519 290.127 569.363 290.252 567.699 290.288C567.173 290.299 566.649 290.291 566.123 290.291C548.192 290.292 530.264 290.292 512.339 290.292Z" fill="#AF5091"/>
<path d="M510.38 147.899C512.286 147.868 512.579 148.09 512.387 149.496C511.946 152.713 511.256 155.904 510.5 159.087C508.126 169.098 505.775 179.111 503.392 189.121C501.866 195.532 500.216 201.927 499.059 208.385C498.418 211.961 498.051 215.557 497.683 219.153C497.192 223.964 496.912 228.784 496.67 233.605C496.492 237.162 496.47 240.725 496.764 244.285C496.868 245.547 496.857 246.814 496.866 248.079C496.91 254.031 497.45 259.97 497.79 265.913C498.105 271.435 498.629 276.948 498.864 282.474C498.966 284.86 499.25 287.242 499.448 289.625C499.467 289.858 499.504 290.092 499.496 290.327L476.936 290.297C475.935 286.717 475.497 283.671 474.87 280.047C473.97 274.845 473.083 269.642 472.324 264.428C471.6 259.447 470.774 254.474 470.249 249.476C469.592 243.221 468.668 236.979 468.192 230.717C467.777 225.251 467.321 219.774 467.915 214.287C468.212 211.534 468.211 208.765 468.438 206.008C468.901 200.4 469.193 194.784 469.834 189.184C470.287 185.217 470.617 181.244 471.104 177.281C471.602 173.225 472.253 169.178 472.788 165.124C473.261 161.535 473.672 157.943 474.097 154.352C474.245 153.092 474.333 151.829 474.493 150.57C474.631 149.493 474.896 149.282 476.402 149.273C483.775 149.228 491.097 148.536 498.457 148.305C502.482 148.177 506.527 148.294 510.38 147.899Z" fill="white"/>
<path d="M453.653 159.837C455.745 165.359 457.42 170.961 458.659 176.647C458.669 176.693 458.681 176.737 458.69 176.782C458.914 177.937 458.824 178.007 457.452 177.8C456.223 177.617 454.994 177.426 453.757 177.276C449.688 176.784 447.88 178.427 449.046 181.602C449.984 184.156 451.532 186.515 452.858 188.943C457.002 196.524 461.278 204.056 465.824 211.488C466.2 212.103 466.648 212.689 467.088 213.275C467.233 213.466 467.46 213.662 467.782 213.581C468.093 213.501 468.135 213.247 468.163 213.02C468.373 211.334 468.577 209.65 468.786 207.965C470.714 192.48 471.997 176.956 473.303 161.432C473.764 155.955 474.403 150.487 474.96 145.014C474.983 144.786 475.021 144.558 475.028 144.33C475.062 143.241 474.735 142.853 473.426 142.539C472.942 142.423 472.42 142.349 471.916 142.352C467.993 142.385 455.385 145.849 452.638 150.087C450.622 153.195 452.544 156.905 453.653 159.837Z" fill="#9A466E"/>
<path d="M439.324 132.083C438.71 132.083 438.089 132.047 437.465 131.973C434.093 131.577 431.115 130.149 429.08 127.955C427.046 125.761 426.197 123.061 426.692 120.355C427.487 116.003 431.641 112.55 437.029 111.761L437.554 114.067C433.398 114.676 430.194 117.339 429.581 120.694C429.199 122.781 429.854 124.862 431.423 126.555C432.993 128.248 435.288 129.348 437.889 129.654C443.256 130.283 448.266 127.295 449.053 122.986C449.772 119.048 446.529 115.891 442.995 114.51L444.274 112.403C449.669 114.511 452.752 118.902 451.942 123.326C451.012 128.413 445.546 132.083 439.324 132.083Z" fill="#ECDB7F"/>
<path fill-rule="evenodd" clip-rule="evenodd" d="M445.019 132.546C449.775 136.793 459.772 140.427 468.886 137.016C468.886 137.016 471.401 144.643 472.762 149.742C472.762 149.742 473.065 151.672 473.664 154.635C476.627 171.763 508.422 171.03 514.927 152.923L506.702 121.57C511.261 120.348 513.483 117.131 513.779 114.081C513.842 113.444 513.82 112.008 513.391 111.355C513.391 111.355 514.846 109.562 515.261 108.395C518.669 98.8115 514.709 88.8608 509.076 82.9598C500.887 74.3916 487.019 67.9047 467.671 70.7271C458.371 72.0879 451.271 75.3867 446.061 80.0278C442.599 83.1128 439.667 87.1767 438.437 91.706C437.113 96.5609 436.939 101.902 436.97 107.869C436.978 110.578 436.575 113.149 436.791 115.652C437.39 122.465 440.348 128.38 445.019 132.546Z" fill="#E2B1CE"/>
<path fill-rule="evenodd" clip-rule="evenodd" d="M486.776 128.77C481.643 132.039 475.576 135 468.887 137.016L471.876 146.596C479.215 143.804 485.213 135.987 486.776 128.77Z" fill="#BB78A2"/>
<path d="M452.471 115.2C452.403 115.204 452.329 115.185 452.262 115.179C450.378 114.794 449.095 114.107 448.342 113.075C446.833 110.987 447.853 108.031 449.145 104.298C449.968 101.925 450.892 99.2261 451.315 96.3211C451.411 95.7883 452.01 95.3988 452.668 95.4661C453.33 95.5355 453.82 96.0141 453.741 96.5469C453.29 99.6026 452.333 102.376 451.489 104.818C450.39 107.985 449.448 110.72 450.439 112.097C450.848 112.646 451.632 113.039 452.837 113.279C453.497 113.419 453.883 113.937 453.729 114.462C453.586 114.932 453.053 115.237 452.471 115.2Z" fill="#BB78A2"/>
<path d="M453.893 126.446C449.116 126.369 447.964 120.943 448.189 120.437C448.398 119.937 449.095 119.655 449.732 119.832C456.475 121.685 458.95 118.602 459.063 118.469C459.409 118.013 460.274 117.755 460.719 118.143C462.619 119.738 459.593 126.74 453.893 126.446Z" fill="#BB78A2"/>
<path fill-rule="evenodd" clip-rule="evenodd" d="M436.471 94.9051C436.639 95.6777 439.802 95.8719 443.538 95.3315C447.27 94.7857 450.151 93.7179 449.985 92.9421C449.801 92.1619 446.636 91.96 442.904 92.5102C439.178 93.0484 436.286 94.1151 436.471 94.9051Z" fill="#1E1E77"/>
<path fill-rule="evenodd" clip-rule="evenodd" d="M440.612 102.452C440.578 103.806 441.572 104.926 442.81 104.929C444.053 104.947 445.076 103.848 445.099 102.489C445.111 101.127 444.123 100.016 442.894 100.008C441.65 99.9921 440.628 101.086 440.612 102.452Z" fill="#1E1E77"/>
<path fill-rule="evenodd" clip-rule="evenodd" d="M456.626 92.6772C456.411 93.4705 459.315 94.6565 463.13 95.3228C466.923 96.0053 470.202 95.8947 470.41 95.1068C470.625 94.3071 467.722 93.1145 463.91 92.4407C460.101 91.7711 456.847 91.8775 456.626 92.6772Z" fill="#1E1E77"/>
<path fill-rule="evenodd" clip-rule="evenodd" d="M460.506 101.984C460.476 103.425 461.523 104.63 462.853 104.64C464.178 104.651 465.259 103.478 465.289 102.03C465.308 100.58 464.25 99.3909 462.929 99.3801C461.611 99.3682 460.517 100.536 460.506 101.984Z" fill="#1E1E77"/>
<path d="M507.794 136.801C507.181 136.801 506.56 136.765 505.936 136.691C502.564 136.295 499.586 134.867 497.551 132.673C495.517 130.479 494.668 127.779 495.163 125.073C495.956 120.721 500.11 117.27 505.5 116.483L506.024 118.789C501.868 119.395 498.665 122.057 498.051 125.412C497.67 127.499 498.325 129.58 499.894 131.273C501.462 132.966 503.759 134.066 506.359 134.372C511.724 135 516.736 132.013 517.524 127.704C518.243 123.767 515 120.612 511.465 119.229L512.744 117.122C518.139 119.232 521.221 123.621 520.413 128.044C519.483 133.13 514.018 136.801 507.794 136.801Z" fill="#ECDB7F"/>
<path fill-rule="evenodd" clip-rule="evenodd" d="M547.555 61.7324C545.077 75.2998 529.363 84.6884 512.457 82.6994C495.552 80.7092 483.857 68.0946 486.336 54.5271C488.816 40.9564 504.529 31.57 521.434 33.5591C538.339 35.5492 550.034 48.1617 547.555 61.7324Z" fill="#1E1E77"/>
<path fill-rule="evenodd" clip-rule="evenodd" d="M505.715 79.5243C507.157 79.6523 508.426 79.8954 509.589 80.2112C508.898 79.3756 508.291 78.5086 507.773 77.6003C506.29 77.3974 504.639 77.3236 502.729 77.4322L500.803 75.9651C501.548 75.5744 502.398 75.2825 503.323 75.0676C503.021 74.945 502.725 74.8181 502.424 74.6965C501.6 74.3634 499.682 73.963 499.37 73.8707C498.249 73.7134 497.127 73.5647 496.005 73.4074C491.563 72.7965 486.992 71.9967 482.903 70.433C467.474 68.6285 452.887 73.4269 445.5 80.3273C444.22 81.5231 443.314 82.4238 442.114 84.3293C457.841 87.0508 472.224 82.4813 481.478 77.7534C481.887 90.5015 486.749 99.6774 494.383 106.62C496.158 105.945 497.91 105.295 499.971 105.115C507.063 104.502 512.03 107.659 513.592 111.836C515.636 108.579 516.559 104.617 516.559 100.465C516.541 91.3664 511.311 84.1817 505.715 79.5243Z" fill="#1E1E77"/>
<mask id="mask0_8_634" style="mask-type:luminance" maskUnits="userSpaceOnUse" x="442" y="33" width="106" height="79">
<path d="M547.555 61.7324C550.034 48.1617 538.339 35.5492 521.434 33.5591C504.529 31.5689 488.814 40.9564 486.336 54.5271C485.11 61.2365 487.354 67.7093 491.975 72.7823C492.374 72.1616 487.865 70.8128 482.904 70.4319C467.475 68.6274 452.888 73.4258 445.502 80.3262C444.221 81.522 443.316 82.4227 442.115 84.3282C457.843 87.0497 472.226 82.4802 481.479 77.7522C481.889 90.5004 486.75 99.6763 494.384 106.619C496.159 105.944 497.911 105.294 499.973 105.114C507.065 104.501 512.032 107.657 513.593 111.835C515.637 108.578 516.56 104.616 516.56 100.464C516.545 92.8378 512.863 86.5614 508.377 81.9864C509.7 82.2892 511.058 82.5344 512.457 82.6994C529.363 84.6884 545.075 75.2998 547.555 61.7324Z" fill="white"/>
</mask>
<g mask="url(#mask0_8_634)">
<path d="M496.805 73.9673C499.181 67.3056 505.186 63.6281 512.751 61.5403C518.581 59.93 525.283 59.5437 529.702 56.3186C532.677 54.1484 533.666 50.8919 536.171 48.3082C542.612 41.6628 559.75 41.1181 567.718 33.6133C568.802 35.3571 569.891 37.0922 570.973 38.8067C569.899 39.689 562.302 43.5683 561.109 44.2769C555.828 47.4227 548.394 47.2187 542.665 49.5018C537.525 51.5419 535.819 57.5069 531.211 60.3174C522.822 65.4251 506.129 62.3205 502.287 71.5572C502.287 71.4259 513.3 69.3771 531.72 74.334C545.288 77.9855 548.553 65.8016 555.148 60.6993C560.295 56.7158 572.524 52.8592 578.931 51.3216C580.185 53.2792 581.352 55.0968 582.398 56.7147C577.264 57.8139 565.755 61.1518 561.333 63.8006C558.535 65.4772 556.598 68.4635 554.664 70.7108C552.595 73.11 550.268 76.0377 547.694 77.5211C531.622 86.7708 515.79 70.3212 500.799 75.9628C510.823 82.2479 519.149 91.7613 515.688 107.061C516.162 104.962 509.65 74.831 475.355 72.7866C468.038 72.3504 461.623 72.5924 455.521 74.0671C467.21 68.3495 486.697 68.7467 496.805 73.9673Z" fill="#2F2FA7"/>
</g>
<path d="M536.683 151.056C536.717 152.139 536.269 153.305 535.625 154.444C533.974 157.362 531.765 160.072 529.675 162.824C525.74 168.008 522.237 173.342 519.188 178.833C519.164 178.876 519.137 178.919 519.114 178.963C518.526 180.083 518.604 180.167 520.173 180.189C521.579 180.208 522.986 180.221 524.389 180.277C529.008 180.458 530.509 182.404 528.285 185.391C526.497 187.795 524.096 189.901 521.918 192.112C515.117 199.019 508.183 205.856 500.981 212.545C500.387 213.098 499.721 213.611 499.063 214.124C498.848 214.293 498.539 214.451 498.21 214.316C497.891 214.186 497.922 213.924 497.957 213.69C498.226 211.968 498.502 210.246 498.771 208.524C501.244 192.693 504.437 176.929 507.606 161.162C508.724 155.599 509.643 150.015 510.653 144.44C510.695 144.208 510.722 143.974 510.781 143.744C511.066 142.648 511.542 142.313 513.073 142.216C513.639 142.18 514.235 142.192 514.787 142.28C519.088 142.963 523.437 143.521 527.617 144.548C530.171 145.175 532.591 146 534.558 147.405C535.906 148.367 536.599 149.525 536.683 151.056Z" fill="#9A466E"/>
<path fill-rule="evenodd" clip-rule="evenodd" d="M399.388 224.773C399.999 225.262 398.409 224.881 397.631 224.765C392.911 224.076 385.353 222.265 379.939 222.928C378.097 223.154 376.109 223.735 376.041 224.571C375.913 226.249 378.937 226.268 380.585 226.505C382.654 226.803 384.355 227.158 385.7 227.445C389.439 228.245 392.581 228.902 395.359 230.322C396.38 229.895 397.466 230.247 398.619 230.21C404.549 230.027 410.817 229.081 416.439 228.85C418.57 228.763 421.684 229.388 422.869 227.594C422.735 226.347 421.064 225.819 419.731 225.21C413.533 222.397 406.066 219.904 398.561 218.41C395.378 217.778 391.716 217.139 388.835 217.487C386.66 217.753 384.963 218.502 385.089 219.631C385.312 221.637 389.875 222.266 391.74 222.738C394.616 223.472 396.78 224.105 399.18 224.813C399.25 224.801 399.319 224.786 399.388 224.773Z" fill="#BB78A2"/>
<path d="M416.017 219.357H357.331C350.588 219.357 345.121 214.969 345.121 209.556V183.997C345.121 178.584 350.588 174.196 357.331 174.196H416.017C422.76 174.196 428.227 178.584 428.227 183.997V209.556C428.227 214.969 422.762 219.357 416.017 219.357Z" fill="#1E1E77"/>
<path d="M421.901 220.822H351.449C346.995 220.822 343.37 217.79 343.37 214.063V179.489C343.37 175.763 346.993 172.732 351.449 172.732H421.901C426.355 172.732 429.978 175.764 429.978 179.489V214.063C429.98 217.79 426.355 220.822 421.901 220.822ZM351.449 175.662C348.927 175.662 346.873 177.378 346.873 179.489V214.063C346.873 216.174 348.927 217.892 351.449 217.892H421.901C424.423 217.892 426.476 216.174 426.476 214.063V179.489C426.476 177.378 424.423 175.662 421.901 175.662H351.449Z" fill="#A4A4E4"/>
<path d="M346.712 175.985L386.675 196.776L426.683 176.031" fill="#1E1E77"/>
<path d="M386.675 198.241C386.355 198.241 386.033 198.167 385.75 198.02L345.788 177.229C344.966 176.801 344.714 175.898 345.225 175.21C345.736 174.523 346.818 174.313 347.637 174.74L386.677 195.051L425.761 174.784C426.583 174.36 427.661 174.57 428.172 175.257C428.682 175.945 428.428 176.848 427.606 177.274L387.597 198.02C387.316 198.167 386.996 198.241 386.675 198.241Z" fill="#A4A4E4"/>
<path fill-rule="evenodd" clip-rule="evenodd" d="M446.793 227.857C446.084 226.152 441.149 224.452 439.11 223.654C436.159 222.5 433.561 221.539 431.047 220.412C428.375 219.213 425.641 217.98 423.14 216.617C418.779 214.238 407.169 208.925 405.301 211.347C403.014 214.314 411.387 219.403 412.6 220.036C416.558 222.101 420.675 224.569 419.339 226.214C418.27 227.537 415.855 227.113 414.118 227.152C405.701 227.343 397.146 226.373 388.171 226.902C384.602 227.112 380.44 227.548 376.859 228.709C374.799 229.375 371.999 230.823 372.215 232.165C372.583 234.448 377.018 234.491 379.53 234.866C388.262 236.176 397.904 236.581 406.204 238.043C411.966 239.062 416.92 240.977 422.166 242.197C427.857 243.522 433.497 244.442 438.952 246.116C439.015 246.099 447.156 228.731 446.793 227.857Z" fill="#E2B1CE"/>
<path d="M604.671 266.606C604.239 262.212 603.608 257.84 602.667 253.501C601.023 245.926 598.781 238.455 596.57 230.978C591.941 215.332 586.817 199.803 580.499 184.534C577.381 177.002 573.769 169.644 569.339 162.552C567.421 159.481 565.071 156.636 561.714 154.407C556.572 150.991 548.72 150.708 543.634 155.704C541.465 157.836 539.856 160.205 538.677 162.776C535.645 169.388 534.912 176.293 534.909 183.249C534.908 186.094 535.066 188.958 535.358 191.812C535.797 196.108 536.227 200.405 536.948 204.674C539.256 218.342 542.692 231.832 547.142 245.155C547.564 246.419 547.871 247.709 548.187 248.995C548.387 249.808 548.216 249.907 547.206 249.626C546.71 249.488 546.23 249.313 545.74 249.159C542.208 248.047 538.681 246.92 535.08 245.957C523.339 242.815 511.538 239.832 499.632 237.109C485.879 233.963 472.175 230.68 458.427 227.52C454.308 226.574 450.17 225.682 446.03 224.792C445.243 226.671 444.228 228.5 443.278 230.346C441.45 233.898 439.436 237.382 437.448 240.876C436.471 242.596 435.525 244.327 434.603 246.064C437.04 247.212 439.482 248.354 441.937 249.477C455.377 255.63 468.903 261.655 482.609 267.425C494.556 272.454 506.448 277.552 518.762 281.991C528.615 285.543 538.509 289.018 548.309 292.664C555.043 295.169 561.949 297.337 569.155 298.826C574.542 299.938 579.952 300.777 585.588 300.174C591.433 299.55 596.324 297.72 599.697 293.689C601.342 291.721 602.481 289.575 603.224 287.291C604.74 282.623 604.909 277.847 605 273.674C604.969 270.908 604.882 268.759 604.671 266.606Z" fill="#C167A0"/>
<path d="M604.672 266.606C604.239 262.212 603.608 257.84 602.667 253.501C601.023 245.926 598.782 238.455 596.57 230.978C591.941 215.332 586.817 199.803 580.499 184.534C577.381 177.002 573.769 169.644 569.339 162.552C567.421 159.481 565.071 156.636 561.715 154.407C559.942 153.23 557.847 152.437 555.655 152.092C578.541 163.336 602.878 258.662 595.503 282.411C594.776 284.755 593.434 286.92 591.623 288.922C587.915 293.024 582.536 294.888 576.109 295.522C569.911 296.134 563.961 295.282 558.037 294.15C550.448 292.699 543.161 290.609 536.053 288.196C540.148 289.669 544.237 291.152 548.308 292.666C555.042 295.171 561.948 297.339 569.154 298.828C574.541 299.94 579.951 300.779 585.587 300.177C591.431 299.553 596.323 297.722 599.695 293.691C601.341 291.723 602.48 289.577 603.223 287.293C604.739 282.626 604.908 277.849 604.999 273.677C604.969 270.908 604.883 268.759 604.672 266.606Z" fill="#9A466E"/>
<path d="M545.504 240.096L567.53 256.891L548.071 249.743L545.504 240.096Z" fill="#9A466E"/>
<path fill-rule="evenodd" clip-rule="evenodd" d="M524.287 301.36C524.287 304.443 521.176 306.941 517.337 306.941H372.683C368.845 306.941 365.733 304.443 365.733 301.36V292.716C365.733 289.635 368.844 287.137 372.683 287.137H517.338C521.176 287.137 524.288 289.634 524.288 292.716V301.36H524.287Z" fill="#1E1E77"/>
<path d="M512.278 297.533H376.589C375.984 297.533 375.496 297.14 375.496 296.656C375.496 296.172 375.986 295.78 376.589 295.78H512.278C512.881 295.78 513.37 296.172 513.37 296.656C513.371 297.14 512.882 297.533 512.278 297.533Z" fill="#C167A0"/>
<path d="M512.278 297.533H424.295C423.692 297.533 423.203 297.14 423.203 296.656C423.203 296.172 423.692 295.78 424.295 295.78H512.278C512.881 295.78 513.37 296.172 513.37 296.656C513.371 297.14 512.882 297.533 512.278 297.533Z" fill="white"/>
<path d="M432.164 297.007C432.164 299.332 429.816 301.217 426.919 301.217C424.022 301.217 421.674 299.331 421.674 297.007C421.674 294.681 424.022 292.797 426.919 292.797C429.816 292.797 432.164 294.681 432.164 297.007Z" fill="#8080C9"/>
<path d="M85.2782 212.515C85.2768 211.02 84.3954 209.7 83.0463 208.827C83.0111 208.807 82.9841 208.777 82.9476 208.76C81.9458 208.14 80.7062 207.756 79.3448 207.756L50.8838 207.77C49.8956 207.771 48.9574 207.985 48.1097 208.348C48.0381 208.373 47.9732 208.401 47.9056 208.436C47.4703 208.641 47.0553 208.874 46.6903 209.168C45.5709 210.069 44.9545 211.265 44.9558 212.536L44.9653 225.706C44.968 228.33 47.6285 230.463 50.8973 230.463H50.9L79.361 230.448C80.9441 230.447 82.4339 229.952 83.5532 229.052C84.6726 228.152 85.289 226.957 85.2877 225.686L85.2782 212.515Z" fill="#2F2FA7"/>
<path d="M78.9799 210.276L65.4882 218.735L52.4683 210.29L78.9799 210.276Z" fill="#ECDB7F"/>
<path d="M81.3334 227.272C80.8062 227.696 80.1059 227.929 79.361 227.929L50.9 227.943C49.3615 227.943 48.107 226.939 48.1057 225.704L48.0962 212.533C48.0962 212.006 48.3314 211.512 48.7451 211.111L64.4863 221.324C64.7743 221.51 65.1231 221.604 65.4732 221.604C65.8139 221.604 66.1545 221.515 66.4398 221.337L81.9147 211.635C82.0594 211.905 82.1418 212.202 82.1418 212.515L82.1513 225.686C82.1499 226.285 81.8606 226.849 81.3334 227.272Z" fill="#ECDB7F"/>
<path d="M230.365 67.5303H189.323V114.356H230.365V67.5303Z" fill="white"/>
<path d="M230.366 115.603H189.323C188.467 115.603 187.772 115.044 187.772 114.356V67.5293C187.772 66.8424 188.467 66.2814 189.323 66.2814H230.366C231.22 66.2814 231.916 66.8424 231.916 67.5293V114.356C231.916 115.044 231.22 115.603 230.366 115.603ZM190.876 113.11H228.814V68.7761H190.876V113.11Z" fill="#2F2FA7"/>
<path d="M230.365 67.5303H189.323V75.1816H230.365V67.5303Z" fill="#2F2FA7"/>
<path d="M230.366 76.4274H189.323C188.467 76.4274 187.772 75.8685 187.772 75.1827V67.5293C187.772 66.8424 188.467 66.2814 189.323 66.2814H230.366C231.22 66.2814 231.916 66.8424 231.916 67.5293V75.1827C231.916 75.8685 231.22 76.4274 230.366 76.4274ZM190.876 73.9359H228.814V68.7761H190.876V73.9359Z" fill="#2F2FA7"/>
<path d="M200.438 89.9133C200.43 90.444 200.039 90.9811 199.183 90.9811C198.057 90.9811 197.511 90.0501 197.511 88.1305C197.511 86.1327 198.086 85.1605 199.273 85.1605C199.87 85.1605 200.313 85.5261 200.327 86.0318L200.328 86.2337H201.794L201.78 86.0144C201.696 84.8957 200.658 84.1144 199.262 84.1144C197.799 84.1144 196.056 84.8078 196.056 88.112C196.056 91.3501 197.737 92.0272 199.149 92.0272C200.753 92.0272 201.779 91.2437 201.892 89.9307L201.91 89.7082H200.441L200.438 89.9133Z" fill="#1E1E77"/>
<path d="M206.527 85.1562H205.138V87.5327H202.138V88.6102H205.138V90.9856H206.527V88.6102H209.522V87.5327H206.527V85.1562Z" fill="#1E1E77"/>
<path d="M214.447 87.5325V85.1582H213.055V87.5325H210.055V88.6122H213.055V90.9854H214.447V88.6122H217.446V87.5325H214.447Z" fill="#1E1E77"/>
<path d="M198.974 98.7811C198.272 98.7811 197.703 99.2195 197.703 99.7588C197.703 100.308 198.272 100.75 198.974 100.75C199.666 100.75 200.228 100.307 200.228 99.7588C200.228 99.2195 199.666 98.7811 198.974 98.7811Z" fill="#ECDB7F"/>
<path d="M205.844 98.7811C205.144 98.7811 204.572 99.2195 204.572 99.7588C204.572 100.308 205.144 100.75 205.844 100.75C206.535 100.75 207.101 100.307 207.101 99.7588C207.102 99.2195 206.536 98.7811 205.844 98.7811Z" fill="#ECDB7F"/>
<path d="M212.717 98.7811C212.015 98.7811 211.443 99.2195 211.443 99.7588C211.443 100.308 212.015 100.75 212.717 100.75C213.406 100.75 213.973 100.307 213.973 99.7588C213.973 99.2195 213.406 98.7811 212.717 98.7811Z" fill="#ECDB7F"/>
<path d="M324.401 427.854C324.401 429.93 326.497 431.615 329.085 431.615H495.09C497.677 431.615 499.774 429.93 499.774 427.854V332.422C499.774 330.346 497.676 328.662 495.09 328.662H329.086C326.499 328.662 324.402 330.347 324.402 332.422V427.854H324.401Z" fill="#A4A4E4"/>
<path d="M339.116 343.156C336.37 343.156 334.137 341.362 334.137 339.158C334.137 336.954 336.37 335.161 339.116 335.161C341.862 335.161 344.095 336.954 344.095 339.158C344.095 341.362 341.86 343.156 339.116 343.156ZM339.116 336.862C337.538 336.862 336.255 337.892 336.255 339.158C336.255 340.424 337.538 341.455 339.116 341.455C340.694 341.455 341.977 340.424 341.977 339.158C341.977 337.892 340.692 336.862 339.116 336.862Z" fill="white"/>
<path d="M332.184 345.106C331.883 345.106 331.584 345.004 331.375 344.804C330.996 344.445 331.053 343.909 331.5 343.606L335.695 340.761C336.143 340.458 336.811 340.502 337.188 340.862C337.566 341.221 337.509 341.757 337.062 342.06L332.867 344.905C332.668 345.041 332.426 345.106 332.184 345.106Z" fill="white"/>
<path d="M473.096 343.155H465.257C464.671 343.155 464.197 342.775 464.197 342.306V336.013C464.197 335.543 464.671 335.162 465.257 335.162H473.096C473.682 335.162 474.155 335.543 474.155 336.013V342.306C474.156 342.775 473.682 343.155 473.096 343.155ZM466.317 341.455H472.038V336.862H466.317V341.455Z" fill="white"/>
<path d="M483.337 343.155C483.065 343.155 482.795 343.072 482.588 342.906C482.174 342.574 482.174 342.036 482.588 341.704L490.428 335.411C490.841 335.079 491.512 335.079 491.926 335.411C492.339 335.743 492.339 336.281 491.926 336.613L484.086 342.906C483.879 343.072 483.607 343.155 483.337 343.155Z" fill="white"/>
<path d="M491.177 343.155C490.906 343.155 490.634 343.072 490.428 342.906L482.588 336.613C482.174 336.281 482.174 335.743 482.588 335.411C483.002 335.079 483.672 335.079 484.086 335.411L491.926 341.704C492.339 342.036 492.339 342.574 491.926 342.906C491.719 343.072 491.447 343.155 491.177 343.155Z" fill="white"/>
<path d="M484.987 412.054H424.664C424.08 412.054 423.604 411.673 423.604 411.204V360.62C423.604 360.151 424.079 359.77 424.664 359.77H484.987C485.573 359.77 486.047 360.151 486.047 360.62V411.204C486.047 411.673 485.573 412.054 484.987 412.054ZM425.724 410.353H483.929V361.469H425.724V410.353Z" fill="white"/>
<path d="M424.664 412.054C424.401 412.054 424.137 411.976 423.931 411.818C423.508 411.494 423.495 410.956 423.898 410.616L484.221 360.032C484.625 359.692 485.296 359.68 485.719 360.004C486.142 360.329 486.156 360.867 485.753 361.207L425.429 411.791C425.221 411.966 424.943 412.054 424.664 412.054Z" fill="white"/>
<path d="M484.987 412.054C484.709 412.054 484.43 411.966 484.222 411.791L423.899 361.207C423.495 360.867 423.51 360.33 423.933 360.004C424.354 359.681 425.024 359.691 425.431 360.032L485.754 410.616C486.158 410.956 486.143 411.493 485.72 411.818C485.516 411.976 485.251 412.054 484.987 412.054Z" fill="white"/>
<path d="M391.74 363.37H340.785C340.2 363.37 339.726 362.99 339.726 362.52C339.726 362.051 340.2 361.669 340.785 361.669H391.74C392.326 361.669 392.8 362.05 392.8 362.52C392.8 362.99 392.326 363.37 391.74 363.37Z" fill="white"/>
<path d="M391.74 379.276H340.785C340.2 379.276 339.726 378.895 339.726 378.427C339.726 377.957 340.2 377.576 340.785 377.576H391.74C392.326 377.576 392.8 377.957 392.8 378.427C392.8 378.895 392.326 379.276 391.74 379.276Z" fill="white"/>
<path d="M391.74 395.311H340.785C340.2 395.311 339.726 394.93 339.726 394.461C339.726 393.991 340.2 393.611 340.785 393.611H391.74C392.326 393.611 392.8 393.992 392.8 394.461C392.8 394.93 392.326 395.311 391.74 395.311Z" fill="white"/>
<path d="M391.74 411.218H340.785C340.2 411.218 339.726 410.837 339.726 410.369C339.726 409.899 340.2 409.518 340.785 409.518H391.74C392.326 409.518 392.8 409.899 392.8 410.369C392.8 410.837 392.326 411.218 391.74 411.218Z" fill="white"/>
<path d="M403.826 362.521C403.826 364.259 405.581 365.668 407.745 365.668C409.911 365.668 411.664 364.259 411.664 362.521C411.664 360.782 409.911 359.375 407.745 359.375C405.581 359.375 403.826 360.782 403.826 362.521Z" fill="#ECDB7F"/>
<path d="M403.826 378.427C403.826 380.165 405.581 381.574 407.745 381.574C409.911 381.574 411.664 380.165 411.664 378.427C411.664 376.689 409.911 375.281 407.745 375.281C405.581 375.281 403.826 376.689 403.826 378.427Z" fill="#ECDB7F"/>
<path d="M403.826 394.462C403.826 396.2 405.581 397.608 407.745 397.608C409.911 397.608 411.664 396.2 411.664 394.462C411.664 392.725 409.911 391.315 407.745 391.315C405.581 391.316 403.826 392.725 403.826 394.462Z" fill="#ECDB7F"/>
<path d="M403.826 410.368C403.826 412.106 405.581 413.515 407.745 413.515C409.911 413.515 411.664 412.106 411.664 410.368C411.664 408.63 409.911 407.222 407.745 407.222C405.581 407.222 403.826 408.63 403.826 410.368Z" fill="#ECDB7F"/>
<path d="M350.376 342.259C350.376 345.974 354.13 348.987 358.756 348.987H450.79C455.422 348.987 459.172 345.974 459.172 342.259C459.172 338.545 455.422 335.531 450.79 335.531H358.756C354.13 335.531 350.376 338.545 350.376 342.259Z" fill="white"/>
<path fill-rule="evenodd" clip-rule="evenodd" d="M164.037 379.662C172.533 383.236 180.209 387.97 187.913 392.7C191.197 385.965 193.403 379.004 197.2 373.567C199.824 369.811 204.208 367.115 205.522 363.219C212.157 361.981 221.018 354.285 213.255 349.205C214.671 344.005 212.172 337.322 206.502 335.941C201.406 334.705 199.631 338.459 195.047 339.728C196.034 333.839 199.685 320.992 193.488 318.242C189.789 316.603 186.403 330.2 184.902 334.254C183.326 338.506 181.973 343.137 179.957 346.861C177.489 344.831 170.073 338.928 167.018 342.796C165.697 344.469 168.12 346.919 169.35 348.698C174.07 355.528 173.541 362.456 168.102 372.836C166.871 375.177 165.496 377.44 164.037 379.662Z" fill="#935E45"/>
<path fill-rule="evenodd" clip-rule="evenodd" d="M167.014 342.795C170.329 337.749 180.45 346.46 182.455 349.766C187.96 350.547 194.502 352.923 194.74 356.695C190.592 353.596 186.066 353.843 181.654 351.712C176.334 349.139 176.134 342.784 167.014 342.795Z" fill="#5D382E"/>
<path fill-rule="evenodd" clip-rule="evenodd" d="M210.293 351C208.945 351.05 207.028 349.659 206.3 347.891C206.601 351.911 198.912 357.533 201.852 359.13C203.344 359.938 205.29 358.752 206.756 357.879C209.444 356.279 212.33 352.188 213.378 351.427C211.681 355.774 208.917 358.178 204.787 360.928C208.173 362.067 211.143 360.018 214.231 358.226C212.155 360.819 208.814 362.651 205.521 363.216C203.858 363.059 203.112 362.605 202.844 361.771C202.844 361.771 199.846 361.8 198.748 360.002C196.884 356.949 202.042 353.441 203.478 350.398C201.915 348.95 198.091 347.851 194.905 347.556C194.998 348.35 195.138 349.225 194.357 349.821C193.345 347.59 192.378 345.941 190.727 344.635C192.343 338.832 197.266 321.531 192.629 318.019C201.088 319.269 195.161 338.372 194.103 345.849C196.251 345.968 197.137 346.121 199.151 346.561C200.893 344.977 202.639 343.404 204.441 341.924C205.557 344.362 208.138 350.404 213.255 349.206C213.183 350.016 211.911 350.937 210.293 351ZM203.946 348.849C204.493 347.639 205.119 346.371 205.119 346.371C205.031 345.999 204.346 345.546 203.885 344.543C203.124 345.625 202.002 346.607 201.602 347.281C201.602 347.281 203.469 347.994 203.946 348.849Z" fill="#5D382E"/>
<path fill-rule="evenodd" clip-rule="evenodd" d="M187.97 392.734C188.912 390.626 189.831 388.537 190.722 386.477C189.597 388.425 188.444 390.376 187.303 392.326C187.526 392.463 187.748 392.599 187.97 392.734Z" fill="#5D382E"/>
<path d="M301.326 374.367C301.326 376.763 298.28 378.704 294.52 378.704H211.83C208.072 378.704 205.025 376.763 205.025 374.367V262.828C205.025 260.432 208.072 258.491 211.83 258.491H294.52C298.279 258.491 301.326 260.432 301.326 262.828V374.367Z" fill="#ECDB7F"/>
<path d="M282.151 304.27H222.546C221.961 304.27 221.487 303.889 221.487 303.42V269.936C221.487 269.466 221.961 269.085 222.546 269.085H282.151C282.735 269.085 283.209 269.466 283.209 269.936V303.42C283.209 303.889 282.735 304.27 282.151 304.27ZM223.605 302.569H281.091V270.786H223.605V302.569Z" fill="white"/>
<path d="M282.149 304.27C281.94 304.27 281.728 304.22 281.542 304.116L221.938 270.632C221.458 270.362 221.342 269.832 221.679 269.448C222.012 269.062 222.674 268.968 223.153 269.239L282.758 302.723C283.238 302.992 283.354 303.523 283.017 303.907C282.812 304.144 282.483 304.27 282.149 304.27Z" fill="white"/>
<path d="M222.546 304.27C222.212 304.27 221.884 304.144 221.678 303.907C221.343 303.523 221.459 302.992 221.938 302.723L281.542 269.239C282.022 268.97 282.683 269.063 283.017 269.448C283.352 269.832 283.236 270.362 282.757 270.631L223.153 304.115C222.968 304.22 222.756 304.27 222.546 304.27Z" fill="white"/>
<path d="M280.558 317.332H221.349C220.765 317.332 220.291 316.952 220.291 316.482C220.291 316.012 220.765 315.631 221.349 315.631H280.558C281.144 315.631 281.617 316.012 281.617 316.482C281.617 316.952 281.144 317.332 280.558 317.332Z" fill="white"/>
<path d="M280.558 330.562H221.349C220.765 330.562 220.291 330.182 220.291 329.713C220.291 329.243 220.765 328.862 221.349 328.862H280.558C281.144 328.862 281.617 329.243 281.617 329.713C281.618 330.182 281.144 330.562 280.558 330.562Z" fill="white"/>
<path d="M280.558 343.9H221.349C220.765 343.9 220.291 343.519 220.291 343.049C220.291 342.58 220.765 342.2 221.349 342.2H280.558C281.144 342.2 281.617 342.58 281.617 343.049C281.618 343.519 281.144 343.9 280.558 343.9Z" fill="white"/>
<path d="M282.151 368.335H221.35C220.766 368.335 220.292 367.954 220.292 367.484V354.378C220.292 353.909 220.766 353.527 221.35 353.527H282.151C282.735 353.527 283.209 353.908 283.209 354.378V367.484C283.209 367.954 282.735 368.335 282.151 368.335ZM222.409 366.635H281.091V355.229H222.409V366.635Z" fill="white"/>
<path fill-rule="evenodd" clip-rule="evenodd" d="M289.157 324.008C289.63 327.21 288.982 330.799 289.452 333.471C290.147 337.389 292.995 340.534 295.308 342.611C298.606 345.57 296.041 355.502 293.135 361.18C299.99 363.783 319.101 369.704 320.659 370.402C321.759 353.657 335.022 339.137 337.787 329.238C338.313 327.357 339.98 325.558 336.999 323.486C335.789 322.645 333.415 323.565 332.029 323.966C332.374 323.018 332.602 321.269 331.52 320.565C329.573 319.613 326.762 321.403 325.784 321.55C327.138 319.66 325.796 316.873 322.139 317.806C325.801 313.588 329.977 309.789 333.807 305.894C335.094 304.584 337.114 303.099 336.14 300.924C335.187 300.188 333.415 300.45 332.181 300.66C328.717 301.247 325.305 303.726 322.531 305.474C316.596 309.214 311.811 313.417 307.86 317.889C305.71 320.32 304.321 323.094 301.292 324.563C298.597 321.839 297.478 315.8 294.845 313.324C293.551 312.111 290.469 310.353 288.043 310.96C284.868 311.757 286.056 314.865 287.096 317.739C287.954 320.102 288.825 321.736 289.157 324.008Z" fill="#935E45"/>
<path fill-rule="evenodd" clip-rule="evenodd" d="M93.3911 365.31L108.835 332.388C108.086 331.006 104.9 329.435 104.267 328.368C102.128 324.774 100.952 320.201 100.566 316.838C99.4286 306.903 105.236 295.844 112.077 290.633C118.993 285.363 129.512 281.075 141.523 281.263C149.449 281.389 156.597 284.134 160.7 288.085C164.877 292.11 165.831 297.076 169.179 303.582C170.111 305.384 171.074 307.474 172.821 309.47C174.144 310.994 177.102 313.95 176.515 315.22C175.465 317.492 172.519 317.3 170.997 319.315C170.018 333.157 166.707 345.293 149.595 347.348C149.595 347.348 134.64 374.208 133.866 375.108C133.138 375.968 96.9844 365.506 93.3911 365.31Z" fill="#935E45"/>
<path fill-rule="evenodd" clip-rule="evenodd" d="M143.367 358.488L149.594 347.348C134.338 348.234 120.204 334.911 120.204 334.911C123.342 356.365 143.367 358.488 143.367 358.488Z" fill="#5D382E"/>
<path d="M162.553 333.655C166.995 333.365 167.687 328.268 167.446 327.808C167.218 327.347 166.535 327.102 165.967 327.309C162.762 328.479 159.209 327.209 158.367 326.354C157.981 325.96 157.192 325.743 156.803 326.122C155.147 327.694 156.964 334.185 162.553 333.655Z" fill="#5D382E"/>
<path fill-rule="evenodd" clip-rule="evenodd" d="M170.533 290.396C172.37 289.547 173.59 288.304 174.886 287.075C176.16 285.852 177.21 284.421 178.6 283.277C179.481 296.408 154.937 303.252 140.868 296.127C139.147 304.083 136.087 312.741 132.285 320.517C131.507 322.119 128.802 326.941 127.83 327.251C127.093 327.481 123.989 321.164 123.154 319.642C121.43 316.548 118.904 313.422 115.758 312.377C110.756 310.721 105.634 312.755 105.432 317.143C105.281 320.502 107.311 324.525 108.739 327.232C109.162 328.02 110.2 329.202 110.123 330.102C110.022 331.172 108.62 332.337 107.528 332.385C105.597 332.466 101.739 328.161 99.9044 326.345C91.8797 318.43 83.6954 307.689 85.6138 294.053C82.8289 295.686 82.0813 302.836 84.2267 306.748C83.0722 306.811 81.3418 304.998 80.4144 303.729C74.8163 296.033 81.746 285.336 89.8154 282.952C86.2735 280.034 82.4517 276.009 81.8704 271.331C86.5722 274.844 90.9564 278.628 98.6999 279.454C107.664 272.585 111.962 255.262 131.325 256.837C141.211 257.644 150.444 264.516 149.62 274.637C151.856 273.663 154.545 271.666 157.901 271.168C171.977 269.068 178.486 282.144 170.808 289.896C170.867 290.1 170.699 290.131 170.517 290.152C170.522 290.236 170.526 290.312 170.533 290.396Z" fill="#1E1E77"/>
<path fill-rule="evenodd" clip-rule="evenodd" d="M102.615 319.271C103.157 322.98 109.715 330.931 114.803 329.903C118.641 329.128 117.38 321.639 116.838 317.93C116.294 314.217 115.005 312.161 115.005 312.161C110.984 311.043 108.226 311.784 106.592 312.468C102.886 314.029 102.236 316.691 102.615 319.271Z" fill="#935E45"/>
<path d="M117.65 323.483C117.741 323.474 117.83 323.453 117.917 323.426C118.505 323.246 118.803 322.722 118.579 322.251C116.822 318.526 113.554 316.107 109.374 315.447C108.763 315.35 108.164 315.667 108.04 316.162C107.921 316.652 108.318 317.135 108.936 317.23C112.316 317.763 114.99 319.782 116.458 322.9C116.649 323.292 117.146 323.531 117.65 323.483Z" fill="#5D382E"/>
<path d="M110.101 324.317C110.661 324.264 111.096 323.88 111.098 323.416C111.108 321.719 112.325 320.185 114.515 319.102C115.05 318.837 115.214 318.278 114.883 317.851C114.558 317.423 113.859 317.288 113.325 317.555C110.441 318.977 108.848 321.056 108.832 323.409C108.825 323.905 109.332 324.321 109.959 324.324C110.007 324.322 110.053 324.321 110.101 324.317Z" fill="#5D382E"/>
<path fill-rule="evenodd" clip-rule="evenodd" d="M160.198 301.022C160.74 301.803 155.754 303.532 152.03 305.202C148.33 306.875 145.809 308.582 145.279 307.807C144.738 307.028 147.102 304.533 150.827 302.853C154.542 301.189 159.659 300.245 160.198 301.022Z" fill="#1E1E77"/>
<path fill-rule="evenodd" clip-rule="evenodd" d="M160.433 308.447C161.032 309.95 160.396 311.477 159.02 311.822C157.643 312.167 156.046 311.209 155.446 309.704C154.858 308.197 155.489 306.686 156.872 306.338C158.248 305.993 159.846 306.933 160.433 308.447Z" fill="#1E1E77"/>
<path d="M187.446 452.944C187.082 453.27 187.254 453.589 187.317 453.884C189.479 464.023 191.647 474.162 193.816 484.3C194.828 489.034 195.845 493.768 196.85 498.503C197.122 499.786 196.957 499.942 195.372 499.988C194.92 500.001 194.467 499.992 194.016 499.992C148.091 499.992 102.168 499.992 56.2433 499.992C52.9907 499.992 53.1664 500.122 53.1583 497.578C53.1529 495.764 53.1732 493.95 53.1394 492.137C53.0529 487.424 53.0664 482.706 52.8122 477.999C52.531 472.795 52.0133 467.6 51.5658 462.402C51.213 458.289 50.806 454.179 50.4329 450.067C49.5894 440.794 49.223 431.506 49.5502 422.213C49.8746 412.996 51.0453 403.85 54.2195 394.94C56.4718 388.618 59.6365 382.637 64.6182 377.347C73.3891 368.033 85.0937 362.639 99.2992 360.556C105.999 359.574 112.757 359.275 119.541 359.555C125.289 359.793 131.025 360.199 136.742 360.767C143.688 361.457 150.63 362.171 157.587 362.78C170.884 363.943 182.798 367.916 193.618 374.109C202.261 379.056 209.831 384.949 216.876 391.3C221.232 395.227 225.635 399.12 230.021 403.026C234.525 407.033 238.734 411.239 243.101 415.34C243.757 415.955 244.408 416.571 245.018 417.144C245.656 417.081 245.691 416.709 245.838 416.441C246.773 414.74 247.688 413.033 248.604 411.326C249.633 409.409 250.773 407.542 252.044 405.718C256.015 400.017 259.426 394.085 263.084 388.256C268.627 379.427 274.578 370.778 280.61 362.162C284.234 356.984 287.88 351.817 291.525 346.649C292.54 345.208 292.551 345.218 294.384 345.825C304.253 349.094 314.257 352.076 324.362 354.84C326.617 355.457 326.637 355.469 326.163 357.333C324.412 364.22 322.202 371.019 319.997 377.818C317.451 385.67 314.923 393.526 312.32 401.366C307.07 417.178 301.957 433.021 296.209 448.723C293.312 456.639 290.414 464.559 286.5 472.203C284.176 476.741 281.551 481.16 277.645 484.997C275.344 487.257 272.71 489.234 269.679 490.856C264.094 493.846 258.145 494.283 251.892 492.455C247.993 491.314 244.416 489.664 240.957 487.857C230.004 482.14 219.58 475.857 209.684 469.005C202.454 464 195.451 458.796 188.482 453.561C188.162 453.328 187.892 453.025 187.446 452.944Z" fill="#2F2FA7"/>
<path d="M322.515 368.414C321.851 369.47 321.373 370.586 320.92 371.707C318.296 378.218 315.718 384.742 313.049 391.242C311.477 395.073 309.521 398.811 308.162 402.687C303.781 415.176 298.665 427.468 292.94 439.591C289.137 447.645 284.942 455.581 279.505 463.037C276.759 466.802 273.643 470.36 269.396 473.179C265.705 475.628 261.547 477.026 256.698 477.105C252.924 477.165 249.276 476.699 245.689 475.816C239.857 474.381 234.559 472.061 229.484 469.404C221.391 465.167 213.589 460.593 205.966 455.835C194.509 448.685 183.161 441.421 171.754 434.219C171.158 433.842 170.659 433.306 169.66 433.153C169.554 433.893 169.856 434.383 170.142 434.866C170.728 435.85 171.447 436.769 172.265 437.643C177.653 443.395 183.395 448.907 189.393 454.253C196.06 459.255 202.764 464.224 209.678 469.01C219.575 475.861 229.999 482.144 240.952 487.863C244.412 489.669 247.989 491.321 251.888 492.46C258.14 494.289 264.091 493.851 269.674 490.862C272.705 489.239 275.34 487.262 277.641 485.002C281.546 481.165 284.173 476.746 286.496 472.208C290.409 464.564 293.306 456.643 296.205 448.728C301.953 433.026 307.064 417.183 312.315 401.372C314.919 393.532 317.447 385.675 319.992 377.823C321.135 374.301 322.277 370.779 323.357 367.244C323.29 367.313 323.223 367.378 323.154 367.46C322.908 367.758 322.719 368.091 322.515 368.414Z" fill="#1E1E77"/>
<path d="M236.564 432.791C236.991 432.65 242.277 423.06 245.498 416.978C245.392 417.061 245.243 417.124 245.014 417.147C244.406 416.574 243.753 415.956 243.097 415.342C242.056 414.364 241.024 413.38 239.993 412.394C238.926 417.637 236.074 432.319 236.564 432.791Z" fill="#1E1E77"/>
<path d="M64.0812 458.583C62.9321 450.612 62.2521 442.616 61.8681 434.603C61.637 429.758 61.7181 424.906 61.5383 420.058C61.399 416.3 61.764 412.543 62.0615 408.79C62.4062 404.44 63.1578 400.144 64.1744 395.865C66.8512 384.597 74.3446 375.546 84.2701 367.619C87.1942 365.282 90.4873 363.302 93.9657 361.525C82.1436 364.089 72.2627 369.229 64.6152 377.35C59.6335 382.639 56.4688 388.622 54.2179 394.944C51.0437 403.852 49.873 412.998 49.5485 422.216C49.2213 431.509 49.5891 440.797 50.4313 450.071C50.8057 454.182 51.21 458.293 51.5641 462.405C52.0103 467.603 52.5294 472.799 52.8106 478.002C53.0647 482.709 53.0526 487.426 53.1377 492.14C53.1715 493.953 53.1512 495.768 53.1567 497.581C53.1648 500.126 52.989 499.995 56.2416 499.995C60.9191 499.995 65.5966 499.995 70.2741 499.995C69.3481 493.565 68.4356 487.133 67.4649 480.707C66.3496 473.329 65.1451 465.963 64.0812 458.583Z" fill="#1E1E77"/>
<path d="M120.612 365.736C109.328 366.181 98.0318 366.343 86.7504 366.832C84.8916 366.912 83.0435 367.123 81.1847 367.216C79.6584 367.293 79.4881 367.083 80.0072 365.893C80.2479 365.339 80.5263 364.787 80.8765 364.273C82.4933 361.906 84.5698 359.824 87.1235 358.07C89.3987 356.506 92.1984 355.92 95.0644 355.572C99.1957 355.069 103.36 354.777 107.535 354.647C112.444 354.494 117.334 354.019 122.251 354.024C126.424 354.03 130.603 353.941 134.762 354.374C141.639 355.09 147.909 356.921 153.159 360.688C154.547 361.684 155.983 362.638 157.39 363.619C157.641 363.795 157.966 363.997 157.86 364.292C157.755 364.589 157.349 364.613 157.017 364.646C156.682 364.679 156.341 364.69 156.003 364.7C144.205 365.045 132.409 365.39 120.612 365.736Z" fill="white"/>
<path d="M393.728 425.089H342.53V469.958H393.728V425.089Z" fill="white"/>
<path d="M393.728 471.286H342.53C341.687 471.286 341.009 470.738 341.009 470.065V425.195C341.009 424.522 341.687 423.975 342.53 423.975H393.728C394.566 423.975 395.247 424.522 395.247 425.195V470.065C395.247 470.738 394.566 471.286 393.728 471.286ZM344.048 468.848H392.212V426.414H344.048V468.848Z" fill="#2F2FA7"/>
<path d="M393.728 425.195H342.53V432.526H393.728V425.195Z" fill="#2F2FA7"/>
<path d="M393.728 433.636H342.53C341.687 433.636 341.009 433.091 341.009 432.418V425.086C341.009 424.414 341.687 423.867 342.53 423.867H393.728C394.566 423.867 395.247 424.414 395.247 425.086V432.418C395.247 433.091 394.566 433.636 393.728 433.636ZM344.048 431.2H392.212V426.306H344.048V431.2Z" fill="#2F2FA7"/>
<path d="M352.42 437.61C352.341 437.816 352.293 438.058 352.27 438.329C352.241 438.602 352.235 438.95 352.235 439.373L352.252 439.951C352.252 440.299 352.24 440.604 352.222 440.865C352.198 441.125 352.164 441.32 352.118 441.457C351.921 442.058 351.517 442.357 350.912 442.357V443.164C351.381 443.164 351.734 443.377 351.965 443.795C352.167 444.147 352.27 444.519 352.27 444.913V447.213C352.27 447.663 352.42 448.062 352.729 448.417C353.036 448.771 353.454 448.947 353.978 448.947H355.103V448.073H354.365C353.839 448.073 353.577 447.59 353.577 446.623L353.594 445.453C353.594 443.91 353.101 443.008 352.118 442.749C352.541 442.642 352.891 442.396 353.167 442.009C353.44 441.624 353.577 441.243 353.577 440.866L353.594 440.1V438.581C353.594 437.846 353.851 437.476 354.365 437.476H355.103V436.601H353.978C353.193 436.601 352.674 436.938 352.42 437.61Z" fill="#1F005A"/>
<path d="M353.892 456.396C353.847 456.261 353.815 456.065 353.792 455.805C353.772 455.545 353.761 455.24 353.761 454.892L353.776 454.312C353.776 453.889 353.763 453.541 353.742 453.27C353.722 452.996 353.67 452.754 353.59 452.55C353.335 451.877 352.816 451.541 352.033 451.541H350.912V452.416H351.646C352.161 452.416 352.42 452.784 352.42 453.519V455.037L352.436 455.807C352.436 456.181 352.571 456.564 352.844 456.947C353.121 457.333 353.469 457.582 353.892 457.687C352.91 457.946 352.42 458.848 352.42 460.393L352.436 461.563C352.436 462.529 352.171 463.013 351.646 463.013H350.912V463.889H352.033C352.559 463.889 352.974 463.711 353.282 463.357C353.589 463.004 353.742 462.603 353.742 462.154V459.854C353.742 459.459 353.847 459.087 354.049 458.735C354.28 458.318 354.631 458.105 355.102 458.105V457.296C354.498 457.296 354.095 456.995 353.892 456.396Z" fill="#1F005A"/>
<path d="M362.067 441.444H364.381V447.23H365.806V440.448H362.067V441.444Z" fill="#1F005A"/>
<path d="M365.057 438.01C364.437 438.01 363.957 438.398 363.957 438.896C363.957 439.389 364.437 439.777 365.057 439.777C365.675 439.777 366.162 439.389 366.162 438.896C366.162 438.398 365.675 438.01 365.057 438.01Z" fill="#1F005A"/>
<path d="M375.414 442.228H371.165V443.221H375.414V442.228Z" fill="#1F005A"/>
<path d="M383.814 442.228H379.568V443.221H383.814V442.228Z" fill="#1F005A"/>
<path d="M198.668 297.871C199.705 296.374 200.673 295.019 201.591 293.642C205.234 288.177 208.102 282.466 210.091 276.47C210.812 274.299 211.387 272.105 211.831 269.895C212.505 266.549 212.598 263.173 212.403 259.789C212.313 258.225 212.317 256.657 212.223 255.094C211.952 250.575 210.34 246.34 208.006 242.252C205.046 237.072 200.777 232.724 195.236 229.173C195.115 229.096 195 229.016 194.877 228.943C194.145 228.508 194.095 228.509 193.401 228.959C190.535 230.816 187.495 232.471 184.26 233.879C178.24 236.501 171.852 238.226 165.01 238.761C161.39 239.045 157.827 238.821 154.373 237.821C151.845 237.088 149.599 236 147.784 234.402C145.407 232.312 144.231 229.885 144.978 227.036C145.545 224.879 147.082 223.179 149.168 221.778C152.358 219.634 156.081 218.4 160.105 217.718C164.408 216.989 168.739 216.887 173.119 217.294C180.341 217.965 186.9 220.024 192.997 223.131C194.083 223.684 194.112 223.721 195.102 223.087C197.911 221.284 200.712 219.471 203.479 217.625C208.399 214.345 213.099 210.869 217.574 207.199C218.591 206.365 219.564 205.495 220.563 204.648C220.812 204.436 221.009 204.169 221.5 204.001C221.359 204.469 221.09 204.765 220.851 205.064C216.41 210.576 211.439 215.75 205.534 220.312C203.412 221.952 201.229 223.542 199.062 225.145C197.964 225.957 197.95 225.955 199.102 226.71C205.841 231.126 210.608 236.67 213.843 243.126C216.221 247.871 217.347 252.788 217.251 257.886C217.181 261.61 216.635 265.291 215.704 268.947C213.633 277.089 209.443 284.528 204.215 291.632C202.756 293.615 201.369 295.639 199.456 297.379C199.278 297.535 199.17 297.751 198.668 297.871ZM172.839 221.095C171.09 220.878 168.605 220.822 166.119 220.935C161.985 221.122 158.006 221.806 154.381 223.498C152.946 224.166 151.657 224.983 150.693 226.085C149.221 227.766 149.245 229.473 150.739 231.128C151.946 232.466 153.594 233.331 155.468 233.944C157.958 234.759 160.563 235.013 163.229 234.917C168.022 234.743 172.593 233.753 177.035 232.367C181.448 230.99 185.495 229.073 189.273 226.789C190.084 226.299 190.069 226.238 189.182 225.777C189.15 225.76 189.117 225.745 189.083 225.729C184.264 223.431 179.131 221.822 172.839 221.095Z" fill="#1E1E77"/>
<path fill-rule="evenodd" clip-rule="evenodd" d="M244.728 178.023L190.097 201.283L210.354 209.703L223.533 222.946L244.728 178.023Z" fill="white"/>
<path fill-rule="evenodd" clip-rule="evenodd" d="M244.728 178.023L206.786 208.208L202.382 217.075L212.698 212.196L244.728 178.023Z" fill="#CECEF4"/>
<path d="M441.949 468.694C441.734 468.299 441.98 468.014 442.122 467.732C444.982 462.058 449.759 457.851 456.813 455.39C458.8 454.696 460.866 454.307 463.034 454.194C465.265 454.078 465.188 454.035 465.402 452.294C466.177 446.012 468.114 439.985 472.077 434.487C477.116 427.493 484.156 422.113 492.985 418.232C497.743 416.139 502.775 414.641 508.043 413.635C508.285 413.588 508.529 413.542 508.775 413.508C509.448 413.415 509.664 413.125 509.551 412.573C509.299 411.349 509.069 410.12 508.911 408.886C508.296 404.09 508.398 399.306 509.178 394.517C509.936 389.855 511.209 385.302 513.07 380.844C515.283 375.539 518.324 370.545 521.826 365.731C525.706 360.395 530.11 355.349 535.112 350.645C540.275 345.789 545.976 341.382 552.119 337.329C558.458 333.146 565.148 329.388 572.406 326.303C578.058 323.901 583.877 321.801 590.026 320.343C591.593 319.972 593.18 319.641 594.969 319.879C594.707 320.419 594.123 320.484 593.682 320.673C588.575 322.855 583.312 324.791 578.265 327.071C566.88 332.214 556.6 338.524 547.561 346.078C536.856 355.025 528.365 365.21 522.168 376.584C518.811 382.747 516.691 389.186 515.834 395.902C515.21 400.794 515.254 405.648 516.252 410.498C516.309 410.775 516.374 411.05 516.445 411.324C516.783 412.616 516.783 412.562 518.393 412.53C528.742 412.332 538.697 413.58 547.736 417.934C552.058 420.017 555.892 422.556 558.452 426.132C560.414 428.871 560.823 431.729 559.12 434.642C557.756 436.975 555.36 438.453 552.44 439.379C548.888 440.504 545.185 440.769 541.408 440.408C533.683 439.673 527.381 436.758 522.022 432.335C517.604 428.689 514.343 424.477 512.075 419.746C511.472 418.49 511.428 418.47 509.767 418.746C501.74 420.074 494.575 422.894 488.253 427.032C479.115 433.013 473.756 440.743 472.077 450.124C471.85 451.397 471.713 452.668 471.668 453.949C471.629 455.095 471.643 455.102 472.955 455.546C475.642 456.453 478.183 457.559 480.288 459.2C482.962 461.285 484.756 463.691 484.413 466.853C484.111 469.618 481.981 471.143 478.52 470.909C475.84 470.729 473.538 469.828 471.586 468.349C468.893 466.308 467.296 463.757 466.269 460.946C466.157 460.639 466.073 460.325 465.976 460.015C465.52 458.558 465.519 458.514 463.711 458.528C460.311 458.553 457.099 459.228 454.109 460.532C449.853 462.389 446.159 464.797 443.095 467.82C442.771 468.138 442.546 468.571 441.949 468.694ZM523.117 418.146C522.119 418.121 521.121 418.071 520.125 418.076C519.071 418.082 518.939 418.232 519.331 418.99C519.925 420.137 520.614 421.249 521.397 422.323C524.771 426.952 529.173 430.752 535.249 433.13C539.437 434.77 543.837 435.446 548.473 434.562C549.701 434.327 550.833 433.943 551.779 433.236C552.872 432.421 553.243 431.464 552.872 430.302C552.488 429.1 551.618 428.126 550.631 427.218C548.475 425.235 545.866 423.695 543.033 422.401C536.861 419.584 530.118 418.468 523.117 418.146ZM472.949 460.621C473.798 462.608 474.853 464.468 477.012 465.768C477.249 465.911 477.517 466.039 477.794 466.118C478.194 466.23 478.632 466.547 479.033 466.224C479.394 465.932 479.162 465.542 479.051 465.199C478.989 465.006 478.914 464.812 478.805 464.634C477.575 462.632 475.42 461.496 472.949 460.621Z" fill="#ECDB7F"/>
<path fill-rule="evenodd" clip-rule="evenodd" d="M404.583 494.646L462.297 476.819L443.447 466.507L432.342 452.09L404.583 494.646Z" fill="white"/>
<path fill-rule="evenodd" clip-rule="evenodd" d="M404.583 494.646L446.764 468.336L452.464 459.957L441.492 463.807L404.583 494.646Z" fill="#CECEF4"/>
</svg>
