<svg xmlns="http://www.w3.org/2000/svg" width="70" height="62" fill="none" overflow="visible"><g><path d="M 58.333 15.5 C 64.777 15.5 70 20.705 70 27.125 C 70 33.545 64.777 38.75 58.333 38.75 M 27.222 15.5 L 27.222 58.125 C 27.222 60.265 25.481 62 23.333 62 L 19.444 62 C 17.297 62 15.556 60.265 15.556 58.125 L 15.556 38.75" fill="transparent" stroke-width="2" stroke="rgb(0,0,0)" stroke-linecap="round" stroke-linejoin="round" stroke-dasharray=""></path><path d="M 35 15.417 L 35 15.417 L 52.593 0.808 C 53.637 -0.058 55.089 -0.245 56.319 0.33 C 57.549 0.904 58.334 2.136 58.333 3.489 L 58.333 50.594 C 58.334 51.947 57.549 53.179 56.319 53.753 C 55.089 54.328 53.637 54.142 52.593 53.275 L 35 38.667 L 3.889 38.667 C 1.741 38.667 0 36.932 0 34.792 L 0 19.292 C 0 17.151 1.741 15.417 3.889 15.417 L 35 15.417" fill="transparent" stroke-width="2" stroke="rgb(0,0,0)" stroke-linecap="round" stroke-linejoin="round" stroke-dasharray=""></path></g></svg>