<svg xmlns="http://www.w3.org/2000/svg" width="56" height="70" fill="none" overflow="visible"><g><path d="M 52.5 26.67 C 52.5 35.7 48.055 42.648 41.293 47.222 C 39.718 48.286 38.93 48.818 38.542 49.427 C 38.157 50.029 38.021 50.827 37.758 52.416 L 37.548 53.652 C 37.086 56.445 36.851 57.841 35.872 58.671 C 34.892 59.5 33.477 59.5 30.646 59.5 L 21.504 59.5 C 18.673 59.5 17.258 59.5 16.278 58.671 C 15.298 57.841 15.068 56.445 14.599 53.652 L 14.396 52.416 C 14.13 50.831 14 50.036 13.615 49.434 C 13.23 48.832 12.439 48.293 10.86 47.215 C 4.172 42.641 0 35.697 0 26.67 C 0 11.946 11.753 0 26.25 0 C 28.014 -0.001 29.773 0.177 31.5 0.532" fill="transparent" stroke-width="1.5" stroke="rgb(0,0,0)" stroke-linecap="round" stroke-linejoin="round" stroke-dasharray=""></path><path d="M 43.75 0 L 44.653 2.44 C 45.836 5.638 46.428 7.238 47.593 8.403 C 48.762 9.573 50.361 10.164 53.561 11.347 L 56 12.25 L 53.561 13.153 C 50.361 14.336 48.762 14.927 47.597 16.093 C 46.428 17.262 45.836 18.862 44.653 22.06 L 43.75 24.5 L 42.847 22.06 C 41.664 18.862 41.072 17.262 39.907 16.097 C 38.738 14.927 37.139 14.336 33.939 13.153 L 31.5 12.25 L 33.939 11.347 C 37.139 10.164 38.738 9.573 39.903 8.407 C 41.072 7.238 41.664 5.638 42.847 2.44 Z M 33.25 59.5 L 33.25 63 C 33.25 66.301 33.25 67.949 32.225 68.974 C 31.199 70 29.55 70 26.25 70 C 22.95 70 21.301 70 20.275 68.974 C 19.25 67.949 19.25 66.301 19.25 63 L 19.25 59.5" fill="transparent" stroke-width="1.5" stroke="rgb(0,0,0)" stroke-linejoin="round" stroke-dasharray=""></path></g></svg>