<svg xmlns="http://www.w3.org/2000/svg" width="73.039" height="65.047" fill="none" overflow="visible"><g><path d="M 66.97 34.871 L 36.553 65.047 L 6.137 34.871 C 0.667 29.539 -1.351 21.582 0.915 14.282 C 3.181 6.982 9.347 1.574 16.871 0.289 C 24.394 -0.995 32.001 2.06 36.553 8.196 C 41.125 2.106 48.715 -0.909 56.211 0.387 C 63.708 1.684 69.849 7.075 72.116 14.348 C 74.384 21.622 72.397 29.555 66.97 34.895" fill="transparent" stroke-width="2" stroke="rgb(0,0,0)" stroke-linecap="round" stroke-linejoin="round" stroke-dasharray=""></path><path d="M 36.848 8.125 L 23.493 21.503 C 21.91 23.089 21.91 25.661 23.493 27.247 L 25.695 29.453 C 28.493 32.256 33.036 32.256 35.834 29.453 L 39.89 25.391 C 44.929 20.342 53.1 20.342 58.14 25.391 L 67.265 34.531 M 38.876 46.719 L 46.987 54.844 M 49.015 36.563 L 57.126 44.688" fill="transparent" stroke-width="2" stroke="rgb(0,0,0)" stroke-linecap="round" stroke-linejoin="round" stroke-dasharray=""></path></g></svg>